<svg xmlns="http://www.w3.org/2000/svg" viewBox="0 0 16 20" width="16px" height="20px"><g fill="none" fill-rule="evenodd"><rect fill="#FFF" x=".25" y="5.75" width="15.5" height="14" rx="2"/><path d="M9.89805 11.12715C9.43955 11.6615 8.75931 12 8 12c-.7593 0-1.43955-.3385-1.89805-.87285C4.28178 10.37973 3 8.58955 3 6.5v-1c0-2.76142 2.23858-5 5-5s5 2.23858 5 5v1c0 2.08955-1.28178 3.87973-3.10195 4.62715zm0 0c.37523-.4373.60195-1.00574.60195-1.62715v-4C10.5 4.11929 9.38071 3 8 3S5.5 4.11929 5.5 5.5v4c0 .6214.22672 1.18986.60195 1.62715C6.68721 11.36748 7.32813 11.5 8 11.5s1.3128-.13252 1.89805-.37285z" fill="#FFF"/><path d="M8 12.2793c0 1.1914-.24994 2.2128-.90587 2.85734-.65592.64454-1.82492 1.05936-3.01308 1.05936H1.77148V8.86133h2.4707c1.14585 0 2.19939.29296 2.82276.8789C7.68832 10.32617 8 11.17252 8 12.2793zm-3.85.41669c-.44148-.19289-.75-.63341-.75-1.14599 0-.69036.55964-1.25 1.25-1.25s1.25.55964 1.25 1.25c0 .51258-.30852.9531-.75 1.14599V14.25c0 .27614-.22386.5-.5.5s-.5-.22386-.5-.5v-1.55401zm9.86149 1.13604c0 .86527-.26903 1.25209-.49364 1.59551-.22461.34343-.62494.56774-1.04812.75817-.42318.19043-.9196.28564-1.48926.28564-.47526 0-.87402-.03336-1.19629-.1001-.32227-.06673-.65755-.23546-1.00586-.40148V13.9297c.36784.1888.75032.3361 1.14746.4419.39714.10579.76172.15868 1.09375.15868.28646 0 .49642-.04964.62988-.14892.13347-.09929.15666-.19929.15666-.35554 0-.09765-.02686-.1831-.08057-.25635-.05371-.07324-.13997-.1473-.25879-.22216-.11882-.07487-.47376-.12366-.99007-.31124-.4655-.21159-.81462-.41667-1.04736-.61523-.23275-.19857-.40528-.42644-.51758-.6836-.1123-.25716-.16846-.56152-.16846-.91308 0-.65756.32316-1.34576.80168-1.7136.47852-.36784 1.13607-.55176 1.97266-.55176.73893 0 1.4925.1709 2.26074.5127l-.53782 1.8362c-.66732-.306-1.28833-.52828-1.77336-.52828-.25065 0-.43294.04394-.54687.13183-.11394.0879-.10663.3148.03823.42548.14485.11068.57324.27543 1.21452.5684.61524.27669 1.0063.43162 1.24556.749.23926.31739.5929.51264.5929 1.37791z" fill="#054680"/></g></svg>