<svg width="347" height="74" viewBox="0 0 347 74" fill="none" xmlns="http://www.w3.org/2000/svg">
<path fill-rule="evenodd" clip-rule="evenodd" d="M46.9826 18.4261C50.8267 18.4261 53.943 21.5688 53.943 25.4456V60.5429C53.943 64.4196 50.8267 67.5623 46.9826 67.5623H6.96039C3.11627 67.5623 0 64.4196 0 60.5429V25.4456C0 21.5688 3.11627 18.4261 6.96039 18.4261H9.57048V17.5487C9.57048 7.85681 17.3612 0 26.9714 0C36.5817 0 44.3724 7.85681 44.3724 17.5487V18.4261H46.9826ZM26.9714 8.77433C31.7766 8.77433 35.6719 12.7027 35.6719 17.5487V18.4261H18.271V17.5487C18.271 12.7027 22.1663 8.77433 26.9714 8.77433ZM26.9715 41.3421C26.9715 45.5236 26.1016 49.1085 23.8189 51.3706C21.5362 53.6328 17.4678 55.0887 13.3328 55.0887H5.29503V29.346H13.8935C17.8813 29.346 21.5478 30.3742 23.7173 32.4307C25.8868 34.4872 26.9715 37.4576 26.9715 41.3421ZM10.9626 38.7825C10.9626 40.5815 12.0363 42.1276 13.5727 42.8046V48.2588C13.5727 49.2279 14.3518 50.0136 15.3128 50.0136C16.2739 50.0136 17.0529 49.2279 17.0529 48.2588V42.8046C18.5894 42.1276 19.6631 40.5815 19.6631 38.7825C19.6631 36.3595 17.7154 34.3953 15.3128 34.3953C12.9102 34.3953 10.9626 36.3595 10.9626 38.7825ZM46.2376 52.2947C47.0057 51.1126 47.8926 49.7476 47.8926 46.7918C47.8926 44.3327 47.0856 43.4155 46.3364 42.5641C46.1604 42.3641 45.9876 42.1677 45.8292 41.9557C45.068 40.9374 43.8653 40.3956 42.0286 39.5682C41.8561 39.4905 41.6781 39.4103 41.4944 39.3269C40.7563 38.9869 40.0992 38.696 39.532 38.445C38.3844 37.937 37.605 37.592 37.2676 37.332C36.7635 36.9436 36.7381 36.1472 37.1346 35.8387C37.5311 35.5302 38.1655 35.376 39.0378 35.376C40.7258 35.376 42.887 36.1562 45.2094 37.2301L47.0812 30.7856C44.4075 29.5859 41.785 28.9861 39.2133 28.9861C36.3018 28.9861 34.0134 29.6316 32.3481 30.9227C30.6828 32.2137 29.5581 34.6291 29.5581 36.9369C29.5581 38.1708 29.7535 39.239 30.1444 40.1416C30.5352 41.0442 31.1356 41.8439 31.9457 42.5408C32.7556 43.2377 33.9706 43.9575 35.5907 44.7001C36.5201 45.0407 37.2992 45.2509 37.8922 45.4108C38.4455 45.5601 38.8367 45.6657 39.0363 45.7925C39.4498 46.0552 39.75 46.3152 39.9369 46.5722C40.1239 46.8293 40.2173 47.1292 40.2173 47.4719C40.2173 48.0203 40.1366 48.3713 39.6721 48.7198C39.2077 49.0682 38.477 49.2425 37.48 49.2425C36.3245 49.2425 35.0557 49.0568 33.6736 48.6855C32.2914 48.3142 30.9603 47.7972 29.6802 47.1346V54.2947C29.7838 54.3445 29.887 54.3943 29.99 54.444C31.0915 54.976 32.1551 55.4896 33.1808 55.7038C34.3023 55.938 35.6901 56.0551 37.3441 56.0551C39.3266 56.0551 41.0543 55.7209 42.527 55.0526C43.9998 54.3842 45.393 53.597 46.1747 52.3916C46.1955 52.3594 46.2165 52.3271 46.2376 52.2947Z" fill="white"/>
<path d="M82.7014 60.3529V17.2915H95.314C98.5547 17.2915 101.511 17.689 104.182 18.484C106.897 19.279 109.219 20.5377 111.145 22.2601C113.072 23.9826 114.561 26.1909 115.612 28.885C116.707 31.5791 117.255 34.8252 117.255 38.6235C117.255 42.4217 116.729 45.6899 115.678 48.4282C114.627 51.1664 113.138 53.4189 111.211 55.1855C109.328 56.9521 107.073 58.255 104.445 59.0942C101.861 59.9333 99.0365 60.3529 95.9709 60.3529H82.7014ZM94.0002 51.2106H94.6571C96.1899 51.2106 97.6351 51.034 98.9927 50.6806C100.35 50.2831 101.511 49.6207 102.474 48.6932C103.482 47.7657 104.27 46.4849 104.839 44.8508C105.408 43.2167 105.693 41.1409 105.693 38.6235C105.693 36.106 105.408 34.0523 104.839 32.4624C104.27 30.8724 103.482 29.6358 102.474 28.7525C101.511 27.8692 100.35 27.2729 98.9927 26.9638C97.6351 26.6104 96.1899 26.4338 94.6571 26.4338H94.0002V51.2106Z" fill="white"/>
<path d="M138.381 61.1478C135.666 61.1478 132.863 60.662 129.972 59.6904C127.126 58.6746 124.542 57.1067 122.221 54.9868L128.659 47.1695C130.191 48.4061 131.834 49.4219 133.585 50.2169C135.381 50.9677 137.067 51.3431 138.644 51.3431C140.352 51.3431 141.578 51.0781 142.322 50.5481C143.111 50.0181 143.505 49.2673 143.505 48.2957C143.505 47.7657 143.373 47.3241 143.111 46.9707C142.848 46.6174 142.454 46.2862 141.928 45.977C141.446 45.6678 140.855 45.3808 140.155 45.1158C139.454 44.8066 138.644 44.4754 137.724 44.1221L132.403 41.8696C131.264 41.428 130.17 40.8538 129.118 40.1472C128.067 39.3964 127.148 38.5351 126.359 37.5635C125.571 36.5477 124.936 35.3994 124.454 34.1186C124.017 32.8378 123.798 31.4245 123.798 29.8787C123.798 28.0237 124.192 26.3013 124.98 24.7113C125.768 23.0772 126.863 21.6639 128.265 20.4714C129.666 19.2348 131.33 18.2632 133.257 17.5565C135.228 16.8499 137.374 16.4966 139.695 16.4966C142.147 16.4966 144.621 16.9603 147.118 17.8878C149.658 18.8152 151.913 20.2727 153.884 22.2601L148.234 29.415C146.789 28.3992 145.388 27.6263 144.03 27.0963C142.716 26.5663 141.271 26.3013 139.695 26.3013C138.293 26.3013 137.198 26.5442 136.41 27.03C135.622 27.5158 135.228 28.2446 135.228 29.2162C135.228 30.232 135.775 31.027 136.87 31.6011C138.009 32.1311 139.563 32.7715 141.534 33.5223L146.724 35.576C149.395 36.636 151.453 38.1155 152.899 40.0147C154.344 41.9138 155.066 44.365 155.066 47.3682C155.066 49.179 154.694 50.9235 153.95 52.6018C153.205 54.2801 152.11 55.7597 150.665 57.0405C149.264 58.2771 147.534 59.2708 145.475 60.0216C143.417 60.7724 141.052 61.1478 138.381 61.1478Z" fill="white"/>
<path d="M175.079 60.3529V17.2915H186.378V50.8131H202.538V60.3529H175.079Z" fill="white"/>
<path d="M222.614 61.1478C220.512 61.1478 218.476 60.7724 216.505 60.0216C214.534 59.2266 212.783 58.1004 211.25 56.643C209.761 55.1413 208.556 53.3085 207.637 51.1444C206.761 48.9803 206.323 46.5291 206.323 43.7908C206.323 41.0526 206.761 38.6014 207.637 36.4373C208.556 34.2732 209.761 32.4624 211.25 31.0049C212.783 29.5033 214.534 28.3771 216.505 27.6263C218.476 26.8313 220.512 26.4338 222.614 26.4338C224.716 26.4338 226.731 26.8313 228.658 27.6263C230.629 28.3771 232.358 29.5033 233.847 31.0049C235.38 32.4624 236.606 34.2732 237.526 36.4373C238.446 38.6014 238.906 41.0526 238.906 43.7908C238.906 46.5291 238.446 48.9803 237.526 51.1444C236.606 53.3085 235.38 55.1413 233.847 56.643C232.358 58.1004 230.629 59.2266 228.658 60.0216C226.731 60.7724 224.716 61.1478 222.614 61.1478ZM222.614 52.0056C224.322 52.0056 225.527 51.2769 226.227 49.8194C226.972 48.3178 227.344 46.3082 227.344 43.7908C227.344 41.2734 226.972 39.2859 226.227 37.8285C225.527 36.3269 224.322 35.576 222.614 35.576C220.906 35.576 219.68 36.3269 218.936 37.8285C218.235 39.2859 217.885 41.2734 217.885 43.7908C217.885 46.3082 218.235 48.3178 218.936 49.8194C219.68 51.2769 220.906 52.0056 222.614 52.0056Z" fill="white"/>
<path d="M256.745 74C254.862 74 253.088 73.8454 251.424 73.5363C249.76 73.2713 248.293 72.8075 247.023 72.145C245.797 71.4826 244.811 70.6213 244.067 69.5614C243.322 68.5456 242.95 67.2868 242.95 65.7852C242.95 63.1795 244.483 61.0595 247.548 59.4254V59.1604C246.673 58.5421 245.95 57.7913 245.381 56.908C244.811 56.0247 244.527 54.8764 244.527 53.4631C244.527 52.3148 244.855 51.1885 245.512 50.0844C246.169 48.9803 247.067 48.0307 248.205 47.2357V46.9707C247.023 46.1757 245.972 45.0495 245.052 43.5921C244.176 42.1346 243.738 40.4342 243.738 38.491C243.738 36.4593 244.133 34.6927 244.921 33.1911C245.709 31.6453 246.76 30.3866 248.074 29.415C249.388 28.3992 250.877 27.6483 252.541 27.1625C254.249 26.6767 256.001 26.4338 257.796 26.4338C259.723 26.4338 261.475 26.6988 263.051 27.2288H275.27V35.4435H270.54C270.672 35.841 270.781 36.3489 270.869 36.9673C271 37.5856 271.066 38.226 271.066 38.8884C271.066 40.8317 270.715 42.51 270.015 43.9233C269.314 45.2924 268.372 46.4187 267.19 47.302C266.008 48.1853 264.606 48.8478 262.986 49.2894C261.365 49.6869 259.636 49.8857 257.796 49.8857C256.701 49.8857 255.475 49.7311 254.118 49.4219C253.767 49.7311 253.548 50.0181 253.461 50.2831C253.373 50.504 253.329 50.8573 253.329 51.3431C253.329 52.0939 253.68 52.6239 254.38 52.9331C255.081 53.1981 256.263 53.3306 257.928 53.3306H262.854C266.971 53.3306 270.146 54.0151 272.38 55.3843C274.657 56.7092 275.795 58.8954 275.795 61.9428C275.795 63.7536 275.336 65.3877 274.416 66.8452C273.54 68.3468 272.27 69.6276 270.606 70.6876C268.986 71.7476 266.993 72.5646 264.628 73.1388C262.307 73.7129 259.679 74 256.745 74ZM257.796 43.1283C258.847 43.1283 259.701 42.7529 260.358 42.0021C261.015 41.2513 261.343 40.0809 261.343 38.491C261.343 36.9452 261.015 35.8189 260.358 35.1123C259.701 34.3615 258.847 33.9861 257.796 33.9861C256.745 33.9861 255.891 34.3615 255.234 35.1123C254.577 35.8189 254.249 36.9452 254.249 38.491C254.249 40.0809 254.577 41.2513 255.234 42.0021C255.891 42.7529 256.745 43.1283 257.796 43.1283ZM258.585 66.9777C260.424 66.9777 261.957 66.6906 263.183 66.1165C264.409 65.5865 265.022 64.8577 265.022 63.9303C265.022 63.047 264.628 62.4949 263.84 62.2741C263.095 62.0532 262.022 61.9428 260.621 61.9428H258.059C256.745 61.9428 255.738 61.8987 255.037 61.8103C254.38 61.7662 253.811 61.6778 253.329 61.5453C252.935 61.9428 252.629 62.3182 252.41 62.6716C252.234 63.0249 252.147 63.4445 252.147 63.9303C252.147 64.9902 252.738 65.7631 253.92 66.249C255.103 66.7348 256.658 66.9777 258.585 66.9777Z" fill="white"/>
<path d="M293.95 61.1478C291.848 61.1478 289.812 60.7724 287.841 60.0216C285.87 59.2266 284.118 58.1004 282.586 56.643C281.097 55.1413 279.892 53.3085 278.973 51.1444C278.097 48.9803 277.659 46.5291 277.659 43.7908C277.659 41.0526 278.097 38.6014 278.973 36.4373C279.892 34.2732 281.097 32.4624 282.586 31.0049C284.118 29.5033 285.87 28.3771 287.841 27.6263C289.812 26.8313 291.848 26.4338 293.95 26.4338C296.052 26.4338 298.067 26.8313 299.994 27.6263C301.964 28.3771 303.694 29.5033 305.183 31.0049C306.716 32.4624 307.942 34.2732 308.862 36.4373C309.782 38.6014 310.241 41.0526 310.241 43.7908C310.241 46.5291 309.782 48.9803 308.862 51.1444C307.942 53.3085 306.716 55.1413 305.183 56.643C303.694 58.1004 301.964 59.2266 299.994 60.0216C298.067 60.7724 296.052 61.1478 293.95 61.1478ZM293.95 52.0056C295.658 52.0056 296.862 51.2769 297.563 49.8194C298.308 48.3178 298.68 46.3082 298.68 43.7908C298.68 41.2734 298.308 39.2859 297.563 37.8285C296.862 36.3269 295.658 35.576 293.95 35.576C292.242 35.576 291.016 36.3269 290.272 37.8285C289.571 39.2859 289.22 41.2734 289.22 43.7908C289.22 46.3082 289.571 48.3178 290.272 49.8194C291.016 51.2769 292.242 52.0056 293.95 52.0056Z" fill="white"/>
<path d="M316.125 60.3529V27.2288H325.322L326.11 31.2037H326.373C327.687 29.9229 329.176 28.8187 330.84 27.8912C332.548 26.9196 334.519 26.4338 336.752 26.4338C340.343 26.4338 342.949 27.6704 344.569 30.1437C346.19 32.5728 347 35.841 347 39.9484V60.3529H335.701V41.4059C335.701 39.2859 335.438 37.8726 334.913 37.166C334.387 36.4593 333.555 36.106 332.417 36.106C331.366 36.106 330.49 36.3269 329.789 36.7685C329.088 37.2102 328.3 37.8285 327.424 38.6235V60.3529H316.125Z" fill="white"/>
</svg>
