<svg width="114" height="15" viewBox="0 0 114 15" fill="none" xmlns="http://www.w3.org/2000/svg">
<g clip-path="url(#clip0_405:85)">
<path d="M10.3878 0H1.68799C0.755693 0 -8.45441e-05 0.73873 -8.45441e-05 1.65V9.73571C-0.00143316 9.88908 0.0335848 10.0407 0.102223 10.1786C0.467608 10.8929 1.92915 13.225 6.03607 15C10.1649 13.2143 11.6082 10.9 11.9736 10.1786C12.0422 10.0407 12.0772 9.88908 12.0759 9.73571V1.65C12.0759 1.21239 11.898 0.792709 11.5814 0.483274C11.2649 0.173839 10.8355 0 10.3878 0ZM7.67299 9.64286C7.13241 9.73441 6.5847 9.77982 6.03607 9.77857C5.496 9.77788 4.95696 9.73248 4.42472 9.64286C4.61229 8.59286 4.79985 7.54286 4.98741 6.49286C4.56931 6.18078 4.32353 5.69635 4.32241 5.18214C4.31695 4.3996 4.86656 3.71764 5.6462 3.53962C6.42583 3.36159 7.22767 3.73496 7.57747 4.43888C7.92727 5.1428 7.73179 5.98966 7.10665 6.47857C7.30761 7.52143 7.48299 8.57143 7.67299 9.64286Z" fill="white"/>
<path fill-rule="evenodd" clip-rule="evenodd" d="M19.8221 2.2179H17.3887V12.75H24.4406V10.675H19.8221V2.2179Z" fill="white"/>
<path d="M31.9602 2.14288C28.6717 2.14288 26.1725 4.41431 26.1725 7.50003C26.1725 10.5857 28.6644 12.8572 31.9602 12.8572C35.256 12.8572 37.7479 10.525 37.7479 7.50003C37.7479 4.47503 35.256 2.14288 31.9602 2.14288ZM31.9894 10.7786C30.1475 10.7649 28.6623 9.30043 28.6644 7.50003C28.6566 6.63411 29.0038 5.80119 29.6285 5.1872C30.2533 4.57321 31.1035 4.22927 31.9894 4.23217C32.8673 4.23777 33.7065 4.58628 34.3201 5.20008C34.9336 5.81388 35.2706 6.642 35.256 7.50003C35.2736 8.35989 34.9379 9.19079 34.324 9.80692C33.7102 10.4231 32.8693 10.773 31.9894 10.7786Z" fill="white"/>
<path fill-rule="evenodd" clip-rule="evenodd" d="M45.9434 4.2036C47.0422 4.2303 48.0933 4.64811 48.8993 5.3786L50.2695 3.6786C49.0549 2.68913 47.5245 2.14589 45.9434 2.14288C42.5855 2.14288 40.0607 4.44646 40.0607 7.50003C40.0607 10.5536 42.5416 12.8572 45.8045 12.8572C47.3723 12.8316 48.8975 12.3546 50.1891 11.4857V6.95717H46.1845V8.81788H48.0662V10.2072C47.4167 10.5509 46.6959 10.7462 45.958 10.7786C44.7299 10.8182 43.5774 10.2004 42.9514 9.16693C42.3254 8.13349 42.3254 6.84871 42.9514 5.81527C43.5774 4.78182 44.7299 4.16403 45.958 4.2036H45.9434Z" fill="white"/>
<path d="M56.1194 2.2179H53.6859V12.75H56.1194V2.2179Z" fill="white"/>
<path fill-rule="evenodd" clip-rule="evenodd" d="M67.3112 8.98932L62.0752 2.2179H59.8573V12.75H62.1811V5.99647L67.4025 12.75H69.6167V2.2179H67.3112V8.98932Z" fill="white"/>
<path fill-rule="evenodd" clip-rule="evenodd" d="M74.206 10.0929C73.8333 10.0834 73.4735 10.2265 73.2133 10.4875C72.9532 10.7486 72.8163 11.104 72.8358 11.4679C72.8097 11.9622 73.0646 12.4303 73.4988 12.6852C73.9329 12.94 74.4755 12.94 74.9096 12.6852C75.3437 12.4303 75.5987 11.9622 75.5725 11.4679C75.5954 11.1037 75.4601 10.747 75.2 10.4853C74.94 10.2236 74.5791 10.0812 74.206 10.0929Z" fill="white"/>
<path fill-rule="evenodd" clip-rule="evenodd" d="M83.3406 4.2036C84.4394 4.2303 85.4905 4.64811 86.2966 5.3786L87.6667 3.6786C86.4521 2.68913 84.9218 2.14589 83.3406 2.14288C79.9827 2.14288 77.4615 4.44646 77.4615 7.50003C77.4615 10.5536 79.9425 12.8572 83.2054 12.8572C84.7731 12.8316 86.2983 12.3546 87.59 11.4857V6.95717H83.5817V8.81788H85.4635V10.2072C84.8139 10.5509 84.0931 10.7462 83.3552 10.7786C82.1272 10.8182 80.9747 10.2004 80.3487 9.16693C79.7226 8.13349 79.7226 6.84871 80.3487 5.81527C80.9747 4.78182 82.1272 4.16403 83.3552 4.2036H83.3406Z" fill="white"/>
<path d="M96.0595 2.14288C92.7711 2.14288 90.2719 4.41431 90.2719 7.50003C90.2719 10.5857 92.7674 12.8572 96.0595 12.8572C99.3517 12.8572 101.851 10.525 101.851 7.50003C101.851 4.47503 99.3553 2.14288 96.0595 2.14288ZM96.0961 10.7786C94.2485 10.7648 92.761 9.29171 92.7711 7.48574C92.7633 6.61983 93.1105 5.78691 93.7352 5.17291C94.3599 4.55892 95.2102 4.21499 96.0961 4.21788C96.9753 4.22533 97.8149 4.57663 98.4273 5.19334C99.0397 5.81005 99.3739 6.64078 99.3553 7.50003C99.3729 8.35866 99.0383 9.18847 98.426 9.8044C97.8137 10.4203 96.9747 10.7711 96.0961 10.7786Z" fill="white"/>
<path fill-rule="evenodd" clip-rule="evenodd" d="M111.49 2.2179L108.534 10.1643L105.592 2.2179H102.976L107.211 12.75H109.721L114 2.2179H111.49Z" fill="white"/>
</g>
<defs>
<clipPath id="clip0_405:85">
<rect width="114" height="15" fill="white"/>
</clipPath>
</defs>
</svg>
