<svg width="683" height="228" viewBox="0 0 683 228" fill="none" xmlns="http://www.w3.org/2000/svg">
<path d="M168.343 136.125C176.176 117.239 148.258 134.52 111.846 187.94C109.207 191.866 107.514 196.853 106.28 193.672C99.164 175.76 129.665 146.757 141.888 125.464C153.049 106.033 98.3606 158.135 78.1034 192.812C76.8409 194.703 76.0949 195.506 75.2341 194.302C73.0534 192.611 74.9471 175.817 90.5561 155.699C116.753 121.939 143.035 80.1544 94.86 123.4C90.2118 127.556 87.3999 126.897 87.859 122.999C87.8637 121.757 88.1817 120.536 88.7835 119.45C89.3852 118.363 90.2514 117.445 91.3021 116.78C95.3191 113.914 86.7973 123.257 93.368 117.984C99.9387 112.711 108.087 105.231 113.797 102.537C123.036 97.9228 135.088 104.944 109.924 143.949C107.686 147.474 107.686 147.474 110.899 143.949C122.549 131.797 145.761 108.039 148.946 118.7C150.61 124.232 139.076 142.716 133.079 152.862C132.505 153.807 132.534 155.269 133.969 153.521C179.648 100.216 177.869 132.199 168.4 151.371C160.796 166.819 147.397 192.268 147.339 194.704C147.282 197.14 146.335 200.894 144.298 198.744C129.578 183.383 163.809 147.044 168.343 136.125Z" fill="white"/>
<path d="M150.352 215.338C155.632 207.371 167.568 198.744 181.914 188.341C182.316 188.341 183.206 187.281 185.472 183.641C192.559 172.436 201.512 155.556 197.322 159.339C182.718 172.034 161.313 206.368 161.083 184.587C161.083 171.662 187.624 143.118 186.477 142.172C186.161 141.771 185.731 141.885 186.132 140.825C187.05 138.647 193.592 142.573 189.547 149.423C185.501 156.272 170.437 175.416 167.109 181.75C156.55 201.983 199.589 150.168 202.659 151.228C206.648 152.317 203.405 161.631 191.182 182.151C190.981 182.696 191.01 183.097 191.555 182.81C196.318 179.715 202.057 175.789 205.385 173.381C207.566 171.891 209.115 172.694 205.959 175.13C202.803 177.566 195.343 182.81 189.834 187.138C188.228 188.171 186.93 189.616 186.075 191.322C169.175 218.72 155.058 228.578 150.467 227.89C145.876 227.203 146.134 221.815 150.352 215.338ZM155.431 221.414C158.845 219.264 168.4 209.95 178.385 196.452C180.135 194.016 179.82 193.586 177.869 194.961C169.261 201.037 158.444 209.004 152.762 216.828C149.577 221.27 150.323 224.509 155.431 221.414Z" fill="white"/>
<path d="M496.159 169.226C501.418 165.986 506.39 162.304 511.022 158.221C516.445 152.489 514.925 147.13 507.723 151.343C496.905 157.476 484.022 170.086 481.153 185.217C478.284 200.349 514.781 177.279 524.852 167.822C526.488 166.331 528.008 167.678 526.488 169.341C513.289 184.931 480.12 208.173 474.094 186.135C469.733 170.086 501.123 140.854 508.928 140.854C514.925 140.854 520.032 150.884 518.396 156.444C516.273 163.494 505.169 169.942 496.016 172.178C494.065 172.55 494.208 170.43 496.159 169.226Z" fill="white"/>
<path d="M243.002 121.624C243.664 125.629 243.961 129.687 243.891 133.746V143.634C243.891 145.181 243.69 147.216 243.69 147.789C247.597 144.406 252.579 142.517 257.75 142.459C264.062 142.459 269.227 145.324 270.69 149.537C271.715 152.5 272.144 155.636 271.953 158.765V193.471H259.213V160.112C259.213 155.183 257.864 153.32 254.163 153.32C250.325 153.649 246.708 155.253 243.891 157.877V193.471H230.664V136.154C230.772 132.308 230.444 128.462 229.688 124.69L243.002 121.624Z" fill="white"/>
<path d="M318.837 187.969C313.61 192.434 306.95 194.875 300.072 194.847C285.725 194.847 276.572 184.759 276.572 169.054C276.572 160.141 278.437 154.209 282.799 149.365C284.732 147.144 287.142 145.387 289.85 144.225C292.557 143.064 295.493 142.529 298.436 142.659C303.719 142.482 308.863 144.363 312.783 147.904C317.345 152.575 319.382 159.367 319.382 169.627V172.636H290.689V173.037C290.689 180.689 294.477 185.046 301.191 185.046C305.854 184.965 310.334 183.216 313.816 180.116L318.837 187.969ZM305.925 163.208V162.634C306.179 160.048 305.628 157.446 304.347 155.183C303.737 154.235 302.882 153.468 301.872 152.963C300.862 152.459 299.735 152.236 298.609 152.317C293.645 152.317 290.833 156.186 290.833 163.093V163.265L305.925 163.208Z" fill="white"/>
<path d="M334.073 145.668C338.359 143.783 342.99 142.807 347.673 142.802C356.023 142.802 361.761 145.926 363.713 151.4C364.583 154.286 364.876 157.314 364.573 160.313L364.286 176.992V177.852C364.286 183.211 365.147 185.246 368.935 188.055L362.048 195.993C359.105 194.843 356.637 192.732 355.047 190.003C354.155 190.94 353.196 191.812 352.178 192.611C349.217 194.577 345.718 195.578 342.164 195.477C331.089 195.477 324.948 189.746 324.948 179.944C324.948 168.309 333.011 162.749 348.85 162.749C349.825 162.749 350.686 162.749 351.719 162.749V160.8C351.719 155.269 350.657 153.435 345.98 153.435C340.749 153.939 335.771 155.928 331.634 159.167L326.039 149.623C328.586 148.055 331.276 146.731 334.073 145.668ZM350.973 171.748C341.963 171.748 338.836 173.41 338.836 179.314C338.753 180.124 338.838 180.942 339.087 181.718C339.335 182.493 339.742 183.209 340.281 183.82C340.82 184.431 341.479 184.924 342.218 185.268C342.957 185.612 343.759 185.8 344.574 185.819C345.88 185.755 347.159 185.421 348.329 184.839C349.499 184.257 350.536 183.44 351.375 182.438L351.576 171.748H350.973Z" fill="white"/>
<path d="M386.811 134.606V173.295C386.811 181.893 386.811 183.011 387.671 184.358C387.941 184.802 388.326 185.164 388.786 185.407C389.246 185.649 389.763 185.762 390.282 185.733C390.778 185.753 391.274 185.685 391.746 185.533L393.984 193.299C391.494 194.211 388.86 194.667 386.208 194.646C383.825 194.85 381.438 194.304 379.38 193.087C377.322 191.869 375.697 190.04 374.731 187.854C373.755 185.332 373.554 183.785 373.554 176.706V139.65C373.618 134.664 373.388 129.678 372.866 124.719L386.093 121.71C386.712 125.979 386.952 130.295 386.811 134.606Z" fill="white"/>
<path d="M419.635 152.747H411.286V177.68C411.286 183.985 412.462 185.619 417.024 185.619C418.612 185.516 420.177 185.188 421.672 184.644L423.337 192.411C419.991 193.85 416.392 194.61 412.749 194.646C406.15 194.646 400.899 191.78 399.349 187.367C398.492 184.913 398.188 182.3 398.46 179.715V152.747H393.525V143.892H398.46C398.353 139.968 398.516 136.042 398.948 132.141L412.146 128.846C411.632 133.845 411.374 138.866 411.372 143.892H423.021L419.635 152.747Z" fill="white"/>
<path d="M441.04 121.624C441.691 125.631 441.979 129.688 441.901 133.746V143.634C441.901 145.181 441.729 147.216 441.729 147.789C445.633 144.401 450.617 142.512 455.788 142.459C462.101 142.459 467.266 145.324 468.729 149.537C469.742 152.503 470.161 155.638 469.963 158.765V193.471H457.252V160.112C457.252 155.183 455.903 153.32 452.202 153.32C448.354 153.642 444.726 155.247 441.901 157.877V193.471H428.702V136.154C428.81 132.308 428.483 128.462 427.727 124.69L441.04 121.624Z" fill="white"/>
<path d="M534.723 142.946L541.896 165.357C542.958 168.653 544.421 173.955 545.109 177.279C545.783 173.004 546.791 168.788 548.122 164.669L554.808 143.892H568.408L550.246 193.471H539.457L521.409 144.751L534.723 142.946Z" fill="white"/>
<path d="M608.636 187.969C603.416 192.427 596.768 194.868 589.899 194.847C575.553 194.847 566.4 184.759 566.4 169.054C566.4 160.141 568.236 154.209 572.597 149.365C574.531 147.145 576.942 145.389 579.649 144.228C582.357 143.067 585.291 142.531 588.235 142.659C593.517 142.482 598.661 144.363 602.581 147.904C607.144 152.575 609.181 159.367 609.181 169.627V172.636H580.488V173.038C580.488 180.689 584.275 185.046 590.99 185.046C595.654 184.97 600.135 183.22 603.614 180.116L608.636 187.969ZM595.724 163.208V162.634C595.97 160.052 595.43 157.455 594.174 155.183C593.562 154.237 592.706 153.472 591.697 152.968C590.688 152.464 589.561 152.239 588.436 152.317C583.472 152.317 580.66 156.186 580.66 163.093V163.265L595.724 163.208Z" fill="white"/>
<path d="M638.276 152.747H629.983V177.68C629.983 183.985 631.16 185.619 635.722 185.619C637.31 185.516 638.875 185.188 640.37 184.644L642.034 192.411C638.688 193.85 635.089 194.61 631.447 194.646C624.847 194.646 619.596 191.78 618.047 187.367C617.204 184.91 616.9 182.3 617.157 179.715V152.747H612.222V143.892H617.157C617.051 139.968 617.213 136.042 617.645 132.141L630.844 128.846C630.385 133.402 630.069 138.848 630.069 143.892H641.747L638.276 152.747Z" fill="white"/>
<path d="M643.153 61.8415L654.401 60.4372L648.662 70.3245L652.995 81.1288L641.862 77.9764L633.426 85.9435L632.164 74.48L620.687 68.2611L632.852 64.3921L635.521 52.9286L643.153 61.8415Z" fill="white"/>
<path d="M593.227 91.4747L583.845 86.8606L575.782 92.8503L577.045 82.7337L568.867 76.2855L579.168 74.9099L582.267 64.9653L587.317 74.0501L597.445 74.5087L590.129 81.5301L593.227 91.4747Z" fill="white"/>
<path d="M539.428 91.8758L532.714 87.2618L525.656 91.0447L527.808 83.3069L522.069 77.3745H530.361L533.776 69.8946L536.817 77.5751L544.564 79.0081L538.166 83.7081L539.428 91.8758Z" fill="white"/>
<path d="M494.725 86.9752L489.703 82.963L483.965 85.4563L486.146 79.5526L481.985 74.4799L488.498 75.0531L491.683 69.3214L493.577 75.569L499.603 77.1739L494.266 80.5556L494.725 86.9752Z" fill="white"/>
<path d="M458.6 92.3058C362.766 69.8086 351.863 71.7574 331.691 80.699C327.273 82.6764 325.953 83.5648 328.478 79.9252C340.873 62.7299 355.507 51.2664 382.994 56.4823C385.864 17.5064 352.264 16.7326 352.264 16.7326C352.264 9.73986 341.418 1.17089 321.477 0.826985C288.537 0.311127 254.106 15.3283 201.54 61.9275C157.353 35.3321 71.0735 67.9172 0.345459 198.63H4.90764C62.6952 96.3753 149.95 43.3566 191.412 81.702C209.603 60.6951 242.026 27.2504 287.103 10.0551C323.6 -3.75842 341.189 14.6119 344.001 17.793C338.876 16.5529 333.872 14.8552 329.052 12.7204C321.333 9.19534 310.344 16.2167 310.344 16.2167L329.941 20.6589L345.636 18.1942C350.888 17.809 356.165 18.4217 361.188 19.9997C371.259 23.8113 372.493 38.7712 372.005 44.4743C344.001 43.156 311.319 52.1835 286.844 115.233H294.305C329.769 78.8075 333.356 89.2679 444.369 111.765C549.786 133.116 632.967 115.548 666.05 96.6906C671.754 93.7615 677.106 90.1945 682.003 86.0582V82.0459C650.326 101.075 561.665 116.58 458.6 92.3058Z" fill="white"/>
<path d="M457.826 80.0111L454.009 76.5147L449.218 78.2343L451.284 73.5916L448.213 69.3787L453.436 70.1812L456.305 65.7677L457.51 70.8976L462.273 72.4739L457.826 74.8239V80.0111Z" fill="white"/>
</svg>
