<svg xmlns="http://www.w3.org/2000/svg" viewBox="0 0 30 12" width="30px" height="12px"><path d="M1 6.26689c2.2657-1.0214 4.56922-.97467 6.91053.14018C12.25009 2.4013 16.57239-.17572 20.1962.00935c3.62382.18507 3.48004 1.64645 3.48004 1.64645 2.23252.32888 3.3069 1.7536 3.22316 4.27415-2.31212-.45576-4.09921-.01034-5.72289 2.56218 1.94442-.91127 4.51182-.93585 8.49199.06254l-.7425 2.31697c-3.19453-.87624-5.64745-1.28136-7.35877-1.21535-1.37103-.02798-3.2727 1.41212-3.76885 2.29592l-.84154-.13947c.99526-2.43853 1.9938-4.10329 2.99564-4.9943 1.23772-1.42624 3.45806-2.50827 5.70058-2.14564.04884-1.85088-.72555-2.8052-2.32316-2.86297-1.36424.21243-2.15339.33765-2.15339.33765l-1.95193-.5053c.51-.36958 1.03846-.55437 1.5854-.55437 1.21837.56172 1.7877.70425 1.70797.42758C21.51385.65018 20.33702.2971 18.98743.45619c-3.27528.38604-7.81594 3.07617-12.07012 8.03594C5.25974 7.1525 3.36378 6.86321 1.2294 7.6243L1 6.2669z" fill="#FFF" fill-rule="evenodd"/></svg>