<?xml version="1.0" encoding="utf-8"?>
<!-- Generator: Adobe Illustrator 20.1.0, SVG Export Plug-In . SVG Version: 6.00 Build 0)  -->
<svg version="1.1" id="Layer_1" xmlns="http://www.w3.org/2000/svg" xmlns:xlink="http://www.w3.org/1999/xlink" x="0px" y="0px"
	 viewBox="0 0 40 48" style="enable-background:new 0 0 40 48;" xml:space="preserve">
<style type="text/css">
	.st0{fill:#2B2222;}
	.st1{fill:#D6B9B9;}
	.st2{fill:#224408;}
	.st3{fill:#FFFFFF;}
</style>
<title>Artboard</title>
<desc>Created with Sketch.</desc>
<rect x="-32.7" y="38.6" class="st0" width="25.5" height="2.3"/>
<g>
	<g>
		<path class="st0" d="M-19.9,4.6c-5.9,0-10.6,4.4-10.6,9.8V37h21.2V14.4C-9.3,9-14,4.6-19.9,4.6z M-24.7,14.1h9
			c0.4,0,0.8,0.3,0.8,0.8c0,0.4-0.3,0.8-0.8,0.8h-9c-0.4,0-0.8-0.3-0.8-0.8C-25.5,14.4-25.2,14.1-24.7,14.1z M-14.5,18.2h-11
			c-0.4,0-0.8-0.3-0.8-0.8c0-0.4,0.3-0.8,0.8-0.8h11c0.4,0,0.8,0.3,0.8,0.8C-13.7,17.8-14,18.2-14.5,18.2z"/>
	</g>
</g>
<circle class="st0" cx="-20" cy="-24.7" r="17.2"/>
<g>
	<path class="st1" d="M-11.1-32.5c-0.4-0.4-1-0.4-1.4,0.1l-9.2,9.9c-0.4,0.4-1,0.4-1.4,0.1l-4.8-4.5c-0.4-0.4-1-0.4-1.4,0.1
		l-1.8,1.9c-0.4,0.4-0.4,1,0.1,1.4l4.8,4.5c0.4,0.4,0.7,0.7,0.7,0.7c0,0,0.3,0.3,0.7,0.7l1.9,1.8c0.4,0.4,1,0.4,1.4-0.1l12.4-13.3
		c0.4-0.4,0.4-1-0.1-1.4L-11.1-32.5z"/>
</g>
<path class="st0" d="M162.2,1.6v42.2h29.3V1.6H162.2z M167.4,34.9L167.4,34.9c-0.5,0-1-0.4-1-0.9s0.4-0.9,0.9-0.9h0
	c0.5,0,0.9,0.4,0.9,0.9S167.9,34.9,167.4,34.9z M167.4,30.7L167.4,30.7c-0.5,0-1-0.4-1-0.9s0.4-0.9,0.9-0.9h0c0.5,0,0.9,0.4,0.9,0.9
	S167.9,30.7,167.4,30.7z M167.4,26.2L167.4,26.2c-0.5,0-1-0.4-1-0.9s0.4-0.9,0.9-0.9h0c0.5,0,0.9,0.4,0.9,0.9S168,26.2,167.4,26.2z
	 M186.9,34.9h-15.7c-0.5,0-0.9-0.4-0.9-0.9s0.4-0.9,0.9-0.9h15.7c0.5,0,0.9,0.4,0.9,0.9S187.4,34.9,186.9,34.9z M186.9,30.7h-15.7
	c-0.5,0-0.9-0.4-0.9-0.9s0.4-0.9,0.9-0.9h15.7c0.5,0,0.9,0.4,0.9,0.9S187.4,30.7,186.9,30.7z M187.1,26.2h-15.7
	c-0.5,0-0.9-0.4-0.9-0.9s0.4-0.9,0.9-0.9h15.7c0.5,0,0.9,0.4,0.9,0.9S187.6,26.2,187.1,26.2z"/>
<path class="st2" d="M66.8-15.6c-9.5,0-17.2,8.5-17.2,19.1l17.2,45.8c0,0,16.5-39.6,17.2-45.8C84.5-6.1,76.3-15.6,66.8-15.6z"/>
<path class="st3" d="M59.6-6.6v21.6h15V-6.6H59.6z M64.8-1.8l2,1.9l3.4-3.7l1.1,1l-4.5,4.8l-1.1-1l0,0l-2-1.9L64.8-1.8z M62.3,10.4
	L62.3,10.4c-0.3,0-0.5-0.2-0.5-0.5s0.2-0.5,0.5-0.5h0c0.3,0,0.5,0.2,0.5,0.5S62.5,10.4,62.3,10.4z M62.3,8.2L62.3,8.2
	c-0.3,0-0.5-0.2-0.5-0.5s0.2-0.5,0.5-0.5h0c0.3,0,0.5,0.2,0.5,0.5S62.5,8.2,62.3,8.2z M62.3,5.9L62.3,5.9c-0.3,0-0.5-0.2-0.5-0.5
	S62,5,62.3,5h0c0.3,0,0.5,0.2,0.5,0.5S62.5,5.9,62.3,5.9z M72.2,10.4h-8c-0.3,0-0.5-0.2-0.5-0.5s0.2-0.5,0.5-0.5h8
	c0.3,0,0.5,0.2,0.5,0.5S72.5,10.4,72.2,10.4z M72.2,8.2h-8c-0.3,0-0.5-0.2-0.5-0.5s0.2-0.5,0.5-0.5h8c0.3,0,0.5,0.2,0.5,0.5
	S72.5,8.2,72.2,8.2z M72.3,5.9h-8c-0.3,0-0.5-0.2-0.5-0.5S64,5,64.3,5h8c0.3,0,0.5,0.2,0.5,0.5S72.6,5.9,72.3,5.9z"/>
<circle class="st0" cx="45" cy="73.2" r="17.2"/>
<polyline class="st0" points="27.8,76.2 45,122.8 62.2,76.2 "/>
<g>
	<polygon class="st3" points="42.6,72.1 40.9,70.6 40,71.5 41.7,73 41.7,73 42.6,73.9 46.3,69.9 45.4,69.1 	"/>
	<path class="st3" d="M35.7,64v20.8h15.1V64H35.7z M43.2,76c-2.6,0-4.6-2.1-4.6-4.6c0-2.6,2.1-4.6,4.6-4.6c2.6,0,4.6,2.1,4.6,4.6
		C47.8,73.9,45.7,76,43.2,76z"/>
</g>
<path class="st2" d="M104.2-19.2c-9.5,0-17.2,8.5-17.2,19.1l17.2,45.8c0,0,16.5-39.6,17.2-45.8C121.9-9.7,113.7-19.2,104.2-19.2z"/>
<path class="st3" d="M140.9-31.8v21.6h15v-21.6H140.9z M146.2-27l2,1.9l3.4-3.7l1.1,1l-4.5,4.8l-1.1-1l0,0l-2-1.9L146.2-27z
	 M143.6-14.8L143.6-14.8c-0.3,0-0.5-0.2-0.5-0.5c0-0.3,0.2-0.5,0.5-0.5h0c0.3,0,0.5,0.2,0.5,0.5C144.1-15,143.9-14.8,143.6-14.8z
	 M143.6-16.9L143.6-16.9c-0.3,0-0.5-0.2-0.5-0.5s0.2-0.5,0.5-0.5h0c0.3,0,0.5,0.2,0.5,0.5S143.9-16.9,143.6-16.9z M143.6-19.2
	L143.6-19.2c-0.3,0-0.5-0.2-0.5-0.5s0.2-0.5,0.5-0.5h0c0.3,0,0.5,0.2,0.5,0.5S143.9-19.2,143.6-19.2z M153.6-14.8h-8
	c-0.3,0-0.5-0.2-0.5-0.5c0-0.3,0.2-0.5,0.5-0.5h8c0.3,0,0.5,0.2,0.5,0.5C154.1-15,153.8-14.8,153.6-14.8z M153.6-16.9h-8
	c-0.3,0-0.5-0.2-0.5-0.5s0.2-0.5,0.5-0.5h8c0.3,0,0.5,0.2,0.5,0.5S153.8-16.9,153.6-16.9z M153.7-19.2h-8c-0.3,0-0.5-0.2-0.5-0.5
	s0.2-0.5,0.5-0.5h8c0.3,0,0.5,0.2,0.5,0.5S153.9-19.2,153.7-19.2z"/>
<g>
	<polygon class="st3" points="137.3,10.6 135.8,9.2 135,10 136.6,11.5 136.6,11.5 137.4,12.2 140.8,8.6 140,7.8 	"/>
	<path class="st3" d="M128.4,3.6v27.5h19.1V3.6H128.4z M137.9,14.2c-2.4,0-4.3-1.9-4.3-4.3c0-2.4,1.9-4.3,4.3-4.3s4.3,1.9,4.3,4.3
		C142.2,12.3,140.3,14.2,137.9,14.2z"/>
</g>
<path class="st0" d="M177.4,5.1c-4.4,0-8,3.6-8,8s3.6,8,8,8s8-3.6,8-8S181.9,5.1,177.4,5.1z M176.4,17.5l-1.6-1.5l0,0l-2.9-2.7
	l1.5-1.6l2.9,2.7l4.9-5.3l1.6,1.5L176.4,17.5z"/>
<g>
	<path class="st3" d="M96-10.7v24.6h17v-24.6H96z M99.1,8.7L99.1,8.7c-0.3,0-0.6-0.2-0.6-0.6c0-0.3,0.2-0.6,0.6-0.6h0
		c0.3,0,0.6,0.2,0.6,0.6C99.6,8.4,99.4,8.7,99.1,8.7z M99.1,6.2L99.1,6.2c-0.3,0-0.6-0.2-0.6-0.6s0.2-0.6,0.6-0.6h0
		c0.3,0,0.6,0.2,0.6,0.6S99.4,6.2,99.1,6.2z M99.1,3.6L99.1,3.6c-0.3,0-0.6-0.2-0.6-0.6s0.2-0.6,0.6-0.6h0c0.3,0,0.6,0.2,0.6,0.6
		S99.4,3.6,99.1,3.6z M104.5-8.7c2.6,0,4.7,2.1,4.7,4.7s-2.1,4.7-4.7,4.7S99.9-1.4,99.9-4S102-8.7,104.5-8.7z M110.4,8.7h-9.1
		c-0.3,0-0.6-0.2-0.6-0.6c0-0.3,0.2-0.6,0.6-0.6h9.1c0.3,0,0.6,0.2,0.6,0.6C111,8.4,110.7,8.7,110.4,8.7z M110.4,6.2h-9.1
		c-0.3,0-0.6-0.2-0.6-0.6s0.2-0.6,0.6-0.6h9.1c0.3,0,0.6,0.2,0.6,0.6S110.7,6.2,110.4,6.2z M110.5,3.6h-9.1c-0.3,0-0.6-0.2-0.6-0.6
		s0.2-0.6,0.6-0.6h9.1c0.3,0,0.6,0.2,0.6,0.6S110.8,3.6,110.5,3.6z"/>
	<polygon class="st3" points="103,-2.3 103.9,-1.4 107.7,-5.5 106.7,-6.3 103.9,-3.2 102.2,-4.8 101.3,-3.9 103,-2.3 	"/>
</g>
<g>
	<path class="st3" d="M6.9,4.4v39.3h27.2V4.4H6.9z M11.8,35.3L11.8,35.3c-0.5,0-0.9-0.4-0.9-0.9c0-0.5,0.4-0.9,0.9-0.9h0
		c0.5,0,0.9,0.4,0.9,0.9C12.7,34.9,12.3,35.3,11.8,35.3z M11.8,31.4L11.8,31.4c-0.5,0-0.9-0.4-0.9-0.9s0.4-0.9,0.9-0.9h0
		c0.5,0,0.9,0.4,0.9,0.9S12.3,31.4,11.8,31.4z M11.8,27.2L11.8,27.2c-0.5,0-0.9-0.4-0.9-0.9s0.4-0.9,0.9-0.9h0
		c0.5,0,0.9,0.4,0.9,0.9S12.3,27.2,11.8,27.2z M20.5,7.6c4.1,0,7.5,3.3,7.5,7.5s-3.3,7.5-7.5,7.5s-7.5-3.3-7.5-7.5
		S16.4,7.6,20.5,7.6z M29.9,35.3H15.4c-0.5,0-0.9-0.4-0.9-0.9c0-0.5,0.4-0.9,0.9-0.9h14.6c0.5,0,0.9,0.4,0.9,0.9
		C30.8,34.9,30.4,35.3,29.9,35.3z M29.9,31.4H15.4c-0.5,0-0.9-0.4-0.9-0.9s0.4-0.9,0.9-0.9h14.6c0.5,0,0.9,0.4,0.9,0.9
		S30.4,31.4,29.9,31.4z M30.1,27.2H15.5c-0.5,0-0.9-0.4-0.9-0.9s0.4-0.9,0.9-0.9h14.6c0.5,0,0.9,0.4,0.9,0.9S30.6,27.2,30.1,27.2z"
		/>
	<polygon class="st3" points="18.1,17.8 19.6,19.1 25.5,12.7 24.1,11.4 19.5,16.3 16.8,13.8 15.4,15.2 18.1,17.8 	"/>
</g>
</svg>
