<?xml version="1.0" encoding="UTF-8"?>
<svg width="40px" height="40px" viewBox="0 0 40 40" version="1.1" xmlns="http://www.w3.org/2000/svg" xmlns:xlink="http://www.w3.org/1999/xlink">
    <!-- Generator: Sketch 46.2 (44496) - http://www.bohemiancoding.com/sketch -->
    <title>benefits</title>
    <desc>Created with Sketch.</desc>
    <defs></defs>
    <g id="V6---R1-prototypes" stroke="none" stroke-width="1" fill="none" fill-rule="evenodd">
        <g id="benefits" fill-rule="nonzero" fill="#323A45">
            <g id="icon" transform="translate(4.000000, 1.000000)">
                <path d="M9.89005817,24.6472934 C9.35079226,24.6472934 8.90909091,24.2310255 8.90909091,23.7228108 C8.90909091,23.2145961 9.35079226,22.8 9.89005817,22.8 L26.0644873,22.8 C26.6037532,22.8 27.0454545,23.2145961 27.0454545,23.7228108 C27.0454545,24.2310255 26.6037532,24.6472934 26.0644873,24.6472934 L9.89005817,24.6472934 Z M9.89005813,28.4472934 C9.35079226,28.4472934 8.90909091,28.0310255 8.90909091,27.5228108 C8.90909091,27.0145961 9.35079226,26.6 9.89005813,26.6 L26.0644873,26.6 C26.6037532,26.6 27.0454545,27.0145961 27.0454545,27.5228108 C27.0454545,28.0310255 26.6037532,28.4472934 26.0644873,28.4472934 L9.89005813,28.4472934 Z M9.89005813,32.2472934 C9.35079226,32.2472934 8.90909091,31.8310254 8.90909091,31.3228108 C8.90909091,30.8145961 9.35079226,30.4 9.89005813,30.4 L26.0644873,30.4 C26.6037532,30.4 27.0454545,30.8145961 27.0454545,31.3228108 C27.0454545,31.8310254 26.6037532,32.2472934 26.0644873,32.2472934 L9.89005813,32.2472934 Z M23.9082087,11.4008124 C23.9082087,15.5976697 20.3678845,19 15.9991178,19 C11.6320417,19 8.09002686,15.5976697 8.09002686,11.4008124 C8.09002686,7.2023303 11.6320417,3.8 15.9991178,3.8 C20.3678845,3.8 23.9082087,7.2023303 23.9082087,11.4008124 Z M5.90374159,24.6472934 C5.38194118,24.6472934 4.95454545,24.2310255 4.95454545,23.7228108 C4.95454545,23.2145961 5.38194118,22.8 5.90374159,22.8 L5.92777186,22.8 C6.44957228,22.8 6.876968,23.2145961 6.876968,23.7228108 C6.876968,24.2310255 6.44957228,24.6472934 5.92777186,24.6472934 L5.90374159,24.6472934 Z M5.90202512,28.4472934 C5.38022471,28.4472934 4.95454545,28.0310255 4.95454545,27.5228108 C4.95454545,27.0145961 5.38022471,26.6 5.90202512,26.6 L5.92605539,26.6 C6.44785581,26.6 6.87525153,27.0145961 6.87525153,27.5228108 C6.87525153,28.0310255 6.44785581,28.4472934 5.92605539,28.4472934 L5.90202512,28.4472934 Z M5.90202512,32.2472934 C5.38022471,32.2472934 4.95454545,31.8310254 4.95454545,31.3228108 C4.95454545,30.8145961 5.38022471,30.4 5.90202512,30.4 L5.92605539,30.4 C6.44785581,30.4 6.87525153,30.8145961 6.87525153,31.3228108 C6.87525153,31.8310254 6.44785581,32.2472934 5.92605539,32.2472934 L5.90202512,32.2472934 Z M3,38 L29,38 L29,38 C30.6568542,38 32,36.6568542 32,35 L32,3 L32,3 C32,1.34314575 30.6568542,-3.04359188e-16 29,0 L3,0 L3,0 C1.34314575,3.04359188e-16 -2.02906125e-16,1.34314575 0,3 L0,35 L0,35 C2.02906125e-16,36.6568542 1.34314575,38 3,38 Z" id="Fill-1"></path>
                <polygon id="Fill-4" points="15.0794805 15.2 21.275435 8.93261988 19.7456108 7.6 14.979492 12.4205804 12.1481508 9.95554641 10.7299805 11.3913974 13.5596552 13.8564313"></polygon>
            </g>
        </g>
    </g>
</svg>