<?xml version="1.0" encoding="UTF-8" standalone="no"?>
<svg width="28px" height="41px" viewBox="0 0 28 41" version="1.1" xmlns="http://www.w3.org/2000/svg" xmlns:xlink="http://www.w3.org/1999/xlink">
    <!-- Generator: Sketch 40.2 (33826) - http://www.bohemiancoding.com/sketch -->
    <title>Benefit (shadow)</title>
    <desc>Created with Sketch.</desc>
    <defs>
        <filter x="-50%" y="-50%" width="200%" height="200%" filterUnits="objectBoundingBox" id="filter-1">
            <feOffset dx="0" dy="2" in="SourceAlpha" result="shadowOffsetOuter1"></feOffset>
            <feGaussianBlur stdDeviation="2" in="shadowOffsetOuter1" result="shadowBlurOuter1"></feGaussianBlur>
            <feColorMatrix values="0 0 0 0 0   0 0 0 0 0   0 0 0 0 0  0 0 0 0.5 0" type="matrix" in="shadowBlurOuter1" result="shadowMatrixOuter1"></feColorMatrix>
            <feMerge>
                <feMergeNode in="shadowMatrixOuter1"></feMergeNode>
                <feMergeNode in="SourceGraphic"></feMergeNode>
            </feMerge>
        </filter>
        <path d="M0.0653030303,9.81698824 C0.0653030303,11.9534235 0.784242424,13.9782118 2.05681818,15.665 L9.58166667,25.6730118 C9.74742424,25.8981412 10.134697,25.9541176 10.3560606,25.7855765 C10.4115152,25.7291412 10.4115152,25.7291412 10.4663636,25.6730118 L17.9912121,15.665 C19.2637879,13.9782118 19.9827273,11.9534235 19.9827273,9.81698824 C19.9827273,4.41938824 15.5010606,0.0336470588 10.0243939,0.0336470588 C4.5469697,0.0336470588 0.0653030303,4.41938824 0.0653030303,9.81698824 L0.0653030303,9.81698824 Z" id="path-2"></path>
        <polygon id="path-4" points="0.000199999999 12.6696833 8.5215 12.6696833 8.5215 0.221111312 0.000199999999 0.221111312 0.000199999999 12.6696833"></polygon>
    </defs>
    <g id="Page-1" stroke="none" stroke-width="1" fill="none" fill-rule="evenodd">
        <g id="Benefit-(shadow)">
            <g id="Page-1" filter="url(#filter-1)" transform="translate(4.000000, 8.000000)">
                <g id="Group-3">
                    <mask id="mask-3" fill="white">
                        <use xlink:href="#path-2"></use>
                    </mask>
                    <g id="Clip-2"></g>
                    <polygon id="Fill-1" fill="#417505" mask="url(#mask-3)" points="-6.09954545 32.8309647 26.1478788 32.8309647 26.1478788 -6.91416471 -6.09954545 -6.91416471"></polygon>
                </g>
            </g>
            <g id="Page-1" transform="translate(10.000000, 12.000000)">
                <g id="Group-3" transform="translate(0.000000, 0.285929)">
                    <mask id="mask-5" fill="white">
                        <use xlink:href="#path-4"></use>
                    </mask>
                    <g id="Clip-2"></g>
                    <path d="M7.2522,7.47273122 L2.6932,7.47273122 C2.5412,7.47273122 2.4167,7.34654118 2.4167,7.19247783 C2.4167,7.03841448 2.5412,6.91273122 2.6932,6.91273122 L7.2522,6.91273122 C7.4042,6.91273122 7.5287,7.03841448 7.5287,7.19247783 C7.5287,7.34654118 7.4042,7.47273122 7.2522,7.47273122 L7.2522,7.47273122 Z M7.2027,8.79189864 L2.6437,8.79189864 C2.4917,8.79189864 2.3672,8.6657086 2.3672,8.51164525 C2.3672,8.3575819 2.4917,8.23189864 2.6437,8.23189864 L7.2027,8.23189864 C7.3547,8.23189864 7.4792,8.3575819 7.4792,8.51164525 C7.4792,8.6657086 7.3547,8.79189864 7.2027,8.79189864 L7.2027,8.79189864 Z M7.2027,10.0360615 L2.6437,10.0360615 C2.4917,10.0360615 2.3672,9.90987149 2.3672,9.75580814 C2.3672,9.6017448 2.4917,9.47606154 2.6437,9.47606154 L7.2027,9.47606154 C7.3547,9.47606154 7.4792,9.6017448 7.4792,9.75580814 C7.4792,9.90987149 7.3547,10.0360615 7.2027,10.0360615 L7.2027,10.0360615 Z M4.2607,1.25039638 C5.5527,1.25039638 6.5997,2.31160905 6.5997,3.62114751 C6.5997,4.93017919 5.5527,5.99139186 4.2607,5.99139186 C2.9692,5.99139186 1.9217,4.93017919 1.9217,3.62114751 C1.9217,2.31160905 2.9692,1.25039638 4.2607,1.25039638 L4.2607,1.25039638 Z M1.5317,7.47273122 L1.5247,7.47273122 C1.3727,7.47273122 1.2482,7.34654118 1.2482,7.19247783 C1.2482,7.03841448 1.3727,6.91273122 1.5247,6.91273122 L1.5317,6.91273122 C1.6837,6.91273122 1.8082,7.03841448 1.8082,7.19247783 C1.8082,7.34654118 1.6837,7.47273122 1.5317,7.47273122 L1.5317,7.47273122 Z M1.5262,8.79189864 L1.5192,8.79189864 C1.3672,8.79189864 1.2432,8.6657086 1.2432,8.51164525 C1.2432,8.3575819 1.3672,8.23189864 1.5192,8.23189864 L1.5262,8.23189864 C1.6782,8.23189864 1.8027,8.3575819 1.8027,8.51164525 C1.8027,8.6657086 1.6782,8.79189864 1.5262,8.79189864 L1.5262,8.79189864 Z M1.5262,10.0360615 L1.5192,10.0360615 C1.3672,10.0360615 1.2432,9.90987149 1.2432,9.75580814 C1.2432,9.6017448 1.3672,9.47606154 1.5192,9.47606154 L1.5262,9.47606154 C1.6782,9.47606154 1.8027,9.6017448 1.8027,9.75580814 C1.8027,9.90987149 1.6782,10.0360615 1.5262,10.0360615 L1.5262,10.0360615 Z M0.000199999999,12.6698353 L8.5217,12.6698353 L8.5217,0.221111312 L0.000199999999,0.221111312 L0.000199999999,12.6698353 Z" id="Fill-1" fill="#FFFFFF" mask="url(#mask-5)"></path>
                </g>
                <polygon id="Fill-4" fill="#FFFFFF" points="3.50955 4.7623819 3.96855 5.19416471 5.82755 3.16346787 5.36855 2.73168507 3.93855 4.29360362 3.08905 3.49490679 2.66355 3.96013756 3.51255 4.75883439"></polygon>
            </g>
        </g>
    </g>
</svg>