<?xml version="1.0" encoding="UTF-8" standalone="no"?>
<svg width="28px" height="41px" viewBox="0 0 28 41" version="1.1" xmlns="http://www.w3.org/2000/svg" xmlns:xlink="http://www.w3.org/1999/xlink">
    <!-- Generator: Sketch 40.2 (33826) - http://www.bohemiancoding.com/sketch -->
    <title>Cemetery (shadow)</title>
    <desc>Created with Sketch.</desc>
    <defs>
        <filter x="-50%" y="-50%" width="200%" height="200%" filterUnits="objectBoundingBox" id="filter-1">
            <feOffset dx="0" dy="2" in="SourceAlpha" result="shadowOffsetOuter1"></feOffset>
            <feGaussianBlur stdDeviation="2" in="shadowOffsetOuter1" result="shadowBlurOuter1"></feGaussianBlur>
            <feColorMatrix values="0 0 0 0 0   0 0 0 0 0   0 0 0 0 0  0 0 0 0.5 0" type="matrix" in="shadowBlurOuter1" result="shadowMatrixOuter1"></feColorMatrix>
            <feMerge>
                <feMergeNode in="shadowMatrixOuter1"></feMergeNode>
                <feMergeNode in="SourceGraphic"></feMergeNode>
            </feMerge>
        </filter>
        <path d="M0.0653030303,9.81698824 C0.0653030303,11.9534235 0.784242424,13.9782118 2.05681818,15.665 L9.58166667,25.6730118 C9.74742424,25.8981412 10.134697,25.9541176 10.3560606,25.7855765 C10.4115152,25.7291412 10.4115152,25.7291412 10.4663636,25.6730118 L17.9912121,15.665 C19.2637879,13.9782118 19.9827273,11.9534235 19.9827273,9.81698824 C19.9827273,4.41938824 15.5010606,0.0336470588 10.0243939,0.0336470588 C4.5469697,0.0336470588 0.0653030303,4.41938824 0.0653030303,9.81698824 L0.0653030303,9.81698824 Z" id="path-2"></path>
    </defs>
    <g id="Page-1" stroke="none" stroke-width="1" fill="none" fill-rule="evenodd">
        <g id="Cemetery-(shadow)">
            <g id="Group-3" filter="url(#filter-1)" transform="translate(4.000000, 8.000000)">
                <mask id="mask-3" fill="white">
                    <use xlink:href="#path-2"></use>
                </mask>
                <g id="Clip-2"></g>
                <polygon id="Fill-1" fill="#0056A8" mask="url(#mask-3)" points="-6.09954545 32.8309647 26.1478788 32.8309647 26.1478788 -6.91416471 -6.09954545 -6.91416471"></polygon>
            </g>
            <g id="Page-1" transform="translate(9.000000, 11.000000)" fill="#FEFEFE">
                <polygon id="Fill-1" points="0 13.4726494 9.38818752 13.4726494 9.38818752 12.6276416 0 12.6276416"></polygon>
                <path d="M6.71918224,5.0267233 L2.66885036,5.0267233 C2.51238315,5.0267233 2.38442085,4.89730063 2.38442085,4.73904772 C2.38442085,4.58079482 2.51238315,4.45121546 2.66885036,4.45121546 L6.71918224,4.45121546 C6.87564945,4.45121546 7.00361174,4.58079482 7.00361174,4.73904772 C7.00361174,4.89730063 6.87564945,5.0267233 6.71918224,5.0267233 M2.94321019,3.51642653 L6.24947078,3.51642653 C6.40593799,3.51642653 6.53390028,3.6458492 6.53390028,3.80425879 C6.53390028,3.96251169 6.40593799,4.09193437 6.24947078,4.09193437 L2.94321019,4.09193437 C2.78674298,4.09193437 2.65878068,3.96251169 2.65878068,3.80425879 C2.65878068,3.6458492 2.78674298,3.51642653 2.94321019,3.51642653 M4.73375277,7.83430215e-05 C2.580702,7.83430215e-05 0.835395475,1.63023994 0.835395475,3.64114862 L0.835395475,12.0299627 L8.63226499,12.0299627 L8.63226499,3.64114862 C8.63226499,1.63023994 6.88680355,7.83430215e-05 4.73375277,7.83430215e-05" id="Fill-2"></path>
            </g>
        </g>
    </g>
</svg>