<?xml version="1.0" encoding="UTF-8"?>
<svg width="11px" height="13px" viewBox="0 0 11 13" version="1.1" xmlns="http://www.w3.org/2000/svg" xmlns:xlink="http://www.w3.org/1999/xlink">
    <!-- Generator: Sketch 40.3 (33839) - http://www.bohemiancoding.com/sketch -->
    <title>Untitled</title>
    <desc>Created with Sketch.</desc>
    <defs></defs>
    <g id="Page-1" stroke="none" stroke-width="1" fill="none" fill-rule="evenodd">
        <path d="M9.46,11 L8.78,11 L10,2.55 C10.0175,2.2633 9.7992,2.0168 9.5126,1.9993 C9.4884,1.9979 9.4641,1.9981 9.44,2 L8.26,2 C8.26,1.08 7.03,0 5.51,0 C3.99,0 2.77,1.08 2.77,2 L1.54,2 C1.253,1.9885 1.0111,2.2117 0.9995,2.4987 C0.9988,2.5158 0.999,2.5329 1,2.55 L2.2,11 L1.55,11 C1.2609,10.9886 1.0162,11.2112 1,11.5 L1,13 L10,13 L10,11.49 C9.9839,11.2067 9.7435,10.9886 9.46,11 L9.46,11 Z M2.5,4 L8.5,4 L8.5,5 L2.5,5 L2.5,4 L2.5,4 Z" id="Shape" fill="#fff"></path>
    </g>
</svg>
