<?xml version="1.0" encoding="utf-8"?>
<!-- Generator: Adobe Illustrator 20.1.0, SVG Export Plug-In . SVG Version: 6.00 Build 0)  -->
<svg version="1.1" id="Layer_1" xmlns="http://www.w3.org/2000/svg" xmlns:xlink="http://www.w3.org/1999/xlink" x="0px" y="0px"
	 viewBox="0 0 40 48" style="enable-background:new 0 0 40 48;" xml:space="preserve">
<style type="text/css">
	.st0{fill:#FFFFFF;}
</style>
<title>Artboard</title>
<desc>Created with Sketch.</desc>
<rect x="7.2" y="41.1" class="st0" width="25.5" height="2.3"/>
<g>
	<g>
		<path class="st0" d="M20.1,7.2c-5.9,0-10.6,4.4-10.6,9.8v22.6h21.2V17C30.7,11.6,26,7.2,20.1,7.2z M15.2,16.6h9
			c0.4,0,0.8,0.3,0.8,0.8s-0.3,0.8-0.8,0.8h-9c-0.4,0-0.8-0.3-0.8-0.8S14.8,16.6,15.2,16.6z M25.5,20.7h-11c-0.4,0-0.8-0.3-0.8-0.8
			s0.3-0.8,0.8-0.8h11c0.4,0,0.8,0.3,0.8,0.8S25.9,20.7,25.5,20.7z"/>
	</g>
</g>
</svg>
