<?xml version="1.0" encoding="UTF-8" standalone="no"?>
<svg width="24px" height="29px" viewBox="0 0 24 29" version="1.1" xmlns="http://www.w3.org/2000/svg" xmlns:xlink="http://www.w3.org/1999/xlink">
    <!-- Generator: Sketch 40.2 (33826) - http://www.bohemiancoding.com/sketch -->
    <title>You</title>
    <desc>Created with Sketch.</desc>
    <defs>
        <path d="M0.0653030303,9.81698824 C0.0653030303,11.9534235 0.784242424,13.9782118 2.05681818,15.665 L9.58166667,25.6730118 C9.74742424,25.8981412 10.134697,25.9541176 10.3560606,25.7855765 C10.4115152,25.7291412 10.4115152,25.7291412 10.4663636,25.6730118 L17.9912121,15.665 C19.2637879,13.9782118 19.9827273,11.9534235 19.9827273,9.81698824 C19.9827273,4.41938824 15.5010606,0.0336470588 10.0243939,0.0336470588 C4.5469697,0.0336470588 0.0653030303,4.41938824 0.0653030303,9.81698824 L0.0653030303,9.81698824 Z" id="path-1"></path>
    </defs>
    <g id="Page-1" stroke="none" stroke-width="1" fill="none" fill-rule="evenodd">
        <g id="You">
            <g id="Group-3" transform="translate(2.000000, 2.000000)">
                <mask id="mask-2" fill="white">
                    <use xlink:href="#path-1"></use>
                </mask>
                <g id="Clip-2"></g>
                <polygon id="Fill-1" fill="#323A45" mask="url(#mask-2)" points="-6.09954545 32.8309647 26.1478788 32.8309647 26.1478788 -6.91416471 -6.09954545 -6.91416471"></polygon>
            </g>
            <path d="M11.9999687,16.6852011 L8.89777973,18.3161183 C8.40908832,18.5730386 8.08872094,18.3393932 8.18191774,17.7960141 L8.77438312,14.3416759 L6.2646595,11.8953 C5.86929984,11.5099196 5.99251087,11.1330317 6.53809445,11.0537538 L10.0064472,10.5497726 L11.5575417,7.4069119 C11.8018874,6.91181342 12.1984034,6.91252931 12.4423958,7.4069119 L13.9934903,10.5497726 L17.461843,11.0537538 C18.0082166,11.1331465 18.1300659,11.5104769 17.735278,11.8953 L15.2255543,14.3416759 L15.8180197,17.7960141 C15.9113515,18.34018 15.5901425,18.5726671 15.1021577,18.3161183 L11.9999687,16.6852011 Z" id="Star" fill="#FFFFFF"></path>
        </g>
    </g>
</svg>