<svg width="398" height="40" viewBox="0 0 398 40" fill="none" xmlns="http://www.w3.org/2000/svg">
<g clip-path="url(#clip0_4600_379638)">
<g clip-path="url(#clip1_4600_379638)">
<mask id="mask0_4600_379638" style="mask-type:luminance" maskUnits="userSpaceOnUse" x="0" y="0" width="177" height="40">
<path d="M176.231 0H0.818359V39.0553H176.231V0Z" fill="white"/>
</mask>
<g mask="url(#mask0_4600_379638)">
<path d="M39.6131 5.49219H39.2676V33.7073H39.6131V5.49219Z" fill="#231F20"/>
</g>
<mask id="mask1_4600_379638" style="mask-type:luminance" maskUnits="userSpaceOnUse" x="0" y="0" width="177" height="40">
<path d="M176.231 0H0.818359V39.0553H176.231V0Z" fill="white"/>
</mask>
<g mask="url(#mask1_4600_379638)">
<path d="M6.80274 28.6002L0.818359 9.51953H5.44504L7.71664 17.5875C8.35444 19.8808 8.93646 22.0317 9.3792 24.4103H9.46164C9.9335 22.1159 10.5152 19.852 11.1526 17.6727L13.5354 9.51953H18.0232L11.7343 28.6002H6.80274Z" fill="#231F20"/>
</g>
<mask id="mask2_4600_379638" style="mask-type:luminance" maskUnits="userSpaceOnUse" x="0" y="0" width="177" height="40">
<path d="M176.231 0H0.818359V39.0553H176.231V0Z" fill="white"/>
</mask>
<g mask="url(#mask2_4600_379638)">
<path d="M20.6518 23.7039L19.3225 28.6015H14.9727L20.6518 9.52148H26.1931L32.0112 28.6015H27.4399L25.9991 23.7039H20.6518ZM25.3901 20.4764L24.226 16.4282C23.8948 15.2964 23.5612 13.8808 23.2844 12.748H23.229C22.9515 13.8808 22.6747 15.3245 22.3695 16.4282L21.2616 20.4764H25.3901Z" fill="#231F20"/>
</g>
</g>
</g>
<path d="M53.135 18.2488L52.0184 21.519H58.2397L57.123 18.2488C56.7685 17.2031 56.4318 16.2016 56.1127 15.2445C55.7937 14.2874 55.4835 13.2682 55.1822 12.1871H55.0758C54.7745 13.2682 54.4644 14.2874 54.1453 15.2445C53.8263 16.2016 53.4895 17.2031 53.135 18.2488ZM48.3494 28.5645L54.5175 11.0438H55.7405L61.9086 28.5645H60.6325L58.5853 22.5559H51.6462L49.5724 28.5645H48.3494ZM69.3095 28.8835C68.2106 28.8835 67.218 28.6265 66.3318 28.1125C65.4633 27.5807 64.772 26.8186 64.258 25.826C63.7617 24.8157 63.5136 23.6105 63.5136 22.2102C63.5136 20.7746 63.7795 19.5604 64.3112 18.5679C64.8606 17.5576 65.5785 16.7954 66.4647 16.2814C67.3509 15.7497 68.3081 15.4838 69.3361 15.4838C70.2223 15.4838 70.9579 15.6433 71.5428 15.9624C72.1277 16.2814 72.6417 16.6448 73.0848 17.0524L72.3935 17.8766C71.9859 17.4867 71.5339 17.1676 71.0376 16.9195C70.5413 16.6536 69.983 16.5207 69.3627 16.5207C68.4942 16.5207 67.7054 16.76 66.9964 17.2385C66.3052 17.7171 65.7557 18.3818 65.3481 19.2325C64.9404 20.0833 64.7366 21.0759 64.7366 22.2102C64.7366 23.3269 64.9227 24.3106 65.2949 25.1614C65.6848 25.9944 66.2254 26.6502 66.9167 27.1288C67.6257 27.6073 68.441 27.8466 69.3627 27.8466C70.0362 27.8466 70.6565 27.7048 71.2237 27.4212C71.8086 27.1199 72.3226 26.7743 72.7658 26.3843L73.3773 27.2085C72.8278 27.6871 72.2163 28.0859 71.5428 28.4049C70.8692 28.724 70.1248 28.8835 69.3095 28.8835ZM80.8113 28.8835C79.7124 28.8835 78.7199 28.6265 77.8336 28.1125C76.9651 27.5807 76.2739 26.8186 75.7599 25.826C75.2636 24.8157 75.0154 23.6105 75.0154 22.2102C75.0154 20.7746 75.2813 19.5604 75.813 18.5679C76.3625 17.5576 77.0803 16.7954 77.9666 16.2814C78.8528 15.7497 79.8099 15.4838 80.8379 15.4838C81.7242 15.4838 82.4597 15.6433 83.0446 15.9624C83.6295 16.2814 84.1435 16.6448 84.5867 17.0524L83.8954 17.8766C83.4877 17.4867 83.0358 17.1676 82.5395 16.9195C82.0432 16.6536 81.4849 16.5207 80.8645 16.5207C79.996 16.5207 79.2073 16.76 78.4983 17.2385C77.8071 17.7171 77.2576 18.3818 76.8499 19.2325C76.4423 20.0833 76.2384 21.0759 76.2384 22.2102C76.2384 23.3269 76.4245 24.3106 76.7968 25.1614C77.1867 25.9944 77.7273 26.6502 78.4185 27.1288C79.1275 27.6073 79.9428 27.8466 80.8645 27.8466C81.538 27.8466 82.1584 27.7048 82.7256 27.4212C83.3105 27.1199 83.8245 26.7743 84.2676 26.3843L84.8791 27.2085C84.3297 27.6871 83.7182 28.0859 83.0446 28.4049C82.3711 28.724 81.6267 28.8835 80.8113 28.8835ZM88.0222 28.5645V15.8028H89.0324L89.1388 18.1691H89.2186C89.6439 17.3892 90.158 16.7511 90.7606 16.2548C91.3809 15.7408 92.0722 15.4838 92.8343 15.4838C93.0825 15.4838 93.304 15.5015 93.499 15.537C93.694 15.5724 93.8978 15.6433 94.1105 15.7497L93.8446 16.8131C93.6319 16.7245 93.4458 16.6713 93.2863 16.6536C93.1268 16.6182 92.923 16.6004 92.6748 16.6004C92.1076 16.6004 91.505 16.8486 90.8669 17.3449C90.2466 17.8234 89.6883 18.6653 89.192 19.8706V28.5645H88.0222ZM101.039 28.8835C99.9583 28.8835 98.9657 28.6176 98.0617 28.0859C97.1755 27.5542 96.4665 26.792 95.9348 25.7994C95.4031 24.7891 95.1372 23.5927 95.1372 22.2102C95.1372 20.81 95.4031 19.6136 95.9348 18.621C96.4665 17.6107 97.1578 16.8397 98.0086 16.308C98.8593 15.7585 99.7544 15.4838 100.694 15.4838C102.218 15.4838 103.415 15.9978 104.283 17.0258C105.152 18.0538 105.586 19.5073 105.586 21.386C105.586 21.5456 105.577 21.7051 105.559 21.8646C105.559 22.0241 105.541 22.1836 105.506 22.3432H96.3336C96.3513 23.4066 96.5552 24.3549 96.9451 25.1879C97.3528 26.021 97.9111 26.6768 98.6201 27.1554C99.3468 27.6339 100.189 27.8732 101.146 27.8732C101.837 27.8732 102.457 27.7669 103.007 27.5542C103.574 27.3415 104.097 27.0667 104.575 26.73L105.054 27.6339C104.558 27.9352 103.999 28.2188 103.379 28.4847C102.759 28.7506 101.979 28.8835 101.039 28.8835ZM96.3336 21.386H104.469C104.469 19.7554 104.132 18.5324 103.459 17.7171C102.785 16.9018 101.873 16.4941 100.72 16.4941C99.9937 16.4941 99.3113 16.6891 98.6732 17.079C98.0529 17.4689 97.53 18.0273 97.1046 18.754C96.6792 19.4807 96.4222 20.358 96.3336 21.386ZM113.28 28.8835C111.667 28.8835 110.382 28.3074 109.425 27.1554C108.468 26.0033 107.989 24.3549 107.989 22.2102C107.989 20.8277 108.246 19.6402 108.76 18.6476C109.292 17.6373 109.983 16.8574 110.834 16.308C111.702 15.7585 112.642 15.4838 113.652 15.4838C114.432 15.4838 115.106 15.6256 115.673 15.9092C116.258 16.1751 116.869 16.5561 117.507 17.0524L117.454 14.7128V9.44862H118.624V28.5645H117.614L117.507 26.9161H117.427C116.913 27.4301 116.302 27.8909 115.593 28.2986C114.902 28.6885 114.131 28.8835 113.28 28.8835ZM113.439 27.8466C114.148 27.8466 114.822 27.6694 115.46 27.3149C116.116 26.9427 116.781 26.4198 117.454 25.7463V18.1691C116.781 17.5664 116.142 17.141 115.54 16.8929C114.955 16.6448 114.352 16.5207 113.732 16.5207C112.881 16.5207 112.119 16.7777 111.445 17.2917C110.772 17.788 110.231 18.4615 109.824 19.3123C109.434 20.1631 109.239 21.129 109.239 22.2102C109.239 23.8941 109.602 25.2588 110.329 26.3046C111.056 27.3326 112.092 27.8466 113.439 27.8466ZM123.514 28.5645V15.8028H124.684V28.5645H123.514ZM124.126 12.7188C123.842 12.7188 123.603 12.6213 123.408 12.4263C123.213 12.2314 123.116 11.9655 123.116 11.6287C123.116 11.3274 123.213 11.0793 123.408 10.8843C123.603 10.6893 123.842 10.5918 124.126 10.5918C124.427 10.5918 124.666 10.6893 124.844 10.8843C125.039 11.0793 125.136 11.3274 125.136 11.6287C125.136 11.9655 125.039 12.2314 124.844 12.4263C124.666 12.6213 124.427 12.7188 124.126 12.7188ZM133.073 28.8835C131.832 28.8835 130.99 28.529 130.547 27.82C130.104 27.0933 129.882 26.1628 129.882 25.0284V16.8131H127.888V15.9092L129.909 15.8028L130.068 12.1073H131.079V15.8028H134.774V16.8131H131.079V25.1348C131.079 25.9501 131.22 26.6059 131.504 27.1022C131.788 27.5985 132.364 27.8466 133.232 27.8466C133.48 27.8466 133.746 27.8112 134.03 27.7403C134.331 27.6516 134.597 27.5542 134.827 27.4478L135.146 28.4049C134.774 28.529 134.393 28.6354 134.003 28.724C133.631 28.8303 133.321 28.8835 133.073 28.8835ZM142.425 28.8835C141.344 28.8835 140.352 28.6176 139.448 28.0859C138.561 27.5542 137.852 26.792 137.321 25.7994C136.789 24.7891 136.523 23.5927 136.523 22.2102C136.523 20.81 136.789 19.6136 137.321 18.621C137.852 17.6107 138.544 16.8397 139.394 16.308C140.245 15.7585 141.14 15.4838 142.08 15.4838C143.604 15.4838 144.8 15.9978 145.669 17.0258C146.537 18.0538 146.972 19.5073 146.972 21.386C146.972 21.5456 146.963 21.7051 146.945 21.8646C146.945 22.0241 146.927 22.1836 146.892 22.3432H137.72C137.737 23.4066 137.941 24.3549 138.331 25.1879C138.739 26.021 139.297 26.6768 140.006 27.1554C140.733 27.6339 141.575 27.8732 142.532 27.8732C143.223 27.8732 143.843 27.7669 144.393 27.5542C144.96 27.3415 145.483 27.0667 145.961 26.73L146.44 27.6339C145.944 27.9352 145.385 28.2188 144.765 28.4847C144.145 28.7506 143.365 28.8835 142.425 28.8835ZM137.72 21.386H145.855C145.855 19.7554 145.518 18.5324 144.845 17.7171C144.171 16.9018 143.258 16.4941 142.106 16.4941C141.38 16.4941 140.697 16.6891 140.059 17.079C139.439 17.4689 138.916 18.0273 138.491 18.754C138.065 19.4807 137.808 20.358 137.72 21.386ZM154.666 28.8835C153.053 28.8835 151.768 28.3074 150.811 27.1554C149.854 26.0033 149.375 24.3549 149.375 22.2102C149.375 20.8277 149.632 19.6402 150.146 18.6476C150.678 17.6373 151.369 16.8574 152.22 16.308C153.088 15.7585 154.028 15.4838 155.038 15.4838C155.818 15.4838 156.491 15.6256 157.059 15.9092C157.644 16.1751 158.255 16.5561 158.893 17.0524L158.84 14.7128V9.44862H160.01V28.5645H158.999L158.893 26.9161H158.813C158.299 27.4301 157.688 27.8909 156.979 28.2986C156.288 28.6885 155.517 28.8835 154.666 28.8835ZM154.825 27.8466C155.534 27.8466 156.208 27.6694 156.846 27.3149C157.502 26.9427 158.166 26.4198 158.84 25.7463V18.1691C158.166 17.5664 157.528 17.141 156.926 16.8929C156.341 16.6448 155.738 16.5207 155.118 16.5207C154.267 16.5207 153.505 16.7777 152.831 17.2917C152.158 17.788 151.617 18.4615 151.21 19.3123C150.82 20.1631 150.625 21.129 150.625 22.2102C150.625 23.8941 150.988 25.2588 151.715 26.3046C152.441 27.3326 153.478 27.8466 154.825 27.8466ZM170.356 28.5645V11.0438H175.381C177.118 11.0438 178.509 11.3983 179.555 12.1073C180.6 12.7985 181.123 13.9861 181.123 15.6699C181.123 17.0701 180.716 18.1691 179.9 18.9667C179.103 19.7643 178.013 20.2517 176.63 20.4289L181.469 28.5645H180.06L175.301 20.5087H171.579V28.5645H170.356ZM171.579 19.4984H175.062C176.604 19.4984 177.791 19.1882 178.624 18.5679C179.457 17.9298 179.874 16.9638 179.874 15.6699C179.874 14.3583 179.457 13.4366 178.624 12.9049C177.791 12.3554 176.604 12.0807 175.062 12.0807H171.579V19.4984ZM189.264 28.8835C188.182 28.8835 187.19 28.6176 186.286 28.0859C185.4 27.5542 184.691 26.792 184.159 25.7994C183.627 24.7891 183.361 23.5927 183.361 22.2102C183.361 20.81 183.627 19.6136 184.159 18.621C184.691 17.6107 185.382 16.8397 186.233 16.308C187.084 15.7585 187.979 15.4838 188.918 15.4838C190.442 15.4838 191.639 15.9978 192.507 17.0258C193.376 18.0538 193.81 19.5073 193.81 21.386C193.81 21.5456 193.801 21.7051 193.783 21.8646C193.783 22.0241 193.766 22.1836 193.73 22.3432H184.558C184.576 23.4066 184.779 24.3549 185.169 25.1879C185.577 26.021 186.135 26.6768 186.844 27.1554C187.571 27.6339 188.413 27.8732 189.37 27.8732C190.061 27.8732 190.682 27.7669 191.231 27.5542C191.798 27.3415 192.321 27.0667 192.8 26.73L193.278 27.6339C192.782 27.9352 192.224 28.2188 191.603 28.4847C190.983 28.7506 190.203 28.8835 189.264 28.8835ZM184.558 21.386H192.693C192.693 19.7554 192.357 18.5324 191.683 17.7171C191.01 16.9018 190.097 16.4941 188.945 16.4941C188.218 16.4941 187.536 16.6891 186.897 17.079C186.277 17.4689 185.754 18.0273 185.329 18.754C184.903 19.4807 184.646 20.358 184.558 21.386ZM197.277 34.3338V15.8028H198.287L198.393 17.398H198.473C199.094 16.9018 199.776 16.4586 200.52 16.0687C201.265 15.6788 202.027 15.4838 202.807 15.4838C204.508 15.4838 205.785 16.0776 206.635 17.2651C207.486 18.4349 207.912 20.0124 207.912 21.9975C207.912 23.4332 207.646 24.6651 207.114 25.6931C206.6 26.7211 205.918 27.5098 205.067 28.0593C204.216 28.6088 203.285 28.8835 202.275 28.8835C201.673 28.8835 201.052 28.7506 200.414 28.4847C199.776 28.2011 199.12 27.8112 198.447 27.3149V34.3338H197.277ZM202.222 27.8466C203.09 27.8466 203.853 27.5985 204.508 27.1022C205.182 26.6059 205.705 25.9235 206.077 25.055C206.467 24.1688 206.662 23.1496 206.662 21.9975C206.662 20.9518 206.529 20.0213 206.263 19.2059C205.997 18.3729 205.563 17.7171 204.96 17.2385C204.375 16.76 203.596 16.5207 202.621 16.5207C201.983 16.5207 201.318 16.7068 200.627 17.079C199.953 17.4335 199.227 17.9475 198.447 18.621V26.1982C199.173 26.8009 199.856 27.2263 200.494 27.4744C201.15 27.7225 201.726 27.8466 202.222 27.8466ZM211.739 28.5645V15.8028H212.749L212.855 18.1691H212.935C213.36 17.3892 213.874 16.7511 214.477 16.2548C215.097 15.7408 215.789 15.4838 216.551 15.4838C216.799 15.4838 217.02 15.5015 217.215 15.537C217.41 15.5724 217.614 15.6433 217.827 15.7497L217.561 16.8131C217.348 16.7245 217.162 16.6713 217.003 16.6536C216.843 16.6182 216.639 16.6004 216.391 16.6004C215.824 16.6004 215.221 16.8486 214.583 17.3449C213.963 17.8234 213.405 18.6653 212.908 19.8706V28.5645H211.739ZM224.756 28.8835C223.675 28.8835 222.682 28.6176 221.778 28.0859C220.892 27.5542 220.183 26.792 219.651 25.7994C219.119 24.7891 218.854 23.5927 218.854 22.2102C218.854 20.81 219.119 19.6136 219.651 18.621C220.183 17.6107 220.874 16.8397 221.725 16.308C222.576 15.7585 223.471 15.4838 224.41 15.4838C225.935 15.4838 227.131 15.9978 227.999 17.0258C228.868 18.0538 229.302 19.5073 229.302 21.386C229.302 21.5456 229.293 21.7051 229.276 21.8646C229.276 22.0241 229.258 22.1836 229.222 22.3432H220.05C220.068 23.4066 220.272 24.3549 220.662 25.1879C221.069 26.021 221.627 26.6768 222.336 27.1554C223.063 27.6339 223.905 27.8732 224.862 27.8732C225.553 27.8732 226.174 27.7669 226.723 27.5542C227.29 27.3415 227.813 27.0667 228.292 26.73L228.77 27.6339C228.274 27.9352 227.716 28.2188 227.095 28.4847C226.475 28.7506 225.695 28.8835 224.756 28.8835ZM220.05 21.386H228.186C228.186 19.7554 227.849 18.5324 227.175 17.7171C226.502 16.9018 225.589 16.4941 224.437 16.4941C223.71 16.4941 223.028 16.6891 222.39 17.079C221.769 17.4689 221.246 18.0273 220.821 18.754C220.396 19.4807 220.139 20.358 220.05 21.386ZM235.853 28.8835C234.914 28.8835 234.036 28.7151 233.221 28.3783C232.423 28.0239 231.741 27.6073 231.174 27.1288L231.865 26.2514C232.415 26.6945 232.999 27.0756 233.62 27.3946C234.24 27.7137 235.011 27.8732 235.933 27.8732C236.925 27.8732 237.679 27.6251 238.193 27.1288C238.707 26.6148 238.964 26.021 238.964 25.3475C238.964 24.8157 238.804 24.3726 238.485 24.0181C238.166 23.6636 237.767 23.3712 237.289 23.1408C236.828 22.9103 236.349 22.7065 235.853 22.5293C235.215 22.2989 234.586 22.0419 233.965 21.7583C233.363 21.4747 232.867 21.1113 232.477 20.6682C232.087 20.2074 231.892 19.6136 231.892 18.8869C231.892 17.9475 232.237 17.1499 232.929 16.4941C233.638 15.8206 234.657 15.4838 235.986 15.4838C236.677 15.4838 237.342 15.6079 237.98 15.856C238.636 16.1042 239.194 16.4232 239.655 16.8131L239.017 17.6373C238.574 17.3183 238.113 17.0524 237.634 16.8397C237.156 16.6093 236.598 16.4941 235.959 16.4941C234.967 16.4941 234.231 16.7334 233.753 17.2119C233.292 17.6905 233.061 18.2222 233.061 18.8071C233.061 19.2857 233.194 19.6845 233.46 20.0035C233.744 20.3226 234.107 20.5884 234.55 20.8011C235.011 20.9961 235.49 21.1911 235.986 21.386C236.66 21.6342 237.315 21.9001 237.953 22.1836C238.592 22.4672 239.114 22.8483 239.522 23.3269C239.947 23.8054 240.16 24.4612 240.16 25.2943C240.16 25.9324 239.992 26.5261 239.655 27.0756C239.318 27.6073 238.831 28.0416 238.193 28.3783C237.555 28.7151 236.775 28.8835 235.853 28.8835ZM248.383 28.8835C247.301 28.8835 246.309 28.6176 245.405 28.0859C244.519 27.5542 243.81 26.792 243.278 25.7994C242.746 24.7891 242.48 23.5927 242.48 22.2102C242.48 20.81 242.746 19.6136 243.278 18.621C243.81 17.6107 244.501 16.8397 245.352 16.308C246.203 15.7585 247.098 15.4838 248.037 15.4838C249.561 15.4838 250.758 15.9978 251.626 17.0258C252.495 18.0538 252.929 19.5073 252.929 21.386C252.929 21.5456 252.92 21.7051 252.902 21.8646C252.902 22.0241 252.885 22.1836 252.849 22.3432H243.677C243.695 23.4066 243.898 24.3549 244.288 25.1879C244.696 26.021 245.254 26.6768 245.963 27.1554C246.69 27.6339 247.532 27.8732 248.489 27.8732C249.18 27.8732 249.801 27.7669 250.35 27.5542C250.917 27.3415 251.44 27.0667 251.919 26.73L252.397 27.6339C251.901 27.9352 251.343 28.2188 250.722 28.4847C250.102 28.7506 249.322 28.8835 248.383 28.8835ZM243.677 21.386H251.812C251.812 19.7554 251.476 18.5324 250.802 17.7171C250.129 16.9018 249.216 16.4941 248.064 16.4941C247.337 16.4941 246.655 16.6891 246.016 17.079C245.396 17.4689 244.873 18.0273 244.448 18.754C244.022 19.4807 243.765 20.358 243.677 21.386ZM256.396 28.5645V15.8028H257.406L257.513 17.7703H257.592C258.248 17.1145 258.922 16.5739 259.613 16.1485C260.322 15.7054 261.111 15.4838 261.979 15.4838C263.291 15.4838 264.257 15.8915 264.877 16.7068C265.515 17.5044 265.834 18.7274 265.834 20.3758V28.5645H264.664V20.5353C264.664 19.1705 264.434 18.1691 263.973 17.531C263.53 16.8752 262.786 16.5473 261.74 16.5473C260.978 16.5473 260.286 16.7511 259.666 17.1588C259.046 17.5487 258.346 18.1425 257.566 18.9401V28.5645H256.396ZM274.029 28.8835C272.788 28.8835 271.946 28.529 271.503 27.82C271.06 27.0933 270.838 26.1628 270.838 25.0284V16.8131H268.844V15.9092L270.865 15.8028L271.025 12.1073H272.035V15.8028H275.73V16.8131H272.035V25.1348C272.035 25.9501 272.177 26.6059 272.46 27.1022C272.744 27.5985 273.32 27.8466 274.188 27.8466C274.437 27.8466 274.702 27.8112 274.986 27.7403C275.287 27.6516 275.553 27.5542 275.784 27.4478L276.103 28.4049C275.73 28.529 275.349 28.6354 274.959 28.724C274.587 28.8303 274.277 28.8835 274.029 28.8835ZM281.023 28.8835C280.013 28.8835 279.144 28.5999 278.417 28.0327C277.691 27.4655 277.327 26.5793 277.327 25.3741C277.327 23.9561 277.992 22.8838 279.321 22.1571C280.651 21.4126 282.733 20.8809 285.569 20.5619C285.587 19.9061 285.516 19.2768 285.356 18.6742C285.197 18.0538 284.896 17.5398 284.453 17.1322C284.027 16.7245 283.389 16.5207 282.538 16.5207C281.688 16.5207 280.908 16.6891 280.199 17.0258C279.49 17.3626 278.914 17.6905 278.471 18.0095L277.939 17.1322C278.24 16.9195 278.63 16.6891 279.109 16.4409C279.587 16.1751 280.128 15.9535 280.73 15.7763C281.351 15.5813 282.007 15.4838 282.698 15.4838C283.708 15.4838 284.506 15.7054 285.091 16.1485C285.676 16.5916 286.092 17.1853 286.34 17.9298C286.606 18.6565 286.739 19.4807 286.739 20.4023V28.5645H285.729L285.622 26.9161H285.543C284.887 27.4301 284.178 27.8909 283.416 28.2986C282.653 28.6885 281.856 28.8835 281.023 28.8835ZM281.236 27.8732C281.962 27.8732 282.662 27.696 283.336 27.3415C284.027 26.987 284.772 26.473 285.569 25.7994V21.4658C283.814 21.6785 282.423 21.9532 281.395 22.29C280.367 22.6268 279.631 23.0521 279.188 23.5662C278.745 24.0624 278.524 24.6473 278.524 25.3209C278.524 26.2425 278.79 26.8984 279.321 27.2883C279.871 27.6782 280.509 27.8732 281.236 27.8732ZM294.488 28.8835C293.247 28.8835 292.406 28.529 291.962 27.82C291.519 27.0933 291.298 26.1628 291.298 25.0284V16.8131H289.304V15.9092L291.324 15.8028L291.484 12.1073H292.494V15.8028H296.19V16.8131H292.494V25.1348C292.494 25.9501 292.636 26.6059 292.92 27.1022C293.203 27.5985 293.779 27.8466 294.648 27.8466C294.896 27.8466 295.162 27.8112 295.445 27.7403C295.747 27.6516 296.012 27.5542 296.243 27.4478L296.562 28.4049C296.19 28.529 295.809 28.6354 295.419 28.724C295.046 28.8303 294.736 28.8835 294.488 28.8835ZM299.288 28.5645V15.8028H300.457V28.5645H299.288ZM299.899 12.7188C299.616 12.7188 299.376 12.6213 299.181 12.4263C298.986 12.2314 298.889 11.9655 298.889 11.6287C298.889 11.3274 298.986 11.0793 299.181 10.8843C299.376 10.6893 299.616 10.5918 299.899 10.5918C300.2 10.5918 300.44 10.6893 300.617 10.8843C300.812 11.0793 300.909 11.3274 300.909 11.6287C300.909 11.9655 300.812 12.2314 300.617 12.4263C300.44 12.6213 300.2 12.7188 299.899 12.7188ZM308.022 28.5645L303.236 15.8028H304.512L307.384 23.8054C307.579 24.4081 307.791 25.0284 308.022 25.6665C308.252 26.2869 308.465 26.8895 308.66 27.4744H308.766C308.979 26.8895 309.192 26.2869 309.404 25.6665C309.635 25.0284 309.856 24.4081 310.069 23.8054L312.94 15.8028H314.137L309.404 28.5645H308.022ZM321.73 28.8835C320.649 28.8835 319.656 28.6176 318.752 28.0859C317.866 27.5542 317.157 26.792 316.625 25.7994C316.093 24.7891 315.828 23.5927 315.828 22.2102C315.828 20.81 316.093 19.6136 316.625 18.621C317.157 17.6107 317.848 16.8397 318.699 16.308C319.55 15.7585 320.445 15.4838 321.384 15.4838C322.908 15.4838 324.105 15.9978 324.973 17.0258C325.842 18.0538 326.276 19.5073 326.276 21.386C326.276 21.5456 326.267 21.7051 326.249 21.8646C326.249 22.0241 326.232 22.1836 326.196 22.3432H317.024C317.042 23.4066 317.245 24.3549 317.635 25.1879C318.043 26.021 318.601 26.6768 319.31 27.1554C320.037 27.6339 320.879 27.8732 321.836 27.8732C322.527 27.8732 323.148 27.7669 323.697 27.5542C324.264 27.3415 324.787 27.0667 325.266 26.73L325.744 27.6339C325.248 27.9352 324.69 28.2188 324.069 28.4847C323.449 28.7506 322.669 28.8835 321.73 28.8835ZM317.024 21.386H325.159C325.159 19.7554 324.823 18.5324 324.149 17.7171C323.476 16.9018 322.563 16.4941 321.411 16.4941C320.684 16.4941 320.002 16.6891 319.364 17.079C318.743 17.4689 318.22 18.0273 317.795 18.754C317.37 19.4807 317.113 20.358 317.024 21.386ZM335.198 28.5645V11.0438H339.612C341.597 11.0438 343.148 11.4072 344.264 12.1339C345.399 12.8606 345.966 14.1279 345.966 15.9358C345.966 17.655 345.408 18.9401 344.291 19.7908C343.192 20.6239 341.668 21.0404 339.718 21.0404H336.421V28.5645H335.198ZM336.421 20.0035H339.426C341.216 20.0035 342.545 19.6845 343.414 19.0464C344.282 18.4083 344.716 17.3715 344.716 15.9358C344.716 14.4646 344.264 13.4543 343.361 12.9049C342.474 12.3554 341.127 12.0807 339.319 12.0807H336.421V20.0035ZM353.635 28.8835C352.624 28.8835 351.685 28.6265 350.816 28.1125C349.948 27.5807 349.248 26.8186 348.716 25.826C348.184 24.8157 347.918 23.6105 347.918 22.2102C347.918 20.7746 348.184 19.5604 348.716 18.5679C349.248 17.5576 349.948 16.7954 350.816 16.2814C351.685 15.7497 352.624 15.4838 353.635 15.4838C354.663 15.4838 355.611 15.7497 356.479 16.2814C357.348 16.7954 358.048 17.5576 358.58 18.5679C359.111 19.5604 359.377 20.7746 359.377 22.2102C359.377 23.6105 359.111 24.8157 358.58 25.826C358.048 26.8186 357.348 27.5807 356.479 28.1125C355.611 28.6265 354.663 28.8835 353.635 28.8835ZM353.635 27.8466C354.503 27.8466 355.274 27.6073 355.948 27.1288C356.621 26.6502 357.153 25.9944 357.543 25.1614C357.951 24.3106 358.154 23.3269 358.154 22.2102C358.154 21.0759 357.951 20.0833 357.543 19.2325C357.153 18.3818 356.621 17.7171 355.948 17.2385C355.274 16.76 354.503 16.5207 353.635 16.5207C352.784 16.5207 352.013 16.76 351.322 17.2385C350.648 17.7171 350.116 18.3818 349.726 19.2325C349.336 20.0833 349.141 21.0759 349.141 22.2102C349.141 23.3269 349.336 24.3106 349.726 25.1614C350.116 25.9944 350.648 26.6502 351.322 27.1288C352.013 27.6073 352.784 27.8466 353.635 27.8466ZM363.21 28.5645V15.8028H364.22L364.327 18.1691H364.406C364.832 17.3892 365.346 16.7511 365.948 16.2548C366.569 15.7408 367.26 15.4838 368.022 15.4838C368.27 15.4838 368.492 15.5015 368.687 15.537C368.882 15.5724 369.086 15.6433 369.298 15.7497L369.032 16.8131C368.82 16.7245 368.634 16.6713 368.474 16.6536C368.315 16.6182 368.111 16.6004 367.863 16.6004C367.295 16.6004 366.693 16.8486 366.055 17.3449C365.434 17.8234 364.876 18.6653 364.38 19.8706V28.5645H363.21ZM375.131 28.8835C373.89 28.8835 373.048 28.529 372.605 27.82C372.162 27.0933 371.941 26.1628 371.941 25.0284V16.8131H369.947V15.9092L371.967 15.8028L372.127 12.1073H373.137V15.8028H376.833V16.8131H373.137V25.1348C373.137 25.9501 373.279 26.6059 373.562 27.1022C373.846 27.5985 374.422 27.8466 375.291 27.8466C375.539 27.8466 375.805 27.8112 376.088 27.7403C376.389 27.6516 376.655 27.5542 376.886 27.4478L377.205 28.4049C376.833 28.529 376.451 28.6354 376.062 28.724C375.689 28.8303 375.379 28.8835 375.131 28.8835ZM382.125 28.8835C381.115 28.8835 380.246 28.5999 379.519 28.0327C378.793 27.4655 378.429 26.5793 378.429 25.3741C378.429 23.9561 379.094 22.8838 380.423 22.1571C381.753 21.4126 383.835 20.8809 386.671 20.5619C386.689 19.9061 386.618 19.2768 386.459 18.6742C386.299 18.0538 385.998 17.5398 385.555 17.1322C385.129 16.7245 384.491 16.5207 383.64 16.5207C382.79 16.5207 382.01 16.6891 381.301 17.0258C380.592 17.3626 380.016 17.6905 379.573 18.0095L379.041 17.1322C379.342 16.9195 379.732 16.6891 380.211 16.4409C380.689 16.1751 381.23 15.9535 381.833 15.7763C382.453 15.5813 383.109 15.4838 383.8 15.4838C384.81 15.4838 385.608 15.7054 386.193 16.1485C386.778 16.5916 387.194 17.1853 387.442 17.9298C387.708 18.6565 387.841 19.4807 387.841 20.4023V28.5645H386.831L386.724 26.9161H386.645C385.989 27.4301 385.28 27.8909 384.518 28.2986C383.756 28.6885 382.958 28.8835 382.125 28.8835ZM382.338 27.8732C383.064 27.8732 383.764 27.696 384.438 27.3415C385.129 26.987 385.874 26.473 386.671 25.7994V21.4658C384.917 21.6785 383.525 21.9532 382.497 22.29C381.469 22.6268 380.734 23.0521 380.29 23.5662C379.847 24.0624 379.626 24.6473 379.626 25.3209C379.626 26.2425 379.892 26.8984 380.423 27.2883C380.973 27.6782 381.611 27.8732 382.338 27.8732ZM393.962 28.8835C392.916 28.8835 392.393 28.21 392.393 26.8629V9.44862H393.563V27.0224C393.563 27.5719 393.749 27.8466 394.121 27.8466C394.174 27.8466 394.236 27.8466 394.307 27.8466C394.378 27.8289 394.476 27.8112 394.6 27.7934L394.812 28.7506C394.688 28.786 394.564 28.8126 394.44 28.8303C394.316 28.8658 394.157 28.8835 393.962 28.8835Z" fill="#1B1B1B"/>
<defs>
<clipPath id="clip0_4600_379638">
<rect width="38.6772" height="39.1288" fill="white" transform="translate(0.818359)"/>
</clipPath>
<clipPath id="clip1_4600_379638">
<rect width="175.444" height="39.0553" fill="white" transform="translate(0.818359)"/>
</clipPath>
</defs>
</svg>
