<svg width="429" height="40" viewBox="0 0 429 40" fill="none" xmlns="http://www.w3.org/2000/svg">
<g clip-path="url(#clip0_4364_199689)">
<g clip-path="url(#clip1_4364_199689)">
<mask id="mask0_4364_199689" style="mask-type:luminance" maskUnits="userSpaceOnUse" x="16" y="0" width="176" height="40">
<path d="M191.413 0.435547H16V39.4908H191.413V0.435547Z" fill="white"/>
</mask>
<g mask="url(#mask0_4364_199689)">
<path d="M54.7948 5.92871H54.4492V34.1438H54.7948V5.92871Z" fill="#231F20"/>
</g>
<mask id="mask1_4364_199689" style="mask-type:luminance" maskUnits="userSpaceOnUse" x="16" y="0" width="176" height="40">
<path d="M191.413 0.435547H16V39.4908H191.413V0.435547Z" fill="white"/>
</mask>
<g mask="url(#mask1_4364_199689)">
<path d="M21.9844 29.0358L16 9.95508H20.6267L22.8983 18.023C23.5361 20.3164 24.1181 22.4673 24.5608 24.8459H24.6433C25.1151 22.5515 25.6968 20.2876 26.3343 18.1083L28.7171 9.95508H33.2048L26.9159 29.0358H21.9844Z" fill="#231F20"/>
</g>
<mask id="mask2_4364_199689" style="mask-type:luminance" maskUnits="userSpaceOnUse" x="16" y="0" width="176" height="40">
<path d="M191.413 0.435547H16V39.4908H191.413V0.435547Z" fill="white"/>
</mask>
<g mask="url(#mask2_4364_199689)">
<path d="M35.8354 24.1385L34.5061 29.036H30.1562L35.8354 9.95605H41.3767L47.1948 29.036H42.6235L41.1827 24.1385H35.8354ZM40.5737 20.9109L39.4096 16.8628C39.0784 15.731 38.7448 14.3154 38.468 13.1826H38.4126C38.1351 14.3154 37.8583 15.7591 37.5531 16.8628L36.4451 20.9109H40.5737Z" fill="#231F20"/>
</g>
</g>
</g>
<path d="M68.3167 18.6844L67.2 21.9545H73.4213L72.3047 18.6844C71.9502 17.6386 71.6134 16.6372 71.2944 15.6801C70.9753 14.7229 70.6651 13.7038 70.3638 12.6226H70.2575C69.9562 13.7038 69.646 14.7229 69.327 15.6801C69.0079 16.6372 68.6711 17.6386 68.3167 18.6844ZM63.5311 29L69.6992 11.4794H70.9222L77.0903 29H75.8141L73.7669 22.9914H66.8278L64.754 29H63.5311ZM84.4911 29.319C83.3922 29.319 82.3996 29.062 81.5134 28.548C80.6449 28.0163 79.9537 27.2541 79.4397 26.2616C78.9434 25.2513 78.6952 24.046 78.6952 22.6458C78.6952 21.2101 78.9611 19.996 79.4928 19.0034C80.0423 17.9931 80.7601 17.231 81.6464 16.7169C82.5326 16.1852 83.4897 15.9193 84.5177 15.9193C85.4039 15.9193 86.1395 16.0789 86.7244 16.3979C87.3093 16.7169 87.8233 17.0803 88.2664 17.488L87.5752 18.3121C87.1675 17.9222 86.7155 17.6032 86.2193 17.355C85.723 17.0892 85.1647 16.9562 84.5443 16.9562C83.6758 16.9562 82.8871 17.1955 82.1781 17.6741C81.4868 18.1526 80.9374 18.8173 80.5297 19.6681C80.122 20.5188 79.9182 21.5114 79.9182 22.6458C79.9182 23.7624 80.1043 24.7461 80.4765 25.5969C80.8665 26.43 81.4071 27.0858 82.0983 27.5643C82.8073 28.0429 83.6226 28.2822 84.5443 28.2822C85.2178 28.2822 85.8382 28.1404 86.4054 27.8568C86.9903 27.5555 87.5043 27.2098 87.9474 26.8199L88.5589 27.6441C88.0094 28.1226 87.3979 28.5214 86.7244 28.8405C86.0509 29.1595 85.3065 29.319 84.4911 29.319ZM95.993 29.319C94.8941 29.319 93.9015 29.062 93.0153 28.548C92.1468 28.0163 91.4555 27.2541 90.9415 26.2616C90.4452 25.2513 90.1971 24.046 90.1971 22.6458C90.1971 21.2101 90.463 19.996 90.9947 19.0034C91.5441 17.9931 92.262 17.231 93.1482 16.7169C94.0344 16.1852 94.9916 15.9193 96.0196 15.9193C96.9058 15.9193 97.6414 16.0789 98.2263 16.3979C98.8112 16.7169 99.3252 17.0803 99.7683 17.488L99.077 18.3121C98.6694 17.9222 98.2174 17.6032 97.7211 17.355C97.2248 17.0892 96.6665 16.9562 96.0462 16.9562C95.1777 16.9562 94.3889 17.1955 93.6799 17.6741C92.9887 18.1526 92.4392 18.8173 92.0316 19.6681C91.6239 20.5188 91.4201 21.5114 91.4201 22.6458C91.4201 23.7624 91.6062 24.7461 91.9784 25.5969C92.3683 26.43 92.9089 27.0858 93.6002 27.5643C94.3092 28.0429 95.1245 28.2822 96.0462 28.2822C96.7197 28.2822 97.34 28.1404 97.9072 27.8568C98.4921 27.5555 99.0061 27.2098 99.4493 26.8199L100.061 27.6441C99.5113 28.1226 98.8998 28.5214 98.2263 28.8405C97.5527 29.1595 96.8083 29.319 95.993 29.319ZM103.204 29V16.2384H104.214L104.32 18.6046H104.4C104.826 17.8247 105.34 17.1866 105.942 16.6904C106.563 16.1764 107.254 15.9193 108.016 15.9193C108.264 15.9193 108.486 15.9371 108.681 15.9725C108.876 16.008 109.079 16.0789 109.292 16.1852L109.026 17.2487C108.814 17.1601 108.627 17.1069 108.468 17.0892C108.308 17.0537 108.105 17.036 107.856 17.036C107.289 17.036 106.687 17.2841 106.049 17.7804C105.428 18.259 104.87 19.1009 104.374 20.3062V29H103.204ZM116.221 29.319C115.14 29.319 114.147 29.0532 113.243 28.5214C112.357 27.9897 111.648 27.2276 111.116 26.235C110.585 25.2247 110.319 24.0283 110.319 22.6458C110.319 21.2455 110.585 20.0491 111.116 19.0566C111.648 18.0463 112.339 17.2753 113.19 16.7435C114.041 16.1941 114.936 15.9193 115.875 15.9193C117.4 15.9193 118.596 16.4334 119.465 17.4614C120.333 18.4894 120.767 19.9428 120.767 21.8216C120.767 21.9811 120.759 22.1406 120.741 22.3002C120.741 22.4597 120.723 22.6192 120.688 22.7787H111.515C111.533 23.8422 111.737 24.7904 112.127 25.6235C112.534 26.4565 113.093 27.1123 113.802 27.5909C114.528 28.0695 115.37 28.3087 116.327 28.3087C117.019 28.3087 117.639 28.2024 118.189 27.9897C118.756 27.777 119.279 27.5023 119.757 27.1655L120.236 28.0695C119.739 28.3708 119.181 28.6544 118.561 28.9202C117.94 29.1861 117.16 29.319 116.221 29.319ZM111.515 21.8216H119.651C119.651 20.1909 119.314 18.968 118.64 18.1526C117.967 17.3373 117.054 16.9296 115.902 16.9296C115.175 16.9296 114.493 17.1246 113.855 17.5145C113.235 17.9045 112.712 18.4628 112.286 19.1895C111.861 19.9162 111.604 20.7936 111.515 21.8216ZM128.462 29.319C126.849 29.319 125.564 28.743 124.606 27.5909C123.649 26.4388 123.171 24.7904 123.171 22.6458C123.171 21.2633 123.428 20.0757 123.942 19.0832C124.474 18.0729 125.165 17.293 126.016 16.7435C126.884 16.1941 127.823 15.9193 128.834 15.9193C129.614 15.9193 130.287 16.0611 130.854 16.3447C131.439 16.6106 132.051 16.9917 132.689 17.488L132.636 15.1483V9.88417H133.805V29H132.795L132.689 27.3516H132.609C132.095 27.8656 131.484 28.3265 130.775 28.7341C130.083 29.1241 129.312 29.319 128.462 29.319ZM128.621 28.2822C129.33 28.2822 130.004 28.1049 130.642 27.7504C131.297 27.3782 131.962 26.8553 132.636 26.1818V18.6046C131.962 18.002 131.324 17.5766 130.721 17.3284C130.137 17.0803 129.534 16.9562 128.914 16.9562C128.063 16.9562 127.301 17.2132 126.627 17.7272C125.954 18.2235 125.413 18.8971 125.005 19.7478C124.615 20.5986 124.42 21.5646 124.42 22.6458C124.42 24.3296 124.784 25.6944 125.51 26.7401C126.237 27.7681 127.274 28.2822 128.621 28.2822ZM138.696 29V16.2384H139.866V29H138.696ZM139.307 13.1543C139.024 13.1543 138.785 13.0568 138.59 12.8619C138.395 12.6669 138.297 12.401 138.297 12.0643C138.297 11.763 138.395 11.5148 138.59 11.3198C138.785 11.1249 139.024 11.0274 139.307 11.0274C139.609 11.0274 139.848 11.1249 140.025 11.3198C140.22 11.5148 140.318 11.763 140.318 12.0643C140.318 12.401 140.22 12.6669 140.025 12.8619C139.848 13.0568 139.609 13.1543 139.307 13.1543ZM148.254 29.319C147.014 29.319 146.172 28.9646 145.729 28.2556C145.285 27.5289 145.064 26.5983 145.064 25.464V17.2487H143.07V16.3447L145.091 16.2384L145.25 12.5428H146.26V16.2384H149.956V17.2487H146.26V25.5703C146.26 26.3856 146.402 27.0414 146.686 27.5377C146.969 28.034 147.545 28.2822 148.414 28.2822C148.662 28.2822 148.928 28.2467 149.211 28.1758C149.513 28.0872 149.779 27.9897 150.009 27.8834L150.328 28.8405C149.956 28.9646 149.575 29.0709 149.185 29.1595C148.813 29.2659 148.502 29.319 148.254 29.319ZM157.607 29.319C156.526 29.319 155.533 29.0532 154.629 28.5214C153.743 27.9897 153.034 27.2276 152.502 26.235C151.971 25.2247 151.705 24.0283 151.705 22.6458C151.705 21.2455 151.971 20.0491 152.502 19.0566C153.034 18.0463 153.725 17.2753 154.576 16.7435C155.427 16.1941 156.322 15.9193 157.261 15.9193C158.786 15.9193 159.982 16.4334 160.851 17.4614C161.719 18.4894 162.153 19.9428 162.153 21.8216C162.153 21.9811 162.144 22.1406 162.127 22.3002C162.127 22.4597 162.109 22.6192 162.074 22.7787H152.901C152.919 23.8422 153.123 24.7904 153.513 25.6235C153.92 26.4565 154.479 27.1123 155.188 27.5909C155.914 28.0695 156.756 28.3087 157.713 28.3087C158.405 28.3087 159.025 28.2024 159.574 27.9897C160.142 27.777 160.664 27.5023 161.143 27.1655L161.622 28.0695C161.125 28.3708 160.567 28.6544 159.947 28.9202C159.326 29.1861 158.546 29.319 157.607 29.319ZM152.901 21.8216H161.037C161.037 20.1909 160.7 18.968 160.026 18.1526C159.353 17.3373 158.44 16.9296 157.288 16.9296C156.561 16.9296 155.879 17.1246 155.241 17.5145C154.62 17.9045 154.098 18.4628 153.672 19.1895C153.247 19.9162 152.99 20.7936 152.901 21.8216ZM169.847 29.319C168.235 29.319 166.95 28.743 165.992 27.5909C165.035 26.4388 164.557 24.7904 164.557 22.6458C164.557 21.2633 164.814 20.0757 165.328 19.0832C165.859 18.0729 166.551 17.293 167.402 16.7435C168.27 16.1941 169.209 15.9193 170.22 15.9193C171 15.9193 171.673 16.0611 172.24 16.3447C172.825 16.6106 173.437 16.9917 174.075 17.488L174.022 15.1483V9.88417H175.191V29H174.181L174.075 27.3516H173.995C173.481 27.8656 172.87 28.3265 172.161 28.7341C171.469 29.1241 170.698 29.319 169.847 29.319ZM170.007 28.2822C170.716 28.2822 171.39 28.1049 172.028 27.7504C172.683 27.3782 173.348 26.8553 174.022 26.1818V18.6046C173.348 18.002 172.71 17.5766 172.107 17.3284C171.522 17.0803 170.92 16.9562 170.299 16.9562C169.449 16.9562 168.687 17.2132 168.013 17.7272C167.339 18.2235 166.799 18.8971 166.391 19.7478C166.001 20.5986 165.806 21.5646 165.806 22.6458C165.806 24.3296 166.17 25.6944 166.896 26.7401C167.623 27.7681 168.66 28.2822 170.007 28.2822ZM185.537 29V11.4794H190.562C192.299 11.4794 193.691 11.8339 194.736 12.5428C195.782 13.2341 196.305 14.4216 196.305 16.1055C196.305 17.5057 195.897 18.6046 195.082 19.4022C194.284 20.1998 193.194 20.6872 191.812 20.8645L196.651 29H195.242L190.482 20.9442H186.76V29H185.537ZM186.76 19.9339H190.243C191.785 19.9339 192.973 19.6238 193.806 19.0034C194.639 18.3653 195.055 17.3993 195.055 16.1055C195.055 14.7938 194.639 13.8722 193.806 13.3404C192.973 12.791 191.785 12.5163 190.243 12.5163H186.76V19.9339ZM204.445 29.319C203.364 29.319 202.372 29.0532 201.468 28.5214C200.581 27.9897 199.872 27.2276 199.341 26.235C198.809 25.2247 198.543 24.0283 198.543 22.6458C198.543 21.2455 198.809 20.0491 199.341 19.0566C199.872 18.0463 200.564 17.2753 201.414 16.7435C202.265 16.1941 203.16 15.9193 204.1 15.9193C205.624 15.9193 206.82 16.4334 207.689 17.4614C208.557 18.4894 208.992 19.9428 208.992 21.8216C208.992 21.9811 208.983 22.1406 208.965 22.3002C208.965 22.4597 208.947 22.6192 208.912 22.7787H199.739C199.757 23.8422 199.961 24.7904 200.351 25.6235C200.759 26.4565 201.317 27.1123 202.026 27.5909C202.753 28.0695 203.595 28.3087 204.552 28.3087C205.243 28.3087 205.863 28.2024 206.413 27.9897C206.98 27.777 207.503 27.5023 207.981 27.1655L208.46 28.0695C207.964 28.3708 207.405 28.6544 206.785 28.9202C206.165 29.1861 205.385 29.319 204.445 29.319ZM199.739 21.8216H207.875C207.875 20.1909 207.538 18.968 206.865 18.1526C206.191 17.3373 205.278 16.9296 204.126 16.9296C203.4 16.9296 202.717 17.1246 202.079 17.5145C201.459 17.9045 200.936 18.4628 200.51 19.1895C200.085 19.9162 199.828 20.7936 199.739 21.8216ZM212.458 34.7693V16.2384H213.469L213.575 17.8336H213.655C214.275 17.3373 214.958 16.8942 215.702 16.5043C216.446 16.1143 217.209 15.9193 217.989 15.9193C219.69 15.9193 220.966 16.5131 221.817 17.7007C222.668 18.8705 223.093 20.4479 223.093 22.4331C223.093 23.8688 222.827 25.1006 222.296 26.1286C221.782 27.1567 221.099 27.9454 220.248 28.4949C219.398 29.0443 218.467 29.319 217.457 29.319C216.854 29.319 216.234 29.1861 215.596 28.9202C214.958 28.6366 214.302 28.2467 213.628 27.7504V34.7693H212.458ZM217.404 28.2822C218.272 28.2822 219.034 28.034 219.69 27.5377C220.364 27.0414 220.886 26.3591 221.259 25.4906C221.649 24.6043 221.844 23.5852 221.844 22.4331C221.844 21.3873 221.711 20.4568 221.445 19.6415C221.179 18.8084 220.745 18.1526 220.142 17.6741C219.557 17.1955 218.777 16.9562 217.802 16.9562C217.164 16.9562 216.5 17.1423 215.808 17.5145C215.135 17.869 214.408 18.383 213.628 19.0566V26.6338C214.355 27.2364 215.037 27.6618 215.675 27.9099C216.331 28.1581 216.907 28.2822 217.404 28.2822ZM226.92 29V16.2384H227.93L228.037 18.6046H228.117C228.542 17.8247 229.056 17.1866 229.659 16.6904C230.279 16.1764 230.97 15.9193 231.732 15.9193C231.981 15.9193 232.202 15.9371 232.397 15.9725C232.592 16.008 232.796 16.0789 233.009 16.1852L232.743 17.2487C232.53 17.1601 232.344 17.1069 232.184 17.0892C232.025 17.0537 231.821 17.036 231.573 17.036C231.006 17.036 230.403 17.2841 229.765 17.7804C229.145 18.259 228.586 19.1009 228.09 20.3062V29H226.92ZM239.937 29.319C238.856 29.319 237.864 29.0532 236.96 28.5214C236.074 27.9897 235.365 27.2276 234.833 26.235C234.301 25.2247 234.035 24.0283 234.035 22.6458C234.035 21.2455 234.301 20.0491 234.833 19.0566C235.365 18.0463 236.056 17.2753 236.907 16.7435C237.757 16.1941 238.652 15.9193 239.592 15.9193C241.116 15.9193 242.313 16.4334 243.181 17.4614C244.05 18.4894 244.484 19.9428 244.484 21.8216C244.484 21.9811 244.475 22.1406 244.457 22.3002C244.457 22.4597 244.44 22.6192 244.404 22.7787H235.232C235.249 23.8422 235.453 24.7904 235.843 25.6235C236.251 26.4565 236.809 27.1123 237.518 27.5909C238.245 28.0695 239.087 28.3087 240.044 28.3087C240.735 28.3087 241.355 28.2024 241.905 27.9897C242.472 27.777 242.995 27.5023 243.474 27.1655L243.952 28.0695C243.456 28.3708 242.897 28.6544 242.277 28.9202C241.657 29.1861 240.877 29.319 239.937 29.319ZM235.232 21.8216H243.367C243.367 20.1909 243.03 18.968 242.357 18.1526C241.683 17.3373 240.771 16.9296 239.618 16.9296C238.892 16.9296 238.209 17.1246 237.571 17.5145C236.951 17.9045 236.428 18.4628 236.003 19.1895C235.577 19.9162 235.32 20.7936 235.232 21.8216ZM251.035 29.319C250.095 29.319 249.218 29.1507 248.403 28.8139C247.605 28.4594 246.923 28.0429 246.355 27.5643L247.047 26.687C247.596 27.1301 248.181 27.5111 248.801 27.8302C249.422 28.1492 250.193 28.3087 251.114 28.3087C252.107 28.3087 252.86 28.0606 253.374 27.5643C253.888 27.0503 254.145 26.4565 254.145 25.783C254.145 25.2513 253.986 24.8082 253.667 24.4537C253.348 24.0992 252.949 23.8067 252.47 23.5763C252.01 23.3459 251.531 23.1421 251.035 22.9648C250.397 22.7344 249.767 22.4774 249.147 22.1938C248.544 21.9102 248.048 21.5469 247.658 21.1038C247.268 20.6429 247.073 20.0491 247.073 19.3224C247.073 18.383 247.419 17.5854 248.11 16.9296C248.819 16.2561 249.838 15.9193 251.168 15.9193C251.859 15.9193 252.524 16.0434 253.162 16.2916C253.817 16.5397 254.376 16.8587 254.837 17.2487L254.199 18.0729C253.755 17.7538 253.295 17.488 252.816 17.2753C252.337 17.0449 251.779 16.9296 251.141 16.9296C250.149 16.9296 249.413 17.1689 248.934 17.6475C248.474 18.126 248.243 18.6578 248.243 19.2427C248.243 19.7212 248.376 20.12 248.642 20.4391C248.926 20.7581 249.289 21.024 249.732 21.2367C250.193 21.4317 250.671 21.6266 251.168 21.8216C251.841 22.0697 252.497 22.3356 253.135 22.6192C253.773 22.9028 254.296 23.2839 254.704 23.7624C255.129 24.241 255.342 24.8968 255.342 25.7298C255.342 26.3679 255.173 26.9617 254.837 27.5111C254.5 28.0429 254.012 28.4771 253.374 28.8139C252.736 29.1507 251.956 29.319 251.035 29.319ZM263.564 29.319C262.483 29.319 261.491 29.0532 260.587 28.5214C259.7 27.9897 258.991 27.2276 258.46 26.235C257.928 25.2247 257.662 24.0283 257.662 22.6458C257.662 21.2455 257.928 20.0491 258.46 19.0566C258.991 18.0463 259.683 17.2753 260.533 16.7435C261.384 16.1941 262.279 15.9193 263.219 15.9193C264.743 15.9193 265.939 16.4334 266.808 17.4614C267.676 18.4894 268.111 19.9428 268.111 21.8216C268.111 21.9811 268.102 22.1406 268.084 22.3002C268.084 22.4597 268.066 22.6192 268.031 22.7787H258.858C258.876 23.8422 259.08 24.7904 259.47 25.6235C259.878 26.4565 260.436 27.1123 261.145 27.5909C261.872 28.0695 262.714 28.3087 263.671 28.3087C264.362 28.3087 264.982 28.2024 265.532 27.9897C266.099 27.777 266.622 27.5023 267.1 27.1655L267.579 28.0695C267.083 28.3708 266.524 28.6544 265.904 28.9202C265.284 29.1861 264.504 29.319 263.564 29.319ZM258.858 21.8216H266.994C266.994 20.1909 266.657 18.968 265.984 18.1526C265.31 17.3373 264.397 16.9296 263.245 16.9296C262.519 16.9296 261.836 17.1246 261.198 17.5145C260.578 17.9045 260.055 18.4628 259.629 19.1895C259.204 19.9162 258.947 20.7936 258.858 21.8216ZM271.578 29V16.2384H272.588L272.694 18.2058H272.774C273.43 17.55 274.103 17.0094 274.795 16.584C275.503 16.1409 276.292 15.9193 277.161 15.9193C278.472 15.9193 279.438 16.327 280.059 17.1423C280.697 17.9399 281.016 19.1629 281.016 20.8113V29H279.846V20.9708C279.846 19.606 279.616 18.6046 279.155 17.9665C278.712 17.3107 277.967 16.9828 276.921 16.9828C276.159 16.9828 275.468 17.1866 274.848 17.5943C274.227 17.9842 273.527 18.578 272.747 19.3756V29H271.578ZM289.211 29.319C287.97 29.319 287.128 28.9646 286.685 28.2556C286.242 27.5289 286.02 26.5983 286.02 25.464V17.2487H284.026V16.3447L286.047 16.2384L286.206 12.5428H287.217V16.2384H290.912V17.2487H287.217V25.5703C287.217 26.3856 287.358 27.0414 287.642 27.5377C287.926 28.034 288.502 28.2822 289.37 28.2822C289.618 28.2822 289.884 28.2467 290.168 28.1758C290.469 28.0872 290.735 27.9897 290.965 27.8834L291.284 28.8405C290.912 28.9646 290.531 29.0709 290.141 29.1595C289.769 29.2659 289.459 29.319 289.211 29.319ZM296.204 29.319C295.194 29.319 294.326 29.0354 293.599 28.4683C292.872 27.9011 292.509 27.0149 292.509 25.8096C292.509 24.3916 293.174 23.3193 294.503 22.5926C295.832 21.8482 297.915 21.3164 300.751 20.9974C300.769 20.3416 300.698 19.7124 300.538 19.1098C300.379 18.4894 300.077 17.9754 299.634 17.5677C299.209 17.1601 298.571 16.9562 297.72 16.9562C296.869 16.9562 296.089 17.1246 295.38 17.4614C294.671 17.7981 294.095 18.126 293.652 18.4451L293.12 17.5677C293.422 17.355 293.812 17.1246 294.29 16.8765C294.769 16.6106 295.309 16.389 295.912 16.2118C296.532 16.0168 297.188 15.9193 297.879 15.9193C298.89 15.9193 299.687 16.1409 300.272 16.584C300.857 17.0271 301.274 17.6209 301.522 18.3653C301.788 19.092 301.921 19.9162 301.921 20.8379V29H300.91L300.804 27.3516H300.724C300.068 27.8656 299.359 28.3265 298.597 28.7341C297.835 29.1241 297.038 29.319 296.204 29.319ZM296.417 28.3087C297.144 28.3087 297.844 28.1315 298.518 27.777C299.209 27.4225 299.953 26.9085 300.751 26.235V21.9014C298.996 22.114 297.605 22.3888 296.577 22.7255C295.549 23.0623 294.813 23.4877 294.37 24.0017C293.927 24.498 293.705 25.0829 293.705 25.7564C293.705 26.6781 293.971 27.3339 294.503 27.7238C295.052 28.1138 295.69 28.3087 296.417 28.3087ZM309.67 29.319C308.429 29.319 307.587 28.9646 307.144 28.2556C306.701 27.5289 306.479 26.5983 306.479 25.464V17.2487H304.485V16.3447L306.506 16.2384L306.666 12.5428H307.676V16.2384H311.371V17.2487H307.676V25.5703C307.676 26.3856 307.818 27.0414 308.101 27.5377C308.385 28.034 308.961 28.2822 309.829 28.2822C310.077 28.2822 310.343 28.2467 310.627 28.1758C310.928 28.0872 311.194 27.9897 311.425 27.8834L311.744 28.8405C311.371 28.9646 310.99 29.0709 310.6 29.1595C310.228 29.2659 309.918 29.319 309.67 29.319ZM314.469 29V16.2384H315.639V29H314.469ZM315.081 13.1543C314.797 13.1543 314.558 13.0568 314.363 12.8619C314.168 12.6669 314.071 12.401 314.071 12.0643C314.071 11.763 314.168 11.5148 314.363 11.3198C314.558 11.1249 314.797 11.0274 315.081 11.0274C315.382 11.0274 315.621 11.1249 315.799 11.3198C315.994 11.5148 316.091 11.763 316.091 12.0643C316.091 12.401 315.994 12.6669 315.799 12.8619C315.621 13.0568 315.382 13.1543 315.081 13.1543ZM323.203 29L318.418 16.2384H319.694L322.565 24.241C322.76 24.8436 322.973 25.464 323.203 26.1021C323.434 26.7224 323.647 27.325 323.842 27.9099H323.948C324.161 27.325 324.373 26.7224 324.586 26.1021C324.816 25.464 325.038 24.8436 325.251 24.241L328.122 16.2384H329.318L324.586 29H323.203ZM336.911 29.319C335.83 29.319 334.838 29.0532 333.934 28.5214C333.047 27.9897 332.338 27.2276 331.807 26.235C331.275 25.2247 331.009 24.0283 331.009 22.6458C331.009 21.2455 331.275 20.0491 331.807 19.0566C332.338 18.0463 333.03 17.2753 333.881 16.7435C334.731 16.1941 335.626 15.9193 336.566 15.9193C338.09 15.9193 339.286 16.4334 340.155 17.4614C341.023 18.4894 341.458 19.9428 341.458 21.8216C341.458 21.9811 341.449 22.1406 341.431 22.3002C341.431 22.4597 341.413 22.6192 341.378 22.7787H332.206C332.223 23.8422 332.427 24.7904 332.817 25.6235C333.225 26.4565 333.783 27.1123 334.492 27.5909C335.219 28.0695 336.061 28.3087 337.018 28.3087C337.709 28.3087 338.329 28.2024 338.879 27.9897C339.446 27.777 339.969 27.5023 340.447 27.1655L340.926 28.0695C340.43 28.3708 339.871 28.6544 339.251 28.9202C338.631 29.1861 337.851 29.319 336.911 29.319ZM332.206 21.8216H340.341C340.341 20.1909 340.004 18.968 339.331 18.1526C338.657 17.3373 337.744 16.9296 336.592 16.9296C335.866 16.9296 335.183 17.1246 334.545 17.5145C333.925 17.9045 333.402 18.4628 332.977 19.1895C332.551 19.9162 332.294 20.7936 332.206 21.8216ZM350.38 29V11.4794H354.793C356.779 11.4794 358.329 11.8427 359.446 12.5694C360.58 13.2961 361.148 14.5634 361.148 16.3713C361.148 18.0906 360.589 19.3756 359.473 20.2264C358.374 21.0594 356.849 21.476 354.9 21.476H351.603V29H350.38ZM351.603 20.4391H354.607C356.398 20.4391 357.727 20.12 358.595 19.482C359.464 18.8439 359.898 17.807 359.898 16.3713C359.898 14.9002 359.446 13.8899 358.542 13.3404C357.656 12.791 356.309 12.5163 354.501 12.5163H351.603V20.4391ZM368.816 29.319C367.806 29.319 366.867 29.062 365.998 28.548C365.13 28.0163 364.429 27.2541 363.898 26.2616C363.366 25.2513 363.1 24.046 363.1 22.6458C363.1 21.2101 363.366 19.996 363.898 19.0034C364.429 17.9931 365.13 17.231 365.998 16.7169C366.867 16.1852 367.806 15.9193 368.816 15.9193C369.844 15.9193 370.793 16.1852 371.661 16.7169C372.53 17.231 373.23 17.9931 373.761 19.0034C374.293 19.996 374.559 21.2101 374.559 22.6458C374.559 24.046 374.293 25.2513 373.761 26.2616C373.23 27.2541 372.53 28.0163 371.661 28.548C370.793 29.062 369.844 29.319 368.816 29.319ZM368.816 28.2822C369.685 28.2822 370.456 28.0429 371.129 27.5643C371.803 27.0858 372.335 26.43 372.725 25.5969C373.132 24.7461 373.336 23.7624 373.336 22.6458C373.336 21.5114 373.132 20.5188 372.725 19.6681C372.335 18.8173 371.803 18.1526 371.129 17.6741C370.456 17.1955 369.685 16.9562 368.816 16.9562C367.965 16.9562 367.194 17.1955 366.503 17.6741C365.83 18.1526 365.298 18.8173 364.908 19.6681C364.518 20.5188 364.323 21.5114 364.323 22.6458C364.323 23.7624 364.518 24.7461 364.908 25.5969C365.298 26.43 365.83 27.0858 366.503 27.5643C367.194 28.0429 367.965 28.2822 368.816 28.2822ZM378.392 29V16.2384H379.402L379.508 18.6046H379.588C380.013 17.8247 380.527 17.1866 381.13 16.6904C381.75 16.1764 382.442 15.9193 383.204 15.9193C383.452 15.9193 383.674 15.9371 383.868 15.9725C384.063 16.008 384.267 16.0789 384.48 16.1852L384.214 17.2487C384.001 17.1601 383.815 17.1069 383.656 17.0892C383.496 17.0537 383.292 17.036 383.044 17.036C382.477 17.036 381.874 17.2841 381.236 17.7804C380.616 18.259 380.058 19.1009 379.561 20.3062V29H378.392ZM390.313 29.319C389.072 29.319 388.23 28.9646 387.787 28.2556C387.344 27.5289 387.122 26.5983 387.122 25.464V17.2487H385.128V16.3447L387.149 16.2384L387.308 12.5428H388.319V16.2384H392.014V17.2487H388.319V25.5703C388.319 26.3856 388.46 27.0414 388.744 27.5377C389.028 28.034 389.604 28.2822 390.472 28.2822C390.72 28.2822 390.986 28.2467 391.27 28.1758C391.571 28.0872 391.837 27.9897 392.067 27.8834L392.386 28.8405C392.014 28.9646 391.633 29.0709 391.243 29.1595C390.871 29.2659 390.561 29.319 390.313 29.319ZM397.307 29.319C396.296 29.319 395.428 29.0354 394.701 28.4683C393.974 27.9011 393.611 27.0149 393.611 25.8096C393.611 24.3916 394.276 23.3193 395.605 22.5926C396.934 21.8482 399.017 21.3164 401.853 20.9974C401.871 20.3416 401.8 19.7124 401.64 19.1098C401.481 18.4894 401.179 17.9754 400.736 17.5677C400.311 17.1601 399.673 16.9562 398.822 16.9562C397.971 16.9562 397.191 17.1246 396.482 17.4614C395.773 17.7981 395.197 18.126 394.754 18.4451L394.223 17.5677C394.524 17.355 394.914 17.1246 395.392 16.8765C395.871 16.6106 396.412 16.389 397.014 16.2118C397.635 16.0168 398.29 15.9193 398.982 15.9193C399.992 15.9193 400.789 16.1409 401.374 16.584C401.959 17.0271 402.376 17.6209 402.624 18.3653C402.89 19.092 403.023 19.9162 403.023 20.8379V29H402.012L401.906 27.3516H401.826C401.171 27.8656 400.462 28.3265 399.699 28.7341C398.937 29.1241 398.14 29.319 397.307 29.319ZM397.519 28.3087C398.246 28.3087 398.946 28.1315 399.62 27.777C400.311 27.4225 401.055 26.9085 401.853 26.235V21.9014C400.098 22.114 398.707 22.3888 397.679 22.7255C396.651 23.0623 395.915 23.4877 395.472 24.0017C395.029 24.498 394.807 25.0829 394.807 25.7564C394.807 26.6781 395.073 27.3339 395.605 27.7238C396.155 28.1138 396.793 28.3087 397.519 28.3087ZM409.143 29.319C408.098 29.319 407.575 28.6455 407.575 27.2985V9.88417H408.744V27.458C408.744 28.0074 408.931 28.2822 409.303 28.2822C409.356 28.2822 409.418 28.2822 409.489 28.2822C409.56 28.2644 409.657 28.2467 409.781 28.229L409.994 29.1861C409.87 29.2216 409.746 29.2481 409.622 29.2659C409.498 29.3013 409.338 29.319 409.143 29.319Z" fill="#1B1B1B"/>
<defs>
<clipPath id="clip0_4364_199689">
<rect width="38.6772" height="39.1288" fill="white" transform="translate(16 0.435547)"/>
</clipPath>
<clipPath id="clip1_4364_199689">
<rect width="175.444" height="39.0553" fill="white" transform="translate(16 0.435547)"/>
</clipPath>
</defs>
</svg>
