<svg xmlns="http://www.w3.org/2000/svg" viewBox="0 0 108 86" width="108px" height="86px"><g fill="none" fill-rule="evenodd"><path fill="#fef0c8" d="M75 8h8v23h-8z"/><path d="M75 8v23h8V8h-8zm0-4h8c2.20914 0 4 1.79086 4 4v23c0 2.20914-1.79086 4-4 4h-8c-2.20914 0-4-1.79086-4-4V8c0-2.20914 1.79086-4 4-4z" fill="#454540" fill-rule="nonzero"/><path fill="#FFF" d="M22 31.52941L54 4l32 27.52941V82H22z"/><path d="M54 47c4.97056 0 9 4.02944 9 9v26H45V56c0-4.97056 4.02944-9 9-9z" fill="#ffe396"/><path d="M22 31.52941V82h64V31.52941L54 4 22 31.52941zm-2.60867-3.0323l32-27.52941c1.4998-1.29027 3.71754-1.29027 5.21734 0l32 27.52941C89.49195 29.257 90 30.36425 90 31.52941V82c0 2.20914-1.79086 4-4 4H22c-2.20914 0-4-1.79086-4-4V31.52941c0-1.16516.50805-2.27242 1.39133-3.0323z" fill="#454540" fill-rule="nonzero"/><path fill="#00A6D2" d="M8 38.7477L54 4l46 34.7477L96.18725 44 54 11.5798 11.81275 44z"/><path d="M8 38.7477L11.81275 44 54 11.5798 96.18725 44 100 38.7477 54 4 8 38.7477zm46-22.1232L14.2501 47.17164c-1.78557 1.37219-4.35147 1.00057-5.67438-.82182l-3.81275-5.2523c-1.28034-1.76376-.91303-4.22788.82604-5.54155l46-34.7477c1.42668-1.0777 3.3953-1.0777 4.82198 0l46 34.7477c1.73907 1.31367 2.10638 3.7778.82604 5.54155l-3.81275 5.2523c-1.32291 1.82239-3.8888 2.194-5.67438.82182L54 16.6245z" fill="#454540" fill-rule="nonzero"/><path d="M54 47c-4.97056 0-9 4.02944-9 9v26h18V56c0-4.97056-4.02944-9-9-9zm0-3c6.62742 0 12 5.37258 12 12v29H42V56c0-6.62742 5.37258-12 12-12z" fill="#454540" fill-rule="nonzero"/></g></svg>