<svg width="1000" height="503" viewBox="0 0 1000 503" fill="none" xmlns="http://www.w3.org/2000/svg">
<path d="M1000 0H0V500H1000V0Z" fill="white"/>
<path d="M999.5 0.5H0.5V399.5H999.5V0.5Z" fill="#F7F7F7" stroke="#C9C9C9"/>
<path d="M38.9795 74.3799L44.5459 63.6719H47.7393L40.3857 77.0459V85H37.5732V77.0459L30.2197 63.6719H33.4424L38.9795 74.3799ZM66.46 75.0244C66.46 77.1143 66.1084 78.9404 65.4053 80.5029C64.7021 82.0557 63.7061 83.2422 62.417 84.0625C61.1279 84.8828 59.624 85.293 57.9053 85.293C56.2256 85.293 54.7363 84.8828 53.4375 84.0625C52.1387 83.2324 51.1279 82.0557 50.4053 80.5322C49.6924 78.999 49.3262 77.2266 49.3066 75.2148V73.6768C49.3066 71.626 49.6631 69.8145 50.376 68.2422C51.0889 66.6699 52.0947 65.4688 53.3936 64.6387C54.7021 63.7988 56.1963 63.3789 57.876 63.3789C59.585 63.3789 61.0889 63.7939 62.3877 64.624C63.6963 65.4443 64.7021 66.6406 65.4053 68.2129C66.1084 69.7754 66.46 71.5967 66.46 73.6768V75.0244ZM63.6621 73.6475C63.6621 71.1182 63.1543 69.1797 62.1387 67.832C61.123 66.4746 59.7021 65.7959 57.876 65.7959C56.0986 65.7959 54.6973 66.4746 53.6719 67.832C52.6562 69.1797 52.1338 71.0547 52.1045 73.457V75.0244C52.1045 77.4756 52.6172 79.4043 53.6426 80.8105C54.6777 82.207 56.0986 82.9053 57.9053 82.9053C59.7217 82.9053 61.1279 82.2461 62.124 80.9277C63.1201 79.5996 63.6328 77.7002 63.6621 75.2295V73.6475ZM85.6934 63.6719V78.1738C85.6836 80.1855 85.0488 81.8311 83.7891 83.1104C82.5391 84.3896 80.8398 85.1074 78.6914 85.2637L77.9443 85.293C75.6104 85.293 73.75 84.6631 72.3633 83.4033C70.9766 82.1436 70.2734 80.4102 70.2539 78.2031V63.6719H73.0371V78.1152C73.0371 79.6582 73.4619 80.8594 74.3115 81.7188C75.1611 82.5684 76.3721 82.9932 77.9443 82.9932C79.5361 82.9932 80.752 82.5684 81.5918 81.7188C82.4414 80.8691 82.8662 79.6729 82.8662 78.1299V63.6719H85.6934ZM97.9541 76.3721H92.9443V85H90.1172V63.6719H97.1777C99.5801 63.6719 101.426 64.2188 102.715 65.3125C104.014 66.4062 104.663 67.998 104.663 70.0879C104.663 71.416 104.302 72.5732 103.579 73.5596C102.866 74.5459 101.87 75.2832 100.591 75.7715L105.601 84.8242V85H102.583L97.9541 76.3721ZM92.9443 74.0723H97.2656C98.6621 74.0723 99.7705 73.7109 100.591 72.9883C101.421 72.2656 101.836 71.2988 101.836 70.0879C101.836 68.7695 101.44 67.7588 100.649 67.0557C99.8682 66.3525 98.7354 65.9961 97.251 65.9863H92.9443V74.0723ZM132.451 85H129.624L118.887 68.5645V85H116.06V63.6719H118.887L129.653 80.1807V63.6719H132.451V85ZM149.487 79.4336H140.552L138.545 85H135.645L143.789 63.6719H146.25L154.409 85H151.523L149.487 79.4336ZM141.401 77.1191H148.652L145.02 67.1436L141.401 77.1191ZM160.913 63.6719L167.886 81.0742L174.858 63.6719H178.506V85H175.693V76.6943L175.957 67.7295L168.955 85H166.802L159.814 67.7734L160.093 76.6943V85H157.28V63.6719H160.913ZM195.527 75.1416H186.284V82.7002H197.021V85H183.472V63.6719H196.875V65.9863H186.284V72.8418H195.527V75.1416Z" fill="#3F3F3F"/>
<path d="M38.9795 112.38L44.5459 101.672H47.7393L40.3857 115.046V123H37.5732V115.046L30.2197 101.672H33.4424L38.9795 112.38ZM66.46 113.024C66.46 115.114 66.1084 116.94 65.4053 118.503C64.7021 120.056 63.7061 121.242 62.417 122.062C61.1279 122.883 59.624 123.293 57.9053 123.293C56.2256 123.293 54.7363 122.883 53.4375 122.062C52.1387 121.232 51.1279 120.056 50.4053 118.532C49.6924 116.999 49.3262 115.227 49.3066 113.215V111.677C49.3066 109.626 49.6631 107.814 50.376 106.242C51.0889 104.67 52.0947 103.469 53.3936 102.639C54.7021 101.799 56.1963 101.379 57.876 101.379C59.585 101.379 61.0889 101.794 62.3877 102.624C63.6963 103.444 64.7021 104.641 65.4053 106.213C66.1084 107.775 66.46 109.597 66.46 111.677V113.024ZM63.6621 111.647C63.6621 109.118 63.1543 107.18 62.1387 105.832C61.123 104.475 59.7021 103.796 57.876 103.796C56.0986 103.796 54.6973 104.475 53.6719 105.832C52.6562 107.18 52.1338 109.055 52.1045 111.457V113.024C52.1045 115.476 52.6172 117.404 53.6426 118.811C54.6777 120.207 56.0986 120.905 57.9053 120.905C59.7217 120.905 61.1279 120.246 62.124 118.928C63.1201 117.6 63.6328 115.7 63.6621 113.229V111.647ZM85.6934 101.672V116.174C85.6836 118.186 85.0488 119.831 83.7891 121.11C82.5391 122.39 80.8398 123.107 78.6914 123.264L77.9443 123.293C75.6104 123.293 73.75 122.663 72.3633 121.403C70.9766 120.144 70.2734 118.41 70.2539 116.203V101.672H73.0371V116.115C73.0371 117.658 73.4619 118.859 74.3115 119.719C75.1611 120.568 76.3721 120.993 77.9443 120.993C79.5361 120.993 80.752 120.568 81.5918 119.719C82.4414 118.869 82.8662 117.673 82.8662 116.13V101.672H85.6934ZM97.9541 114.372H92.9443V123H90.1172V101.672H97.1777C99.5801 101.672 101.426 102.219 102.715 103.312C104.014 104.406 104.663 105.998 104.663 108.088C104.663 109.416 104.302 110.573 103.579 111.56C102.866 112.546 101.87 113.283 100.591 113.771L105.601 122.824V123H102.583L97.9541 114.372ZM92.9443 112.072H97.2656C98.6621 112.072 99.7705 111.711 100.591 110.988C101.421 110.266 101.836 109.299 101.836 108.088C101.836 106.77 101.44 105.759 100.649 105.056C99.8682 104.353 98.7354 103.996 97.251 103.986H92.9443V112.072ZM127.837 117.434H118.901L116.895 123H113.994L122.139 101.672H124.6L132.759 123H129.873L127.837 117.434ZM119.751 115.119H127.002L123.369 105.144L119.751 115.119ZM135.63 123V101.672H141.65C143.506 101.672 145.146 102.082 146.572 102.902C147.998 103.723 149.097 104.89 149.868 106.403C150.649 107.917 151.045 109.655 151.055 111.618V112.98C151.055 114.992 150.664 116.755 149.883 118.269C149.111 119.782 148.003 120.944 146.558 121.755C145.122 122.565 143.447 122.98 141.533 123H135.63ZM138.442 103.986V120.7H141.401C143.569 120.7 145.254 120.026 146.455 118.679C147.666 117.331 148.271 115.412 148.271 112.922V111.677C148.271 109.255 147.7 107.375 146.558 106.037C145.425 104.689 143.813 104.006 141.724 103.986H138.442ZM155.317 123V101.672H161.338C163.193 101.672 164.834 102.082 166.26 102.902C167.686 103.723 168.784 104.89 169.556 106.403C170.337 107.917 170.732 109.655 170.742 111.618V112.98C170.742 114.992 170.352 116.755 169.57 118.269C168.799 119.782 167.69 120.944 166.245 121.755C164.81 122.565 163.135 122.98 161.221 123H155.317ZM158.13 103.986V120.7H161.089C163.257 120.7 164.941 120.026 166.143 118.679C167.354 117.331 167.959 115.412 167.959 112.922V111.677C167.959 109.255 167.388 107.375 166.245 106.037C165.112 104.689 163.501 104.006 161.411 103.986H158.13ZM182.827 114.372H177.817V123H174.99V101.672H182.051C184.453 101.672 186.299 102.219 187.588 103.312C188.887 104.406 189.536 105.998 189.536 108.088C189.536 109.416 189.175 110.573 188.452 111.56C187.739 112.546 186.743 113.283 185.464 113.771L190.474 122.824V123H187.456L182.827 114.372ZM177.817 112.072H182.139C183.535 112.072 184.644 111.711 185.464 110.988C186.294 110.266 186.709 109.299 186.709 108.088C186.709 106.77 186.313 105.759 185.522 105.056C184.741 104.353 183.608 103.996 182.124 103.986H177.817V112.072ZM205.547 113.142H196.304V120.7H207.041V123H193.491V101.672H206.895V103.986H196.304V110.842H205.547V113.142ZM216.826 113.493C214.414 112.8 212.656 111.95 211.553 110.944C210.459 109.929 209.912 108.679 209.912 107.194C209.912 105.515 210.581 104.128 211.919 103.034C213.267 101.931 215.015 101.379 217.163 101.379C218.628 101.379 219.932 101.662 221.074 102.229C222.227 102.795 223.115 103.576 223.74 104.572C224.375 105.568 224.692 106.657 224.692 107.839H221.865C221.865 106.55 221.455 105.539 220.635 104.807C219.814 104.064 218.657 103.693 217.163 103.693C215.776 103.693 214.692 104.001 213.911 104.616C213.14 105.222 212.754 106.066 212.754 107.15C212.754 108.02 213.12 108.757 213.853 109.362C214.595 109.958 215.85 110.505 217.617 111.003C219.395 111.501 220.781 112.053 221.777 112.658C222.783 113.254 223.525 113.952 224.004 114.753C224.492 115.554 224.736 116.496 224.736 117.58C224.736 119.309 224.062 120.695 222.715 121.74C221.367 122.775 219.565 123.293 217.31 123.293C215.845 123.293 214.478 123.015 213.208 122.458C211.938 121.892 210.957 121.12 210.264 120.144C209.58 119.167 209.238 118.059 209.238 116.818H212.065C212.065 118.107 212.539 119.128 213.486 119.88C214.443 120.622 215.718 120.993 217.31 120.993C218.794 120.993 219.932 120.69 220.723 120.085C221.514 119.479 221.909 118.654 221.909 117.609C221.909 116.564 221.543 115.759 220.811 115.192C220.078 114.616 218.75 114.05 216.826 113.493ZM234.639 113.493C232.227 112.8 230.469 111.95 229.365 110.944C228.271 109.929 227.725 108.679 227.725 107.194C227.725 105.515 228.394 104.128 229.731 103.034C231.079 101.931 232.827 101.379 234.976 101.379C236.44 101.379 237.744 101.662 238.887 102.229C240.039 102.795 240.928 103.576 241.553 104.572C242.188 105.568 242.505 106.657 242.505 107.839H239.678C239.678 106.55 239.268 105.539 238.447 104.807C237.627 104.064 236.47 103.693 234.976 103.693C233.589 103.693 232.505 104.001 231.724 104.616C230.952 105.222 230.566 106.066 230.566 107.15C230.566 108.02 230.933 108.757 231.665 109.362C232.407 109.958 233.662 110.505 235.43 111.003C237.207 111.501 238.594 112.053 239.59 112.658C240.596 113.254 241.338 113.952 241.816 114.753C242.305 115.554 242.549 116.496 242.549 117.58C242.549 119.309 241.875 120.695 240.527 121.74C239.18 122.775 237.378 123.293 235.122 123.293C233.657 123.293 232.29 123.015 231.021 122.458C229.751 121.892 228.77 121.12 228.076 120.144C227.393 119.167 227.051 118.059 227.051 116.818H229.878C229.878 118.107 230.352 119.128 231.299 119.88C232.256 120.622 233.53 120.993 235.122 120.993C236.606 120.993 237.744 120.69 238.535 120.085C239.326 119.479 239.722 118.654 239.722 117.609C239.722 116.564 239.355 115.759 238.623 115.192C237.891 114.616 236.562 114.05 234.639 113.493Z" fill="#3F3F3F"/>
<path d="M604.476 123V101.672H610.496C612.352 101.672 613.992 102.082 615.418 102.902C616.844 103.723 617.942 104.89 618.714 106.403C619.495 107.917 619.891 109.655 619.9 111.618V112.98C619.9 114.992 619.51 116.755 618.729 118.269C617.957 119.782 616.849 120.944 615.403 121.755C613.968 122.565 612.293 122.98 610.379 123H604.476ZM607.288 103.986V120.7H610.247C612.415 120.7 614.1 120.026 615.301 118.679C616.512 117.331 617.117 115.412 617.117 112.922V111.677C617.117 109.255 616.546 107.375 615.403 106.037C614.271 104.689 612.659 104.006 610.569 103.986H607.288ZM635.618 117.434H626.683L624.676 123H621.775L629.92 101.672H632.381L640.54 123H637.654L635.618 117.434ZM627.532 115.119H634.783L631.15 105.144L627.532 115.119ZM656.243 103.986H649.388V123H646.59V103.986H639.749V101.672H656.243V103.986ZM671.463 113.142H662.22V120.7H672.957V123H659.407V101.672H672.811V103.986H662.22V110.842H671.463V113.142Z" fill="#3F3F3F"/>
<path d="M851.534 275V253.672H857.555C859.41 253.672 861.051 254.082 862.477 254.902C863.902 255.723 865.001 256.89 865.772 258.403C866.554 259.917 866.949 261.655 866.959 263.618V264.98C866.959 266.992 866.568 268.755 865.787 270.269C865.016 271.782 863.907 272.944 862.462 273.755C861.026 274.565 859.352 274.98 857.438 275H851.534ZM854.347 255.986V272.7H857.306C859.474 272.7 861.158 272.026 862.359 270.679C863.57 269.331 864.176 267.412 864.176 264.922V263.677C864.176 261.255 863.604 259.375 862.462 258.037C861.329 256.689 859.718 256.006 857.628 255.986H854.347ZM887.628 265.024C887.628 267.114 887.276 268.94 886.573 270.503C885.87 272.056 884.874 273.242 883.585 274.062C882.296 274.883 880.792 275.293 879.073 275.293C877.394 275.293 875.904 274.883 874.605 274.062C873.307 273.232 872.296 272.056 871.573 270.532C870.86 268.999 870.494 267.227 870.475 265.215V263.677C870.475 261.626 870.831 259.814 871.544 258.242C872.257 256.67 873.263 255.469 874.562 254.639C875.87 253.799 877.364 253.379 879.044 253.379C880.753 253.379 882.257 253.794 883.556 254.624C884.864 255.444 885.87 256.641 886.573 258.213C887.276 259.775 887.628 261.597 887.628 263.677V265.024ZM884.83 263.647C884.83 261.118 884.322 259.18 883.307 257.832C882.291 256.475 880.87 255.796 879.044 255.796C877.267 255.796 875.865 256.475 874.84 257.832C873.824 259.18 873.302 261.055 873.272 263.457V265.024C873.272 267.476 873.785 269.404 874.811 270.811C875.846 272.207 877.267 272.905 879.073 272.905C880.89 272.905 882.296 272.246 883.292 270.928C884.288 269.6 884.801 267.7 884.83 265.229V263.647ZM894.674 272.7H904.781V275H891.847V253.672H894.674V272.7ZM910.816 272.7H920.924V275H907.989V253.672H910.816V272.7ZM936.202 269.434H927.267L925.26 275H922.359L930.504 253.672H932.965L941.124 275H938.238L936.202 269.434ZM928.116 267.119H935.367L931.734 257.144L928.116 267.119ZM951.817 266.372H946.808V275H943.98V253.672H951.041C953.443 253.672 955.289 254.219 956.578 255.312C957.877 256.406 958.526 257.998 958.526 260.088C958.526 261.416 958.165 262.573 957.442 263.56C956.729 264.546 955.733 265.283 954.454 265.771L959.464 274.824V275H956.446L951.817 266.372ZM946.808 264.072H951.129C952.525 264.072 953.634 263.711 954.454 262.988C955.284 262.266 955.699 261.299 955.699 260.088C955.699 258.77 955.304 257.759 954.513 257.056C953.731 256.353 952.599 255.996 951.114 255.986H946.808V264.072ZM968.766 265.493C966.354 264.8 964.596 263.95 963.492 262.944C962.398 261.929 961.852 260.679 961.852 259.194C961.852 257.515 962.521 256.128 963.858 255.034C965.206 253.931 966.954 253.379 969.103 253.379C970.567 253.379 971.871 253.662 973.014 254.229C974.166 254.795 975.055 255.576 975.68 256.572C976.314 257.568 976.632 258.657 976.632 259.839H973.805C973.805 258.55 973.395 257.539 972.574 256.807C971.754 256.064 970.597 255.693 969.103 255.693C967.716 255.693 966.632 256.001 965.851 256.616C965.079 257.222 964.693 258.066 964.693 259.15C964.693 260.02 965.06 260.757 965.792 261.362C966.534 261.958 967.789 262.505 969.557 263.003C971.334 263.501 972.721 264.053 973.717 264.658C974.723 265.254 975.465 265.952 975.943 266.753C976.432 267.554 976.676 268.496 976.676 269.58C976.676 271.309 976.002 272.695 974.654 273.74C973.307 274.775 971.505 275.293 969.249 275.293C967.784 275.293 966.417 275.015 965.147 274.458C963.878 273.892 962.896 273.12 962.203 272.144C961.52 271.167 961.178 270.059 961.178 268.818H964.005C964.005 270.107 964.479 271.128 965.426 271.88C966.383 272.622 967.657 272.993 969.249 272.993C970.733 272.993 971.871 272.69 972.662 272.085C973.453 271.479 973.849 270.654 973.849 269.609C973.849 268.564 973.482 267.759 972.75 267.192C972.018 266.616 970.689 266.05 968.766 265.493Z" fill="#3F3F3F"/>
<path d="M32.0977 351.955H29.5342V326.672H32.0977V351.955ZM36.4189 345.92C36.4189 345.246 36.6436 344.699 37.0928 344.279C37.5518 343.859 38.123 343.649 38.8066 343.649C39.5 343.649 40.0713 343.859 40.5205 344.279C40.9795 344.699 41.209 345.246 41.209 345.92C41.209 346.584 40.9844 347.126 40.5352 347.546C40.0859 347.956 39.5098 348.161 38.8066 348.161C38.1133 348.161 37.542 347.956 37.0928 347.546C36.6436 347.126 36.4189 346.584 36.4189 345.92ZM36.4189 333.923C36.4189 333.249 36.6436 332.702 37.0928 332.282C37.5518 331.862 38.123 331.652 38.8066 331.652C39.5 331.652 40.0713 331.862 40.5205 332.282C40.9795 332.702 41.209 333.249 41.209 333.923C41.209 334.587 40.9844 335.129 40.5352 335.549C40.0859 335.959 39.5098 336.164 38.8066 336.164C38.1133 336.164 37.542 335.959 37.0928 335.549C36.6436 335.129 36.4189 334.587 36.4189 333.923ZM58.8604 339.182C58.8604 342.131 58.25 344.387 57.0293 345.949C55.8086 347.512 54.0215 348.293 51.668 348.293C49.3438 348.293 47.5664 347.526 46.3359 345.993C45.1055 344.46 44.4756 342.263 44.4463 339.401V335.476C44.4463 332.497 45.0615 330.236 46.292 328.693C47.5322 327.15 49.3145 326.379 51.6387 326.379C53.9629 326.379 55.7402 327.146 56.9707 328.679C58.2012 330.202 58.8311 332.395 58.8604 335.256V339.182ZM54.627 334.875C54.627 333.107 54.3828 331.823 53.8945 331.022C53.416 330.212 52.6641 329.807 51.6387 329.807C50.6426 329.807 49.9053 330.192 49.4268 330.964C48.958 331.726 48.709 332.922 48.6797 334.553V339.738C48.6797 341.477 48.9141 342.771 49.3828 343.62C49.8613 344.46 50.623 344.88 51.668 344.88C52.7031 344.88 53.4502 344.475 53.9092 343.664C54.3682 342.854 54.6074 341.613 54.627 339.943V334.875ZM76.0869 339.182C76.0869 342.131 75.4766 344.387 74.2559 345.949C73.0352 347.512 71.248 348.293 68.8945 348.293C66.5703 348.293 64.793 347.526 63.5625 345.993C62.332 344.46 61.7021 342.263 61.6729 339.401V335.476C61.6729 332.497 62.2881 330.236 63.5186 328.693C64.7588 327.15 66.541 326.379 68.8652 326.379C71.1895 326.379 72.9668 327.146 74.1973 328.679C75.4277 330.202 76.0576 332.395 76.0869 335.256V339.182ZM71.8535 334.875C71.8535 333.107 71.6094 331.823 71.1211 331.022C70.6426 330.212 69.8906 329.807 68.8652 329.807C67.8691 329.807 67.1318 330.192 66.6533 330.964C66.1846 331.726 65.9355 332.922 65.9062 334.553V339.738C65.9062 341.477 66.1406 342.771 66.6094 343.62C67.0879 344.46 67.8496 344.88 68.8945 344.88C69.9297 344.88 70.6768 344.475 71.1357 343.664C71.5947 342.854 71.834 341.613 71.8535 339.943V334.875ZM93.3135 339.182C93.3135 342.131 92.7031 344.387 91.4824 345.949C90.2617 347.512 88.4746 348.293 86.1211 348.293C83.7969 348.293 82.0195 347.526 80.7891 345.993C79.5586 344.46 78.9287 342.263 78.8994 339.401V335.476C78.8994 332.497 79.5146 330.236 80.7451 328.693C81.9854 327.15 83.7676 326.379 86.0918 326.379C88.416 326.379 90.1934 327.146 91.4238 328.679C92.6543 330.202 93.2842 332.395 93.3135 335.256V339.182ZM89.0801 334.875C89.0801 333.107 88.8359 331.823 88.3477 331.022C87.8691 330.212 87.1172 329.807 86.0918 329.807C85.0957 329.807 84.3584 330.192 83.8799 330.964C83.4111 331.726 83.1621 332.922 83.1328 334.553V339.738C83.1328 341.477 83.3672 342.771 83.8359 343.62C84.3145 344.46 85.0762 344.88 86.1211 344.88C87.1562 344.88 87.9033 344.475 88.3623 343.664C88.8213 342.854 89.0605 341.613 89.0801 339.943V334.875ZM110.54 339.182C110.54 342.131 109.93 344.387 108.709 345.949C107.488 347.512 105.701 348.293 103.348 348.293C101.023 348.293 99.2461 347.526 98.0156 345.993C96.7852 344.46 96.1553 342.263 96.126 339.401V335.476C96.126 332.497 96.7412 330.236 97.9717 328.693C99.2119 327.15 100.994 326.379 103.318 326.379C105.643 326.379 107.42 327.146 108.65 328.679C109.881 330.202 110.511 332.395 110.54 335.256V339.182ZM106.307 334.875C106.307 333.107 106.062 331.823 105.574 331.022C105.096 330.212 104.344 329.807 103.318 329.807C102.322 329.807 101.585 330.192 101.106 330.964C100.638 331.726 100.389 332.922 100.359 334.553V339.738C100.359 341.477 100.594 342.771 101.062 343.62C101.541 344.46 102.303 344.88 103.348 344.88C104.383 344.88 105.13 344.475 105.589 343.664C106.048 342.854 106.287 341.613 106.307 339.943V334.875ZM127.767 339.182C127.767 342.131 127.156 344.387 125.936 345.949C124.715 347.512 122.928 348.293 120.574 348.293C118.25 348.293 116.473 347.526 115.242 345.993C114.012 344.46 113.382 342.263 113.353 339.401V335.476C113.353 332.497 113.968 330.236 115.198 328.693C116.438 327.15 118.221 326.379 120.545 326.379C122.869 326.379 124.646 327.146 125.877 328.679C127.107 330.202 127.737 332.395 127.767 335.256V339.182ZM123.533 334.875C123.533 333.107 123.289 331.823 122.801 331.022C122.322 330.212 121.57 329.807 120.545 329.807C119.549 329.807 118.812 330.192 118.333 330.964C117.864 331.726 117.615 332.922 117.586 334.553V339.738C117.586 341.477 117.82 342.771 118.289 343.62C118.768 344.46 119.529 344.88 120.574 344.88C121.609 344.88 122.356 344.475 122.815 343.664C123.274 342.854 123.514 341.613 123.533 339.943V334.875ZM144.993 339.182C144.993 342.131 144.383 344.387 143.162 345.949C141.941 347.512 140.154 348.293 137.801 348.293C135.477 348.293 133.699 347.526 132.469 345.993C131.238 344.46 130.608 342.263 130.579 339.401V335.476C130.579 332.497 131.194 330.236 132.425 328.693C133.665 327.15 135.447 326.379 137.771 326.379C140.096 326.379 141.873 327.146 143.104 328.679C144.334 330.202 144.964 332.395 144.993 335.256V339.182ZM140.76 334.875C140.76 333.107 140.516 331.823 140.027 331.022C139.549 330.212 138.797 329.807 137.771 329.807C136.775 329.807 136.038 330.192 135.56 330.964C135.091 331.726 134.842 332.922 134.812 334.553V339.738C134.812 341.477 135.047 342.771 135.516 343.62C135.994 344.46 136.756 344.88 137.801 344.88C138.836 344.88 139.583 344.475 140.042 343.664C140.501 342.854 140.74 341.613 140.76 339.943V334.875ZM162.22 339.182C162.22 342.131 161.609 344.387 160.389 345.949C159.168 347.512 157.381 348.293 155.027 348.293C152.703 348.293 150.926 347.526 149.695 345.993C148.465 344.46 147.835 342.263 147.806 339.401V335.476C147.806 332.497 148.421 330.236 149.651 328.693C150.892 327.15 152.674 326.379 154.998 326.379C157.322 326.379 159.1 327.146 160.33 328.679C161.561 330.202 162.19 332.395 162.22 335.256V339.182ZM157.986 334.875C157.986 333.107 157.742 331.823 157.254 331.022C156.775 330.212 156.023 329.807 154.998 329.807C154.002 329.807 153.265 330.192 152.786 330.964C152.317 331.726 152.068 332.922 152.039 334.553V339.738C152.039 341.477 152.273 342.771 152.742 343.62C153.221 344.46 153.982 344.88 155.027 344.88C156.062 344.88 156.81 344.475 157.269 343.664C157.728 342.854 157.967 341.613 157.986 339.943V334.875ZM179.446 339.182C179.446 342.131 178.836 344.387 177.615 345.949C176.395 347.512 174.607 348.293 172.254 348.293C169.93 348.293 168.152 347.526 166.922 345.993C165.691 344.46 165.062 342.263 165.032 339.401V335.476C165.032 332.497 165.647 330.236 166.878 328.693C168.118 327.15 169.9 326.379 172.225 326.379C174.549 326.379 176.326 327.146 177.557 328.679C178.787 330.202 179.417 332.395 179.446 335.256V339.182ZM175.213 334.875C175.213 333.107 174.969 331.823 174.48 331.022C174.002 330.212 173.25 329.807 172.225 329.807C171.229 329.807 170.491 330.192 170.013 330.964C169.544 331.726 169.295 332.922 169.266 334.553V339.738C169.266 341.477 169.5 342.771 169.969 343.62C170.447 344.46 171.209 344.88 172.254 344.88C173.289 344.88 174.036 344.475 174.495 343.664C174.954 342.854 175.193 341.613 175.213 339.943V334.875Z" fill="#3F3F3F"/>
<path d="M229.098 351.955H226.534V326.672H229.098V351.955ZM233.419 345.92C233.419 345.246 233.644 344.699 234.093 344.279C234.552 343.859 235.123 343.649 235.807 343.649C236.5 343.649 237.071 343.859 237.521 344.279C237.979 344.699 238.209 345.246 238.209 345.92C238.209 346.584 237.984 347.126 237.535 347.546C237.086 347.956 236.51 348.161 235.807 348.161C235.113 348.161 234.542 347.956 234.093 347.546C233.644 347.126 233.419 346.584 233.419 345.92ZM233.419 333.923C233.419 333.249 233.644 332.702 234.093 332.282C234.552 331.862 235.123 331.652 235.807 331.652C236.5 331.652 237.071 331.862 237.521 332.282C237.979 332.702 238.209 333.249 238.209 333.923C238.209 334.587 237.984 335.129 237.535 335.549C237.086 335.959 236.51 336.164 235.807 336.164C235.113 336.164 234.542 335.959 234.093 335.549C233.644 335.129 233.419 334.587 233.419 333.923ZM255.86 339.182C255.86 342.131 255.25 344.387 254.029 345.949C252.809 347.512 251.021 348.293 248.668 348.293C246.344 348.293 244.566 347.526 243.336 345.993C242.105 344.46 241.476 342.263 241.446 339.401V335.476C241.446 332.497 242.062 330.236 243.292 328.693C244.532 327.15 246.314 326.379 248.639 326.379C250.963 326.379 252.74 327.146 253.971 328.679C255.201 330.202 255.831 332.395 255.86 335.256V339.182ZM251.627 334.875C251.627 333.107 251.383 331.823 250.895 331.022C250.416 330.212 249.664 329.807 248.639 329.807C247.643 329.807 246.905 330.192 246.427 330.964C245.958 331.726 245.709 332.922 245.68 334.553V339.738C245.68 341.477 245.914 342.771 246.383 343.62C246.861 344.46 247.623 344.88 248.668 344.88C249.703 344.88 250.45 344.475 250.909 343.664C251.368 342.854 251.607 341.613 251.627 339.943V334.875ZM273.087 339.182C273.087 342.131 272.477 344.387 271.256 345.949C270.035 347.512 268.248 348.293 265.895 348.293C263.57 348.293 261.793 347.526 260.562 345.993C259.332 344.46 258.702 342.263 258.673 339.401V335.476C258.673 332.497 259.288 330.236 260.519 328.693C261.759 327.15 263.541 326.379 265.865 326.379C268.189 326.379 269.967 327.146 271.197 328.679C272.428 330.202 273.058 332.395 273.087 335.256V339.182ZM268.854 334.875C268.854 333.107 268.609 331.823 268.121 331.022C267.643 330.212 266.891 329.807 265.865 329.807C264.869 329.807 264.132 330.192 263.653 330.964C263.185 331.726 262.936 332.922 262.906 334.553V339.738C262.906 341.477 263.141 342.771 263.609 343.62C264.088 344.46 264.85 344.88 265.895 344.88C266.93 344.88 267.677 344.475 268.136 343.664C268.595 342.854 268.834 341.613 268.854 339.943V334.875ZM290.313 339.182C290.313 342.131 289.703 344.387 288.482 345.949C287.262 347.512 285.475 348.293 283.121 348.293C280.797 348.293 279.02 347.526 277.789 345.993C276.559 344.46 275.929 342.263 275.899 339.401V335.476C275.899 332.497 276.515 330.236 277.745 328.693C278.985 327.15 280.768 326.379 283.092 326.379C285.416 326.379 287.193 327.146 288.424 328.679C289.654 330.202 290.284 332.395 290.313 335.256V339.182ZM286.08 334.875C286.08 333.107 285.836 331.823 285.348 331.022C284.869 330.212 284.117 329.807 283.092 329.807C282.096 329.807 281.358 330.192 280.88 330.964C280.411 331.726 280.162 332.922 280.133 334.553V339.738C280.133 341.477 280.367 342.771 280.836 343.62C281.314 344.46 282.076 344.88 283.121 344.88C284.156 344.88 284.903 344.475 285.362 343.664C285.821 342.854 286.061 341.613 286.08 339.943V334.875ZM307.54 339.182C307.54 342.131 306.93 344.387 305.709 345.949C304.488 347.512 302.701 348.293 300.348 348.293C298.023 348.293 296.246 347.526 295.016 345.993C293.785 344.46 293.155 342.263 293.126 339.401V335.476C293.126 332.497 293.741 330.236 294.972 328.693C296.212 327.15 297.994 326.379 300.318 326.379C302.643 326.379 304.42 327.146 305.65 328.679C306.881 330.202 307.511 332.395 307.54 335.256V339.182ZM303.307 334.875C303.307 333.107 303.062 331.823 302.574 331.022C302.096 330.212 301.344 329.807 300.318 329.807C299.322 329.807 298.585 330.192 298.106 330.964C297.638 331.726 297.389 332.922 297.359 334.553V339.738C297.359 341.477 297.594 342.771 298.062 343.62C298.541 344.46 299.303 344.88 300.348 344.88C301.383 344.88 302.13 344.475 302.589 343.664C303.048 342.854 303.287 341.613 303.307 339.943V334.875ZM324.767 339.182C324.767 342.131 324.156 344.387 322.936 345.949C321.715 347.512 319.928 348.293 317.574 348.293C315.25 348.293 313.473 347.526 312.242 345.993C311.012 344.46 310.382 342.263 310.353 339.401V335.476C310.353 332.497 310.968 330.236 312.198 328.693C313.438 327.15 315.221 326.379 317.545 326.379C319.869 326.379 321.646 327.146 322.877 328.679C324.107 330.202 324.737 332.395 324.767 335.256V339.182ZM320.533 334.875C320.533 333.107 320.289 331.823 319.801 331.022C319.322 330.212 318.57 329.807 317.545 329.807C316.549 329.807 315.812 330.192 315.333 330.964C314.864 331.726 314.615 332.922 314.586 334.553V339.738C314.586 341.477 314.82 342.771 315.289 343.62C315.768 344.46 316.529 344.88 317.574 344.88C318.609 344.88 319.356 344.475 319.815 343.664C320.274 342.854 320.514 341.613 320.533 339.943V334.875ZM341.993 339.182C341.993 342.131 341.383 344.387 340.162 345.949C338.941 347.512 337.154 348.293 334.801 348.293C332.477 348.293 330.699 347.526 329.469 345.993C328.238 344.46 327.608 342.263 327.579 339.401V335.476C327.579 332.497 328.194 330.236 329.425 328.693C330.665 327.15 332.447 326.379 334.771 326.379C337.096 326.379 338.873 327.146 340.104 328.679C341.334 330.202 341.964 332.395 341.993 335.256V339.182ZM337.76 334.875C337.76 333.107 337.516 331.823 337.027 331.022C336.549 330.212 335.797 329.807 334.771 329.807C333.775 329.807 333.038 330.192 332.56 330.964C332.091 331.726 331.842 332.922 331.812 334.553V339.738C331.812 341.477 332.047 342.771 332.516 343.62C332.994 344.46 333.756 344.88 334.801 344.88C335.836 344.88 336.583 344.475 337.042 343.664C337.501 342.854 337.74 341.613 337.76 339.943V334.875ZM359.22 339.182C359.22 342.131 358.609 344.387 357.389 345.949C356.168 347.512 354.381 348.293 352.027 348.293C349.703 348.293 347.926 347.526 346.695 345.993C345.465 344.46 344.835 342.263 344.806 339.401V335.476C344.806 332.497 345.421 330.236 346.651 328.693C347.892 327.15 349.674 326.379 351.998 326.379C354.322 326.379 356.1 327.146 357.33 328.679C358.561 330.202 359.19 332.395 359.22 335.256V339.182ZM354.986 334.875C354.986 333.107 354.742 331.823 354.254 331.022C353.775 330.212 353.023 329.807 351.998 329.807C351.002 329.807 350.265 330.192 349.786 330.964C349.317 331.726 349.068 332.922 349.039 334.553V339.738C349.039 341.477 349.273 342.771 349.742 343.62C350.221 344.46 350.982 344.88 352.027 344.88C353.062 344.88 353.81 344.475 354.269 343.664C354.728 342.854 354.967 341.613 354.986 339.943V334.875ZM376.446 339.182C376.446 342.131 375.836 344.387 374.615 345.949C373.395 347.512 371.607 348.293 369.254 348.293C366.93 348.293 365.152 347.526 363.922 345.993C362.691 344.46 362.062 342.263 362.032 339.401V335.476C362.032 332.497 362.647 330.236 363.878 328.693C365.118 327.15 366.9 326.379 369.225 326.379C371.549 326.379 373.326 327.146 374.557 328.679C375.787 330.202 376.417 332.395 376.446 335.256V339.182ZM372.213 334.875C372.213 333.107 371.969 331.823 371.48 331.022C371.002 330.212 370.25 329.807 369.225 329.807C368.229 329.807 367.491 330.192 367.013 330.964C366.544 331.726 366.295 332.922 366.266 334.553V339.738C366.266 341.477 366.5 342.771 366.969 343.62C367.447 344.46 368.209 344.88 369.254 344.88C370.289 344.88 371.036 344.475 371.495 343.664C371.954 342.854 372.193 341.613 372.213 339.943V334.875ZM393.673 339.182C393.673 342.131 393.062 344.387 391.842 345.949C390.621 347.512 388.834 348.293 386.48 348.293C384.156 348.293 382.379 347.526 381.148 345.993C379.918 344.46 379.288 342.263 379.259 339.401V335.476C379.259 332.497 379.874 330.236 381.104 328.693C382.345 327.15 384.127 326.379 386.451 326.379C388.775 326.379 390.553 327.146 391.783 328.679C393.014 330.202 393.644 332.395 393.673 335.256V339.182ZM389.439 334.875C389.439 333.107 389.195 331.823 388.707 331.022C388.229 330.212 387.477 329.807 386.451 329.807C385.455 329.807 384.718 330.192 384.239 330.964C383.771 331.726 383.521 332.922 383.492 334.553V339.738C383.492 341.477 383.727 342.771 384.195 343.62C384.674 344.46 385.436 344.88 386.48 344.88C387.516 344.88 388.263 344.475 388.722 343.664C389.181 342.854 389.42 341.613 389.439 339.943V334.875ZM410.899 339.182C410.899 342.131 410.289 344.387 409.068 345.949C407.848 347.512 406.061 348.293 403.707 348.293C401.383 348.293 399.605 347.526 398.375 345.993C397.145 344.46 396.515 342.263 396.485 339.401V335.476C396.485 332.497 397.101 330.236 398.331 328.693C399.571 327.15 401.354 326.379 403.678 326.379C406.002 326.379 407.779 327.146 409.01 328.679C410.24 330.202 410.87 332.395 410.899 335.256V339.182ZM406.666 334.875C406.666 333.107 406.422 331.823 405.934 331.022C405.455 330.212 404.703 329.807 403.678 329.807C402.682 329.807 401.944 330.192 401.466 330.964C400.997 331.726 400.748 332.922 400.719 334.553V339.738C400.719 341.477 400.953 342.771 401.422 343.62C401.9 344.46 402.662 344.88 403.707 344.88C404.742 344.88 405.489 344.475 405.948 343.664C406.407 342.854 406.646 341.613 406.666 339.943V334.875ZM428.126 339.182C428.126 342.131 427.516 344.387 426.295 345.949C425.074 347.512 423.287 348.293 420.934 348.293C418.609 348.293 416.832 347.526 415.602 345.993C414.371 344.46 413.741 342.263 413.712 339.401V335.476C413.712 332.497 414.327 330.236 415.558 328.693C416.798 327.15 418.58 326.379 420.904 326.379C423.229 326.379 425.006 327.146 426.236 328.679C427.467 330.202 428.097 332.395 428.126 335.256V339.182ZM423.893 334.875C423.893 333.107 423.648 331.823 423.16 331.022C422.682 330.212 421.93 329.807 420.904 329.807C419.908 329.807 419.171 330.192 418.692 330.964C418.224 331.726 417.975 332.922 417.945 334.553V339.738C417.945 341.477 418.18 342.771 418.648 343.62C419.127 344.46 419.889 344.88 420.934 344.88C421.969 344.88 422.716 344.475 423.175 343.664C423.634 342.854 423.873 341.613 423.893 339.943V334.875ZM445.353 339.182C445.353 342.131 444.742 344.387 443.521 345.949C442.301 347.512 440.514 348.293 438.16 348.293C435.836 348.293 434.059 347.526 432.828 345.993C431.598 344.46 430.968 342.263 430.938 339.401V335.476C430.938 332.497 431.554 330.236 432.784 328.693C434.024 327.15 435.807 326.379 438.131 326.379C440.455 326.379 442.232 327.146 443.463 328.679C444.693 330.202 445.323 332.395 445.353 335.256V339.182ZM441.119 334.875C441.119 333.107 440.875 331.823 440.387 331.022C439.908 330.212 439.156 329.807 438.131 329.807C437.135 329.807 436.397 330.192 435.919 330.964C435.45 331.726 435.201 332.922 435.172 334.553V339.738C435.172 341.477 435.406 342.771 435.875 343.62C436.354 344.46 437.115 344.88 438.16 344.88C439.195 344.88 439.942 344.475 440.401 343.664C440.86 342.854 441.1 341.613 441.119 339.943V334.875Z" fill="#3F3F3F"/>
<path d="M495.746 351.955H493.563V326.672H495.746V351.955ZM500.287 346.579C500.287 346.11 500.424 345.72 500.697 345.407C500.98 345.095 501.4 344.938 501.957 344.938C502.514 344.938 502.934 345.095 503.217 345.407C503.51 345.72 503.656 346.11 503.656 346.579C503.656 347.028 503.51 347.404 503.217 347.707C502.934 348.01 502.514 348.161 501.957 348.161C501.4 348.161 500.98 348.01 500.697 347.707C500.424 347.404 500.287 347.028 500.287 346.579ZM500.302 333.645C500.302 333.176 500.438 332.785 500.712 332.473C500.995 332.16 501.415 332.004 501.972 332.004C502.528 332.004 502.948 332.16 503.231 332.473C503.524 332.785 503.671 333.176 503.671 333.645C503.671 334.094 503.524 334.47 503.231 334.772C502.948 335.075 502.528 335.227 501.972 335.227C501.415 335.227 500.995 335.075 500.712 334.772C500.438 334.47 500.302 334.094 500.302 333.645Z" fill="#3F3F3F"/>
<path d="M809.719 191.676C809.719 190.478 809.296 189.469 808.449 188.648C807.616 187.828 806.203 187.086 804.211 186.422C801.438 185.576 799.413 184.475 798.137 183.121C796.874 181.754 796.242 180.022 796.242 177.926C796.242 175.79 796.861 174.039 798.098 172.672C799.348 171.305 801.06 170.491 803.234 170.23V165.953H806.145V170.25C808.332 170.549 810.031 171.467 811.242 173.004C812.466 174.54 813.078 176.643 813.078 179.312H809.484C809.484 177.477 809.048 176.018 808.176 174.938C807.303 173.857 806.125 173.316 804.641 173.316C803.091 173.316 801.906 173.72 801.086 174.527C800.266 175.322 799.855 176.435 799.855 177.867C799.855 179.195 800.285 180.257 801.145 181.051C802.017 181.832 803.443 182.548 805.422 183.199C807.414 183.837 808.964 184.547 810.07 185.328C811.19 186.096 812.01 186.995 812.531 188.023C813.065 189.052 813.332 190.257 813.332 191.637C813.332 193.837 812.668 195.608 811.34 196.949C810.025 198.29 808.176 199.085 805.793 199.332V203.062H802.902V199.332C800.48 199.111 798.579 198.251 797.199 196.754C795.832 195.243 795.148 193.199 795.148 190.621H798.762C798.762 192.431 799.237 193.824 800.188 194.801C801.138 195.777 802.486 196.266 804.23 196.266C805.936 196.266 807.277 195.855 808.254 195.035C809.23 194.215 809.719 193.095 809.719 191.676Z" fill="#3F3F3F"/>
<path d="M920.038 74H917.313V55.9385L911.85 57.9453V55.4844L919.613 52.5693H920.038V74ZM941.352 64.9033C941.352 68.0771 940.81 70.4355 939.726 71.9785C938.642 73.5215 936.947 74.293 934.643 74.293C932.367 74.293 930.683 73.541 929.589 72.0371C928.495 70.5234 927.929 68.2676 927.89 65.2695V61.6514C927.89 58.5166 928.432 56.1875 929.516 54.6641C930.6 53.1406 932.299 52.3789 934.613 52.3789C936.908 52.3789 938.598 53.1162 939.682 54.5908C940.766 56.0557 941.322 58.3213 941.352 61.3877V64.9033ZM938.642 61.1973C938.642 58.9023 938.319 57.2324 937.675 56.1875C937.03 55.1328 936.01 54.6055 934.613 54.6055C933.227 54.6055 932.216 55.1279 931.581 56.1729C930.946 57.2178 930.619 58.8242 930.6 60.9922V65.3281C930.6 67.6328 930.932 69.3369 931.596 70.4404C932.27 71.5342 933.285 72.0811 934.643 72.0811C935.98 72.0811 936.972 71.5635 937.616 70.5283C938.271 69.4932 938.612 67.8623 938.642 65.6357V61.1973ZM958.197 64.9033C958.197 68.0771 957.655 70.4355 956.571 71.9785C955.487 73.5215 953.793 74.293 951.488 74.293C949.213 74.293 947.528 73.541 946.435 72.0371C945.341 70.5234 944.774 68.2676 944.735 65.2695V61.6514C944.735 58.5166 945.277 56.1875 946.361 54.6641C947.445 53.1406 949.145 52.3789 951.459 52.3789C953.754 52.3789 955.443 53.1162 956.527 54.5908C957.611 56.0557 958.168 58.3213 958.197 61.3877V64.9033ZM955.487 61.1973C955.487 58.9023 955.165 57.2324 954.521 56.1875C953.876 55.1328 952.855 54.6055 951.459 54.6055C950.072 54.6055 949.062 55.1279 948.427 56.1729C947.792 57.2178 947.465 58.8242 947.445 60.9922V65.3281C947.445 67.6328 947.777 69.3369 948.441 70.4404C949.115 71.5342 950.131 72.0811 951.488 72.0811C952.826 72.0811 953.817 71.5635 954.462 70.5283C955.116 69.4932 955.458 67.8623 955.487 65.6357V61.1973ZM970.575 74H967.851V55.9385L962.387 57.9453V55.4844L970.15 52.5693H970.575V74Z" fill="#3F3F3F"/>
<path d="M35.2881 177.65V186H32.4756V164.672H40.3418C42.6758 164.672 44.502 165.268 45.8203 166.459C47.1484 167.65 47.8125 169.228 47.8125 171.19C47.8125 173.261 47.1631 174.857 45.8643 175.98C44.5752 177.094 42.7246 177.65 40.3125 177.65H35.2881ZM35.2881 175.351H40.3418C41.8457 175.351 42.998 174.999 43.7988 174.296C44.5996 173.583 45 172.558 45 171.22C45 169.95 44.5996 168.935 43.7988 168.173C42.998 167.411 41.8994 167.016 40.5029 166.986H35.2881V175.351ZM61.1572 180.434H52.2217L50.2148 186H47.3145L55.459 164.672H57.9199L66.0791 186H63.1934L61.1572 180.434ZM53.0713 178.119H60.3223L56.6895 168.144L53.0713 178.119ZM74.0771 175.38L79.6436 164.672H82.8369L75.4834 178.046V186H72.6709V178.046L65.3174 164.672H68.54L74.0771 175.38ZM107.183 166.986H100.327V186H97.5293V166.986H90.6885V164.672H107.183V166.986ZM126.343 176.024C126.343 178.114 125.991 179.94 125.288 181.503C124.585 183.056 123.589 184.242 122.3 185.062C121.011 185.883 119.507 186.293 117.788 186.293C116.108 186.293 114.619 185.883 113.32 185.062C112.021 184.232 111.011 183.056 110.288 181.532C109.575 179.999 109.209 178.227 109.189 176.215V174.677C109.189 172.626 109.546 170.814 110.259 169.242C110.972 167.67 111.978 166.469 113.276 165.639C114.585 164.799 116.079 164.379 117.759 164.379C119.468 164.379 120.972 164.794 122.271 165.624C123.579 166.444 124.585 167.641 125.288 169.213C125.991 170.775 126.343 172.597 126.343 174.677V176.024ZM123.545 174.647C123.545 172.118 123.037 170.18 122.021 168.832C121.006 167.475 119.585 166.796 117.759 166.796C115.981 166.796 114.58 167.475 113.555 168.832C112.539 170.18 112.017 172.055 111.987 174.457V176.024C111.987 178.476 112.5 180.404 113.525 181.811C114.561 183.207 115.981 183.905 117.788 183.905C119.604 183.905 121.011 183.246 122.007 181.928C123.003 180.6 123.516 178.7 123.545 176.229V174.647ZM152.153 166.986H145.298V186H142.5V166.986H135.659V164.672H152.153V166.986ZM171.709 186H168.882V176.142H158.13V186H155.317V164.672H158.13V173.842H168.882V164.672H171.709V186ZM188.76 176.142H179.517V183.7H190.254V186H176.704V164.672H190.107V166.986H179.517V173.842H188.76V176.142Z" fill="#3F3F3F"/>
<path d="M48.8818 205.024C48.8818 207.114 48.5303 208.94 47.8271 210.503C47.124 212.056 46.1279 213.242 44.8389 214.062C43.5498 214.883 42.0459 215.293 40.3271 215.293C38.6475 215.293 37.1582 214.883 35.8594 214.062C34.5605 213.232 33.5498 212.056 32.8271 210.532C32.1143 208.999 31.748 207.227 31.7285 205.215V203.677C31.7285 201.626 32.085 199.814 32.7979 198.242C33.5107 196.67 34.5166 195.469 35.8154 194.639C37.124 193.799 38.6182 193.379 40.2979 193.379C42.0068 193.379 43.5107 193.794 44.8096 194.624C46.1182 195.444 47.124 196.641 47.8271 198.213C48.5303 199.775 48.8818 201.597 48.8818 203.677V205.024ZM46.084 203.647C46.084 201.118 45.5762 199.18 44.5605 197.832C43.5449 196.475 42.124 195.796 40.2979 195.796C38.5205 195.796 37.1191 196.475 36.0938 197.832C35.0781 199.18 34.5557 201.055 34.5264 203.457V205.024C34.5264 207.476 35.0391 209.404 36.0645 210.811C37.0996 212.207 38.5205 212.905 40.3271 212.905C42.1436 212.905 43.5498 212.246 44.5459 210.928C45.542 209.6 46.0547 207.7 46.084 205.229V203.647ZM60.9229 206.372H55.9131V215H53.0859V193.672H60.1465C62.5488 193.672 64.3945 194.219 65.6836 195.312C66.9824 196.406 67.6318 197.998 67.6318 200.088C67.6318 201.416 67.2705 202.573 66.5479 203.56C65.835 204.546 64.8389 205.283 63.5596 205.771L68.5693 214.824V215H65.5518L60.9229 206.372ZM55.9131 204.072H60.2344C61.6309 204.072 62.7393 203.711 63.5596 202.988C64.3896 202.266 64.8047 201.299 64.8047 200.088C64.8047 198.77 64.4092 197.759 63.6182 197.056C62.8369 196.353 61.7041 195.996 60.2197 195.986H55.9131V204.072ZM71.5869 215V193.672H77.6074C79.4629 193.672 81.1035 194.082 82.5293 194.902C83.9551 195.723 85.0537 196.89 85.8252 198.403C86.6064 199.917 87.002 201.655 87.0117 203.618V204.98C87.0117 206.992 86.6211 208.755 85.8398 210.269C85.0684 211.782 83.96 212.944 82.5146 213.755C81.0791 214.565 79.4043 214.98 77.4902 215H71.5869ZM74.3994 195.986V212.7H77.3584C79.5264 212.7 81.2109 212.026 82.4121 210.679C83.623 209.331 84.2285 207.412 84.2285 204.922V203.677C84.2285 201.255 83.6572 199.375 82.5146 198.037C81.3818 196.689 79.7705 196.006 77.6807 195.986H74.3994ZM103.33 205.142H94.0869V212.7H104.824V215H91.2744V193.672H104.678V195.986H94.0869V202.842H103.33V205.142ZM116.147 206.372H111.138V215H108.311V193.672H115.371C117.773 193.672 119.619 194.219 120.908 195.312C122.207 196.406 122.856 197.998 122.856 200.088C122.856 201.416 122.495 202.573 121.772 203.56C121.06 204.546 120.063 205.283 118.784 205.771L123.794 214.824V215H120.776L116.147 206.372ZM111.138 204.072H115.459C116.855 204.072 117.964 203.711 118.784 202.988C119.614 202.266 120.029 201.299 120.029 200.088C120.029 198.77 119.634 197.759 118.843 197.056C118.062 196.353 116.929 195.996 115.444 195.986H111.138V204.072ZM150.659 205.024C150.659 207.114 150.308 208.94 149.604 210.503C148.901 212.056 147.905 213.242 146.616 214.062C145.327 214.883 143.823 215.293 142.104 215.293C140.425 215.293 138.936 214.883 137.637 214.062C136.338 213.232 135.327 212.056 134.604 210.532C133.892 208.999 133.525 207.227 133.506 205.215V203.677C133.506 201.626 133.862 199.814 134.575 198.242C135.288 196.67 136.294 195.469 137.593 194.639C138.901 193.799 140.396 193.379 142.075 193.379C143.784 193.379 145.288 193.794 146.587 194.624C147.896 195.444 148.901 196.641 149.604 198.213C150.308 199.775 150.659 201.597 150.659 203.677V205.024ZM147.861 203.647C147.861 201.118 147.354 199.18 146.338 197.832C145.322 196.475 143.901 195.796 142.075 195.796C140.298 195.796 138.896 196.475 137.871 197.832C136.855 199.18 136.333 201.055 136.304 203.457V205.024C136.304 207.476 136.816 209.404 137.842 210.811C138.877 212.207 140.298 212.905 142.104 212.905C143.921 212.905 145.327 212.246 146.323 210.928C147.319 209.6 147.832 207.7 147.861 205.229V203.647ZM166.641 205.581H157.69V215H154.878V193.672H168.091V195.986H157.69V203.281H166.641V205.581Z" fill="#3F3F3F"/>
<path d="M785 218H188V221H785V218Z" fill="#C9C9C9"/>
<path d="M970 123H685V126H970V123Z" fill="#C9C9C9"/>
<path d="M840 275H30V278H840V275Z" fill="#C9C9C9"/>
<path d="M969 165H822V213H969V165Z" fill="white"/>
<path d="M22 337V370H104H188V337M105 370V422" stroke="#0087FF" stroke-width="3"/>
<path d="M65.7119 446.582C65.3018 446.514 64.8574 446.479 64.3789 446.479C62.6016 446.479 61.3955 447.236 60.7607 448.75V460H58.0508V444.15H60.6875L60.7314 445.981C61.6201 444.565 62.8799 443.857 64.5107 443.857C65.0381 443.857 65.4385 443.926 65.7119 444.062V446.582ZM67.2061 451.929C67.2061 450.376 67.5088 448.979 68.1143 447.739C68.7295 446.499 69.5791 445.542 70.6631 444.868C71.7568 444.194 73.002 443.857 74.3984 443.857C76.5566 443.857 78.2998 444.604 79.6279 446.099C80.9658 447.593 81.6348 449.58 81.6348 452.061V452.251C81.6348 453.794 81.3369 455.181 80.7412 456.411C80.1553 457.632 79.3105 458.584 78.207 459.268C77.1133 459.951 75.8535 460.293 74.4277 460.293C72.2793 460.293 70.5361 459.546 69.1982 458.052C67.8701 456.558 67.2061 454.58 67.2061 452.119V451.929ZM69.9307 452.251C69.9307 454.009 70.3359 455.42 71.1465 456.484C71.9668 457.549 73.0605 458.081 74.4277 458.081C75.8047 458.081 76.8984 457.544 77.709 456.47C78.5195 455.386 78.9248 453.872 78.9248 451.929C78.9248 450.19 78.5098 448.784 77.6797 447.71C76.8594 446.626 75.7656 446.084 74.3984 446.084C73.0605 446.084 71.9814 446.616 71.1611 447.681C70.3408 448.745 69.9307 450.269 69.9307 452.251ZM94.8184 458.433C93.7637 459.673 92.2158 460.293 90.1748 460.293C88.4854 460.293 87.1963 459.805 86.3076 458.828C85.4287 457.842 84.9844 456.387 84.9746 454.463V444.15H87.6846V454.39C87.6846 456.792 88.6611 457.993 90.6143 457.993C92.6846 457.993 94.0615 457.222 94.7451 455.679V444.15H97.4551V460H94.877L94.8184 458.433ZM105.263 440.312V444.15H108.222V446.245H105.263V456.074C105.263 456.709 105.395 457.188 105.658 457.51C105.922 457.822 106.371 457.979 107.006 457.979C107.318 457.979 107.748 457.92 108.295 457.803V460C107.582 460.195 106.889 460.293 106.215 460.293C105.004 460.293 104.091 459.927 103.476 459.194C102.86 458.462 102.553 457.422 102.553 456.074V446.245H99.667V444.15H102.553V440.312H105.263ZM114.345 460H111.635V444.15H114.345V460ZM111.415 439.946C111.415 439.507 111.547 439.136 111.811 438.833C112.084 438.53 112.484 438.379 113.012 438.379C113.539 438.379 113.939 438.53 114.213 438.833C114.486 439.136 114.623 439.507 114.623 439.946C114.623 440.386 114.486 440.752 114.213 441.045C113.939 441.338 113.539 441.484 113.012 441.484C112.484 441.484 112.084 441.338 111.811 441.045C111.547 440.752 111.415 440.386 111.415 439.946ZM121.259 444.15L121.347 446.143C122.558 444.619 124.14 443.857 126.093 443.857C129.442 443.857 131.132 445.747 131.161 449.526V460H128.451V449.512C128.441 448.369 128.178 447.524 127.66 446.978C127.152 446.431 126.356 446.157 125.272 446.157C124.394 446.157 123.622 446.392 122.958 446.86C122.294 447.329 121.776 447.944 121.405 448.706V460H118.695V444.15H121.259ZM134.604 451.943C134.604 449.473 135.175 447.51 136.317 446.055C137.46 444.59 138.974 443.857 140.858 443.857C142.792 443.857 144.301 444.541 145.385 445.908L145.517 444.15H147.992V459.619C147.992 461.67 147.382 463.286 146.161 464.468C144.95 465.649 143.319 466.24 141.269 466.24C140.126 466.24 139.008 465.996 137.914 465.508C136.82 465.02 135.985 464.351 135.409 463.501L136.815 461.875C137.978 463.311 139.398 464.028 141.078 464.028C142.396 464.028 143.422 463.657 144.154 462.915C144.896 462.173 145.268 461.128 145.268 459.78V458.418C144.184 459.668 142.704 460.293 140.829 460.293C138.974 460.293 137.47 459.546 136.317 458.052C135.175 456.558 134.604 454.521 134.604 451.943ZM137.328 452.251C137.328 454.038 137.694 455.444 138.427 456.47C139.159 457.485 140.185 457.993 141.503 457.993C143.212 457.993 144.467 457.217 145.268 455.664V448.428C144.438 446.914 143.192 446.157 141.532 446.157C140.214 446.157 139.184 446.67 138.441 447.695C137.699 448.721 137.328 450.239 137.328 452.251Z" fill="#3F3F3F"/>
<path d="M60.6143 478.15L60.7021 480.143C61.9131 478.619 63.4951 477.857 65.4482 477.857C68.7979 477.857 70.4873 479.747 70.5166 483.526V494H67.8066V483.512C67.7969 482.369 67.5332 481.524 67.0156 480.978C66.5078 480.431 65.7119 480.157 64.6279 480.157C63.749 480.157 62.9775 480.392 62.3135 480.86C61.6494 481.329 61.1318 481.944 60.7607 482.706V494H58.0508V478.15H60.6143ZM84.3887 492.433C83.334 493.673 81.7861 494.293 79.7451 494.293C78.0557 494.293 76.7666 493.805 75.8779 492.828C74.999 491.842 74.5547 490.387 74.5449 488.463V478.15H77.2549V488.39C77.2549 490.792 78.2314 491.993 80.1846 491.993C82.2549 491.993 83.6318 491.222 84.3154 489.679V478.15H87.0254V494H84.4473L84.3887 492.433ZM93.7051 478.15L93.7783 479.908C94.9404 478.541 96.5078 477.857 98.4805 477.857C100.697 477.857 102.206 478.707 103.007 480.406C103.534 479.645 104.218 479.029 105.058 478.561C105.907 478.092 106.908 477.857 108.061 477.857C111.537 477.857 113.305 479.698 113.363 483.38V494H110.653V483.541C110.653 482.408 110.395 481.563 109.877 481.007C109.359 480.44 108.49 480.157 107.27 480.157C106.264 480.157 105.429 480.46 104.765 481.065C104.101 481.661 103.715 482.467 103.607 483.482V494H100.883V483.614C100.883 481.31 99.7549 480.157 97.499 480.157C95.7217 480.157 94.5059 480.914 93.8516 482.428V494H91.1416V478.15H93.7051ZM130.883 486.251C130.883 488.673 130.326 490.621 129.213 492.096C128.1 493.561 126.605 494.293 124.73 494.293C122.729 494.293 121.181 493.585 120.087 492.169L119.955 494H117.465V471.5H120.175V479.894C121.269 478.536 122.777 477.857 124.701 477.857C126.625 477.857 128.134 478.585 129.228 480.04C130.331 481.495 130.883 483.487 130.883 486.017V486.251ZM128.173 485.943C128.173 484.098 127.816 482.672 127.104 481.666C126.391 480.66 125.365 480.157 124.027 480.157C122.24 480.157 120.956 480.987 120.175 482.647V489.503C121.005 491.163 122.299 491.993 124.057 491.993C125.355 491.993 126.366 491.49 127.089 490.484C127.812 489.479 128.173 487.965 128.173 485.943ZM140.888 494.293C138.739 494.293 136.991 493.59 135.644 492.184C134.296 490.768 133.622 488.878 133.622 486.515V486.017C133.622 484.444 133.92 483.043 134.516 481.812C135.121 480.572 135.961 479.605 137.035 478.912C138.119 478.209 139.291 477.857 140.551 477.857C142.611 477.857 144.213 478.536 145.355 479.894C146.498 481.251 147.069 483.194 147.069 485.724V486.852H136.332C136.371 488.414 136.825 489.679 137.694 490.646C138.573 491.603 139.687 492.081 141.034 492.081C141.991 492.081 142.802 491.886 143.466 491.495C144.13 491.104 144.711 490.587 145.209 489.942L146.864 491.231C145.536 493.272 143.544 494.293 140.888 494.293ZM140.551 480.084C139.457 480.084 138.539 480.484 137.797 481.285C137.055 482.076 136.596 483.189 136.42 484.625H144.359V484.42C144.281 483.043 143.91 481.979 143.246 481.227C142.582 480.465 141.684 480.084 140.551 480.084ZM157.88 480.582C157.47 480.514 157.025 480.479 156.547 480.479C154.77 480.479 153.563 481.236 152.929 482.75V494H150.219V478.15H152.855L152.899 479.981C153.788 478.565 155.048 477.857 156.679 477.857C157.206 477.857 157.606 477.926 157.88 478.062V480.582Z" fill="#3F3F3F"/>
<path d="M488 337V370H570H654V337M571 370V422" stroke="#0087FF" stroke-width="3"/>
<path d="M525.408 458.081C526.375 458.081 527.22 457.788 527.942 457.202C528.665 456.616 529.065 455.884 529.144 455.005H531.707C531.658 455.913 531.346 456.777 530.77 457.598C530.193 458.418 529.422 459.072 528.455 459.561C527.498 460.049 526.482 460.293 525.408 460.293C523.25 460.293 521.531 459.575 520.252 458.14C518.982 456.694 518.348 454.722 518.348 452.222V451.768C518.348 450.225 518.631 448.853 519.197 447.651C519.764 446.45 520.574 445.518 521.629 444.854C522.693 444.189 523.948 443.857 525.394 443.857C527.171 443.857 528.646 444.39 529.817 445.454C530.999 446.519 531.629 447.9 531.707 449.6H529.144C529.065 448.574 528.675 447.734 527.972 447.08C527.278 446.416 526.419 446.084 525.394 446.084C524.017 446.084 522.947 446.582 522.186 447.578C521.434 448.564 521.058 449.995 521.058 451.87V452.383C521.058 454.209 521.434 455.615 522.186 456.602C522.938 457.588 524.012 458.081 525.408 458.081ZM537.464 446.069C538.665 444.595 540.228 443.857 542.151 443.857C545.501 443.857 547.19 445.747 547.22 449.526V460H544.51V449.512C544.5 448.369 544.236 447.524 543.719 446.978C543.211 446.431 542.415 446.157 541.331 446.157C540.452 446.157 539.681 446.392 539.017 446.86C538.353 447.329 537.835 447.944 537.464 448.706V460H534.754V437.5H537.464V446.069ZM557.854 460.293C555.706 460.293 553.958 459.59 552.61 458.184C551.263 456.768 550.589 454.878 550.589 452.515V452.017C550.589 450.444 550.887 449.043 551.482 447.812C552.088 446.572 552.928 445.605 554.002 444.912C555.086 444.209 556.258 443.857 557.518 443.857C559.578 443.857 561.18 444.536 562.322 445.894C563.465 447.251 564.036 449.194 564.036 451.724V452.852H553.299C553.338 454.414 553.792 455.679 554.661 456.646C555.54 457.603 556.653 458.081 558.001 458.081C558.958 458.081 559.769 457.886 560.433 457.495C561.097 457.104 561.678 456.587 562.176 455.942L563.831 457.231C562.503 459.272 560.511 460.293 557.854 460.293ZM557.518 446.084C556.424 446.084 555.506 446.484 554.764 447.285C554.021 448.076 553.562 449.189 553.387 450.625H561.326V450.42C561.248 449.043 560.877 447.979 560.213 447.227C559.549 446.465 558.65 446.084 557.518 446.084ZM573.543 458.081C574.51 458.081 575.354 457.788 576.077 457.202C576.8 456.616 577.2 455.884 577.278 455.005H579.842C579.793 455.913 579.48 456.777 578.904 457.598C578.328 458.418 577.557 459.072 576.59 459.561C575.633 460.049 574.617 460.293 573.543 460.293C571.385 460.293 569.666 459.575 568.387 458.14C567.117 456.694 566.482 454.722 566.482 452.222V451.768C566.482 450.225 566.766 448.853 567.332 447.651C567.898 446.45 568.709 445.518 569.764 444.854C570.828 444.189 572.083 443.857 573.528 443.857C575.306 443.857 576.78 444.39 577.952 445.454C579.134 446.519 579.764 447.9 579.842 449.6H577.278C577.2 448.574 576.81 447.734 576.106 447.08C575.413 446.416 574.554 446.084 573.528 446.084C572.151 446.084 571.082 446.582 570.32 447.578C569.568 448.564 569.192 449.995 569.192 451.87V452.383C569.192 454.209 569.568 455.615 570.32 456.602C571.072 457.588 572.146 458.081 573.543 458.081ZM587.312 452.661L585.613 454.434V460H582.903V437.5H585.613V451.108L587.063 449.365L592 444.15H595.296L589.129 450.771L596.014 460H592.835L587.312 452.661Z" fill="#3F3F3F"/>
<path d="M521.614 478.15L521.702 480.143C522.913 478.619 524.495 477.857 526.448 477.857C529.798 477.857 531.487 479.747 531.517 483.526V494H528.807V483.512C528.797 482.369 528.533 481.524 528.016 480.978C527.508 480.431 526.712 480.157 525.628 480.157C524.749 480.157 523.978 480.392 523.313 480.86C522.649 481.329 522.132 481.944 521.761 482.706V494H519.051V478.15H521.614ZM545.389 492.433C544.334 493.673 542.786 494.293 540.745 494.293C539.056 494.293 537.767 493.805 536.878 492.828C535.999 491.842 535.555 490.387 535.545 488.463V478.15H538.255V488.39C538.255 490.792 539.231 491.993 541.185 491.993C543.255 491.993 544.632 491.222 545.315 489.679V478.15H548.025V494H545.447L545.389 492.433ZM554.705 478.15L554.778 479.908C555.94 478.541 557.508 477.857 559.48 477.857C561.697 477.857 563.206 478.707 564.007 480.406C564.534 479.645 565.218 479.029 566.058 478.561C566.907 478.092 567.908 477.857 569.061 477.857C572.537 477.857 574.305 479.698 574.363 483.38V494H571.653V483.541C571.653 482.408 571.395 481.563 570.877 481.007C570.359 480.44 569.49 480.157 568.27 480.157C567.264 480.157 566.429 480.46 565.765 481.065C565.101 481.661 564.715 482.467 564.607 483.482V494H561.883V483.614C561.883 481.31 560.755 480.157 558.499 480.157C556.722 480.157 555.506 480.914 554.852 482.428V494H552.142V478.15H554.705ZM591.883 486.251C591.883 488.673 591.326 490.621 590.213 492.096C589.1 493.561 587.605 494.293 585.73 494.293C583.729 494.293 582.181 493.585 581.087 492.169L580.955 494H578.465V471.5H581.175V479.894C582.269 478.536 583.777 477.857 585.701 477.857C587.625 477.857 589.134 478.585 590.228 480.04C591.331 481.495 591.883 483.487 591.883 486.017V486.251ZM589.173 485.943C589.173 484.098 588.816 482.672 588.104 481.666C587.391 480.66 586.365 480.157 585.027 480.157C583.24 480.157 581.956 480.987 581.175 482.647V489.503C582.005 491.163 583.299 491.993 585.057 491.993C586.355 491.993 587.366 491.49 588.089 490.484C588.812 489.479 589.173 487.965 589.173 485.943ZM601.888 494.293C599.739 494.293 597.991 493.59 596.644 492.184C595.296 490.768 594.622 488.878 594.622 486.515V486.017C594.622 484.444 594.92 483.043 595.516 481.812C596.121 480.572 596.961 479.605 598.035 478.912C599.119 478.209 600.291 477.857 601.551 477.857C603.611 477.857 605.213 478.536 606.355 479.894C607.498 481.251 608.069 483.194 608.069 485.724V486.852H597.332C597.371 488.414 597.825 489.679 598.694 490.646C599.573 491.603 600.687 492.081 602.034 492.081C602.991 492.081 603.802 491.886 604.466 491.495C605.13 491.104 605.711 490.587 606.209 489.942L607.864 491.231C606.536 493.272 604.544 494.293 601.888 494.293ZM601.551 480.084C600.457 480.084 599.539 480.484 598.797 481.285C598.055 482.076 597.596 483.189 597.42 484.625H605.359V484.42C605.281 483.043 604.91 481.979 604.246 481.227C603.582 480.465 602.684 480.084 601.551 480.084ZM618.88 480.582C618.47 480.514 618.025 480.479 617.547 480.479C615.77 480.479 614.563 481.236 613.929 482.75V494H611.219V478.15H613.855L613.899 479.981C614.788 478.565 616.048 477.857 617.679 477.857C618.206 477.857 618.606 477.926 618.88 478.062V480.582Z" fill="#3F3F3F"/>
<path d="M221 337V370H335.5H450V337M336.5 370V422" stroke="#0087FF" stroke-width="3"/>
<path d="M292.836 460C292.68 459.688 292.553 459.131 292.455 458.33C291.195 459.639 289.691 460.293 287.943 460.293C286.381 460.293 285.097 459.854 284.091 458.975C283.095 458.086 282.597 456.963 282.597 455.605C282.597 453.955 283.222 452.676 284.472 451.768C285.731 450.85 287.499 450.391 289.774 450.391H292.411V449.146C292.411 448.198 292.128 447.446 291.562 446.89C290.995 446.323 290.16 446.04 289.057 446.04C288.09 446.04 287.279 446.284 286.625 446.772C285.971 447.261 285.644 447.852 285.644 448.545H282.919C282.919 447.754 283.197 446.992 283.754 446.26C284.32 445.518 285.082 444.932 286.039 444.502C287.006 444.072 288.065 443.857 289.218 443.857C291.044 443.857 292.475 444.316 293.51 445.234C294.545 446.143 295.082 447.397 295.121 448.999V456.294C295.121 457.749 295.307 458.906 295.678 459.766V460H292.836ZM288.339 457.935C289.188 457.935 289.994 457.715 290.756 457.275C291.518 456.836 292.069 456.265 292.411 455.562V452.31H290.287C286.967 452.31 285.307 453.281 285.307 455.225C285.307 456.074 285.59 456.738 286.156 457.217C286.723 457.695 287.45 457.935 288.339 457.935ZM305.727 458.081C306.693 458.081 307.538 457.788 308.261 457.202C308.983 456.616 309.384 455.884 309.462 455.005H312.025C311.977 455.913 311.664 456.777 311.088 457.598C310.512 458.418 309.74 459.072 308.773 459.561C307.816 460.049 306.801 460.293 305.727 460.293C303.568 460.293 301.85 459.575 300.57 458.14C299.301 456.694 298.666 454.722 298.666 452.222V451.768C298.666 450.225 298.949 448.853 299.516 447.651C300.082 446.45 300.893 445.518 301.947 444.854C303.012 444.189 304.267 443.857 305.712 443.857C307.489 443.857 308.964 444.39 310.136 445.454C311.317 446.519 311.947 447.9 312.025 449.6H309.462C309.384 448.574 308.993 447.734 308.29 447.08C307.597 446.416 306.737 446.084 305.712 446.084C304.335 446.084 303.266 446.582 302.504 447.578C301.752 448.564 301.376 449.995 301.376 451.87V452.383C301.376 454.209 301.752 455.615 302.504 456.602C303.256 457.588 304.33 458.081 305.727 458.081ZM321.43 458.081C322.396 458.081 323.241 457.788 323.964 457.202C324.687 456.616 325.087 455.884 325.165 455.005H327.729C327.68 455.913 327.367 456.777 326.791 457.598C326.215 458.418 325.443 459.072 324.477 459.561C323.52 460.049 322.504 460.293 321.43 460.293C319.271 460.293 317.553 459.575 316.273 458.14C315.004 456.694 314.369 454.722 314.369 452.222V451.768C314.369 450.225 314.652 448.853 315.219 447.651C315.785 446.45 316.596 445.518 317.65 444.854C318.715 444.189 319.97 443.857 321.415 443.857C323.192 443.857 324.667 444.39 325.839 445.454C327.021 446.519 327.65 447.9 327.729 449.6H325.165C325.087 448.574 324.696 447.734 323.993 447.08C323.3 446.416 322.44 446.084 321.415 446.084C320.038 446.084 318.969 446.582 318.207 447.578C317.455 448.564 317.079 449.995 317.079 451.87V452.383C317.079 454.209 317.455 455.615 318.207 456.602C318.959 457.588 320.033 458.081 321.43 458.081ZM330.058 451.929C330.058 450.376 330.36 448.979 330.966 447.739C331.581 446.499 332.431 445.542 333.515 444.868C334.608 444.194 335.854 443.857 337.25 443.857C339.408 443.857 341.151 444.604 342.479 446.099C343.817 447.593 344.486 449.58 344.486 452.061V452.251C344.486 453.794 344.188 455.181 343.593 456.411C343.007 457.632 342.162 458.584 341.059 459.268C339.965 459.951 338.705 460.293 337.279 460.293C335.131 460.293 333.388 459.546 332.05 458.052C330.722 456.558 330.058 454.58 330.058 452.119V451.929ZM332.782 452.251C332.782 454.009 333.188 455.42 333.998 456.484C334.818 457.549 335.912 458.081 337.279 458.081C338.656 458.081 339.75 457.544 340.561 456.47C341.371 455.386 341.776 453.872 341.776 451.929C341.776 450.19 341.361 448.784 340.531 447.71C339.711 446.626 338.617 446.084 337.25 446.084C335.912 446.084 334.833 446.616 334.013 447.681C333.192 448.745 332.782 450.269 332.782 452.251ZM357.67 458.433C356.615 459.673 355.067 460.293 353.026 460.293C351.337 460.293 350.048 459.805 349.159 458.828C348.28 457.842 347.836 456.387 347.826 454.463V444.15H350.536V454.39C350.536 456.792 351.513 457.993 353.466 457.993C355.536 457.993 356.913 457.222 357.597 455.679V444.15H360.307V460H357.729L357.67 458.433ZM367.001 444.15L367.089 446.143C368.3 444.619 369.882 443.857 371.835 443.857C375.185 443.857 376.874 445.747 376.903 449.526V460H374.193V449.512C374.184 448.369 373.92 447.524 373.402 446.978C372.895 446.431 372.099 446.157 371.015 446.157C370.136 446.157 369.364 446.392 368.7 446.86C368.036 447.329 367.519 447.944 367.147 448.706V460H364.438V444.15H367.001ZM384.667 440.312V444.15H387.626V446.245H384.667V456.074C384.667 456.709 384.799 457.188 385.062 457.51C385.326 457.822 385.775 457.979 386.41 457.979C386.723 457.979 387.152 457.92 387.699 457.803V460C386.986 460.195 386.293 460.293 385.619 460.293C384.408 460.293 383.495 459.927 382.88 459.194C382.265 458.462 381.957 457.422 381.957 456.074V446.245H379.071V444.15H381.957V440.312H384.667Z" fill="#3F3F3F"/>
<path d="M285.614 478.15L285.702 480.143C286.913 478.619 288.495 477.857 290.448 477.857C293.798 477.857 295.487 479.747 295.517 483.526V494H292.807V483.512C292.797 482.369 292.533 481.524 292.016 480.978C291.508 480.431 290.712 480.157 289.628 480.157C288.749 480.157 287.978 480.392 287.313 480.86C286.649 481.329 286.132 481.944 285.761 482.706V494H283.051V478.15H285.614ZM309.389 492.433C308.334 493.673 306.786 494.293 304.745 494.293C303.056 494.293 301.767 493.805 300.878 492.828C299.999 491.842 299.555 490.387 299.545 488.463V478.15H302.255V488.39C302.255 490.792 303.231 491.993 305.185 491.993C307.255 491.993 308.632 491.222 309.315 489.679V478.15H312.025V494H309.447L309.389 492.433ZM318.705 478.15L318.778 479.908C319.94 478.541 321.508 477.857 323.48 477.857C325.697 477.857 327.206 478.707 328.007 480.406C328.534 479.645 329.218 479.029 330.058 478.561C330.907 478.092 331.908 477.857 333.061 477.857C336.537 477.857 338.305 479.698 338.363 483.38V494H335.653V483.541C335.653 482.408 335.395 481.563 334.877 481.007C334.359 480.44 333.49 480.157 332.27 480.157C331.264 480.157 330.429 480.46 329.765 481.065C329.101 481.661 328.715 482.467 328.607 483.482V494H325.883V483.614C325.883 481.31 324.755 480.157 322.499 480.157C320.722 480.157 319.506 480.914 318.852 482.428V494H316.142V478.15H318.705ZM355.883 486.251C355.883 488.673 355.326 490.621 354.213 492.096C353.1 493.561 351.605 494.293 349.73 494.293C347.729 494.293 346.181 493.585 345.087 492.169L344.955 494H342.465V471.5H345.175V479.894C346.269 478.536 347.777 477.857 349.701 477.857C351.625 477.857 353.134 478.585 354.228 480.04C355.331 481.495 355.883 483.487 355.883 486.017V486.251ZM353.173 485.943C353.173 484.098 352.816 482.672 352.104 481.666C351.391 480.66 350.365 480.157 349.027 480.157C347.24 480.157 345.956 480.987 345.175 482.647V489.503C346.005 491.163 347.299 491.993 349.057 491.993C350.355 491.993 351.366 491.49 352.089 490.484C352.812 489.479 353.173 487.965 353.173 485.943ZM365.888 494.293C363.739 494.293 361.991 493.59 360.644 492.184C359.296 490.768 358.622 488.878 358.622 486.515V486.017C358.622 484.444 358.92 483.043 359.516 481.812C360.121 480.572 360.961 479.605 362.035 478.912C363.119 478.209 364.291 477.857 365.551 477.857C367.611 477.857 369.213 478.536 370.355 479.894C371.498 481.251 372.069 483.194 372.069 485.724V486.852H361.332C361.371 488.414 361.825 489.679 362.694 490.646C363.573 491.603 364.687 492.081 366.034 492.081C366.991 492.081 367.802 491.886 368.466 491.495C369.13 491.104 369.711 490.587 370.209 489.942L371.864 491.231C370.536 493.272 368.544 494.293 365.888 494.293ZM365.551 480.084C364.457 480.084 363.539 480.484 362.797 481.285C362.055 482.076 361.596 483.189 361.42 484.625H369.359V484.42C369.281 483.043 368.91 481.979 368.246 481.227C367.582 480.465 366.684 480.084 365.551 480.084ZM382.88 480.582C382.47 480.514 382.025 480.479 381.547 480.479C379.77 480.479 378.563 481.236 377.929 482.75V494H375.219V478.15H377.855L377.899 479.981C378.788 478.565 380.048 477.857 381.679 477.857C382.206 477.857 382.606 477.926 382.88 478.062V480.582Z" fill="#3F3F3F"/>
</svg>
