<svg width="198" height="27" viewBox="0 0 198 27" fill="none" xmlns="http://www.w3.org/2000/svg">
<path d="M197.585 12.0197H195.212L195.223 17.3511C195.223 17.5671 195.254 17.7274 195.317 17.8319C195.386 17.9365 195.481 18.0062 195.599 18.041C195.718 18.0759 195.864 18.0933 196.038 18.0933H197.606V20.2363C197.46 20.299 197.233 20.3618 196.927 20.4245C196.62 20.4942 196.171 20.529 195.578 20.529C194.54 20.529 193.735 20.4001 193.163 20.1422C192.599 19.8774 192.205 19.5185 191.982 19.0655C191.766 18.6055 191.658 18.0863 191.658 17.5079V12.0197H189.902V9.58393H191.783L192.693 6.27008H195.212V9.56302H197.585V12.0197Z" fill="black"/>
<path d="M178.574 20.3931V9.58392H182.086V11.0997C182.24 10.8488 182.442 10.6014 182.693 10.3575C182.951 10.1136 183.275 9.91147 183.665 9.75118C184.062 9.59089 184.543 9.51074 185.108 9.51074C185.756 9.51074 186.366 9.63619 186.937 9.88708C187.515 10.138 187.986 10.5387 188.348 11.0893C188.711 11.6329 188.892 12.3472 188.892 13.2323V20.3931H185.317V13.7027C185.317 13.2288 185.163 12.8734 184.857 12.6364C184.55 12.3925 184.198 12.2705 183.801 12.2705C183.536 12.2705 183.275 12.3228 183.017 12.4273C182.759 12.5249 182.546 12.6747 182.379 12.8769C182.212 13.072 182.128 13.3194 182.128 13.6191V20.3931H178.574Z" fill="black"/>
<path d="M169.782 15.8039C169.775 16.2987 169.851 16.7168 170.012 17.0583C170.172 17.3929 170.398 17.6472 170.691 17.8215C170.984 17.9957 171.325 18.0828 171.716 18.0828C172.162 18.0828 172.555 17.9922 172.897 17.811C173.245 17.6228 173.5 17.2988 173.66 16.8388H176.838C176.719 17.6263 176.406 18.3023 175.897 18.8668C175.395 19.4244 174.782 19.853 174.057 20.1527C173.332 20.4523 172.583 20.6022 171.81 20.6022C170.709 20.6022 169.74 20.3757 168.904 19.9227C168.074 19.4697 167.426 18.832 166.959 18.0096C166.499 17.1873 166.269 16.222 166.269 15.1139C166.269 14.0616 166.482 13.1033 166.907 12.2391C167.332 11.368 167.945 10.6746 168.747 10.1588C169.548 9.63616 170.513 9.37482 171.642 9.37482C172.785 9.37482 173.74 9.61525 174.507 10.0961C175.273 10.57 175.848 11.2251 176.232 12.0614C176.622 12.8908 176.817 13.8421 176.817 14.9153V15.8039H169.782ZM169.771 13.7549H173.514C173.514 13.3995 173.444 13.0755 173.305 12.7827C173.165 12.4831 172.956 12.2461 172.677 12.0719C172.399 11.8977 172.054 11.8105 171.642 11.8105C171.266 11.8105 170.939 11.9046 170.66 12.0928C170.381 12.274 170.161 12.5144 170.001 12.8141C169.841 13.1068 169.764 13.4204 169.771 13.7549Z" fill="black"/>
<path d="M147.904 20.3931V9.58389H151.395V11.0997C151.737 10.6258 152.193 10.2216 152.765 9.88705C153.336 9.54556 154.04 9.37482 154.876 9.37482C155.239 9.37482 155.608 9.44102 155.984 9.57344C156.361 9.69888 156.713 9.89054 157.04 10.1484C157.375 10.3993 157.657 10.7129 157.887 11.0892C158.235 10.6153 158.692 10.2111 159.256 9.8766C159.821 9.54208 160.452 9.37482 161.148 9.37482C161.553 9.37482 161.964 9.44799 162.382 9.59435C162.8 9.73373 163.18 9.95674 163.521 10.2634C163.87 10.5631 164.149 10.9568 164.358 11.4447C164.574 11.9325 164.682 12.5284 164.682 13.2323V20.3931H161.117V13.7027C161.117 13.3612 161.04 13.0859 160.887 12.8768C160.741 12.6608 160.553 12.504 160.323 12.4064C160.093 12.3019 159.852 12.2496 159.601 12.2496C159.364 12.2496 159.127 12.2984 158.89 12.396C158.653 12.4935 158.455 12.6434 158.295 12.8455C158.134 13.0476 158.054 13.3054 158.054 13.619V20.3931H154.5V13.5668C154.5 13.281 154.423 13.0406 154.27 12.8455C154.123 12.6503 153.935 12.504 153.705 12.4064C153.482 12.3019 153.249 12.2496 153.005 12.2496C152.768 12.2496 152.528 12.3019 152.284 12.4064C152.047 12.504 151.848 12.6538 151.688 12.8559C151.534 13.058 151.458 13.3124 151.458 13.619V20.3931H147.904Z" fill="black"/>
<path d="M135.508 20.3931V9.58392H139.021V11.0997C139.174 10.8488 139.376 10.6014 139.627 10.3575C139.885 10.1136 140.209 9.91147 140.599 9.75118C140.997 9.59089 141.477 9.51074 142.042 9.51074C142.69 9.51074 143.3 9.63619 143.871 9.88708C144.45 10.138 144.92 10.5387 145.283 11.0893C145.645 11.6329 145.826 12.3472 145.826 13.2323V20.3931H142.251V13.7027C142.251 13.2288 142.098 12.8734 141.791 12.6364C141.484 12.3925 141.132 12.2705 140.735 12.2705C140.47 12.2705 140.209 12.3228 139.951 12.4273C139.693 12.5249 139.481 12.6747 139.313 12.8769C139.146 13.072 139.063 13.3194 139.063 13.6191V20.3931H135.508Z" fill="black"/>
<path d="M126.972 20.3931V9.58389H130.401V12.3541C130.568 11.7896 130.809 11.2844 131.122 10.8383C131.443 10.3853 131.837 10.0299 132.304 9.77206C132.77 9.50723 133.311 9.37482 133.924 9.37482C134.001 9.37482 134.067 9.3783 134.122 9.38527C134.185 9.38527 134.224 9.39224 134.237 9.40618V12.7827C134.203 12.7688 134.157 12.7584 134.102 12.7514C134.053 12.7444 134.001 12.7409 133.945 12.7409C133.262 12.6712 132.697 12.6817 132.251 12.7723C131.812 12.8629 131.464 13.0092 131.206 13.2113C130.955 13.4135 130.777 13.6539 130.673 13.9327C130.575 14.2114 130.526 14.5146 130.526 14.8421V20.3931H126.972Z" fill="black"/>
<path d="M118.18 15.8039C118.173 16.2987 118.249 16.7168 118.41 17.0583C118.57 17.3929 118.797 17.6472 119.089 17.8215C119.382 17.9957 119.723 18.0828 120.114 18.0828C120.56 18.0828 120.953 17.9922 121.295 17.811C121.643 17.6228 121.898 17.2988 122.058 16.8388H125.236C125.118 17.6263 124.804 18.3023 124.295 18.8668C123.793 19.4244 123.18 19.853 122.455 20.1527C121.731 20.4523 120.981 20.6022 120.208 20.6022C119.107 20.6022 118.138 20.3757 117.302 19.9227C116.472 19.4697 115.824 18.832 115.357 18.0096C114.897 17.1873 114.667 16.222 114.667 15.1139C114.667 14.0616 114.88 13.1033 115.305 12.2391C115.73 11.368 116.343 10.6746 117.145 10.1588C117.946 9.63616 118.912 9.37482 120.041 9.37482C121.183 9.37482 122.138 9.61525 122.905 10.0961C123.671 10.57 124.246 11.2251 124.63 12.0614C125.02 12.8908 125.215 13.8421 125.215 14.9153V15.8039H118.18ZM118.169 13.7549H121.912C121.912 13.3995 121.842 13.0755 121.703 12.7827C121.563 12.4831 121.354 12.2461 121.075 12.0719C120.797 11.8977 120.452 11.8105 120.041 11.8105C119.664 11.8105 119.337 11.9046 119.058 12.0928C118.779 12.274 118.56 12.5144 118.399 12.8141C118.239 13.1068 118.162 13.4204 118.169 13.7549Z" fill="black"/>
<path d="M114.455 9.58392L110.315 20.3931H107.9L103.771 9.58392H106.96L109.092 15.783H109.134L111.214 9.58392H114.455Z" fill="black"/>
<path d="M98.2193 20.6022C97.1321 20.6022 96.1878 20.3722 95.3863 19.9122C94.5849 19.4453 93.9611 18.7971 93.5151 17.9678C93.076 17.1315 92.8565 16.1593 92.8565 15.0512C92.8565 13.9222 93.0795 12.9326 93.5255 12.0823C93.9785 11.2251 94.6093 10.5596 95.4177 10.0857C96.2261 9.61177 97.1635 9.37482 98.2297 9.37482C99.3309 9.37482 100.279 9.61525 101.073 10.0961C101.875 10.57 102.491 11.2356 102.923 12.0928C103.356 12.943 103.572 13.9292 103.572 15.0512C103.572 16.1314 103.356 17.0897 102.923 17.926C102.498 18.7553 101.885 19.4104 101.084 19.8913C100.282 20.3652 99.3274 20.6022 98.2193 20.6022ZM98.2297 17.9887C98.7176 17.9887 99.0974 17.8389 99.3692 17.5392C99.641 17.2326 99.8327 16.8458 99.9442 16.3788C100.056 15.9049 100.111 15.4241 100.111 14.9362C100.111 14.4553 100.059 13.9849 99.9546 13.525C99.8501 13.065 99.6619 12.6887 99.3901 12.396C99.1183 12.0963 98.7315 11.9464 98.2297 11.9464C97.7419 11.9464 97.3586 12.0928 97.0798 12.3855C96.808 12.6712 96.6129 13.0441 96.4944 13.5041C96.3829 13.9571 96.3272 14.4344 96.3272 14.9362C96.3272 15.4101 96.3794 15.884 96.484 16.3579C96.5955 16.8249 96.7871 17.2151 97.0589 17.5288C97.3377 17.8354 97.728 17.9887 98.2297 17.9887Z" fill="black"/>
<path d="M84.1955 20.6022C82.7877 20.6022 81.5576 20.2816 80.5053 19.6404C79.4599 18.9993 78.648 18.1002 78.0696 16.9434C77.4981 15.7865 77.2123 14.4344 77.2123 12.8873C77.2123 11.2983 77.5155 9.91842 78.1218 8.7476C78.7281 7.57678 79.5714 6.67078 80.6516 6.02962C81.7319 5.38845 82.9828 5.06787 84.4045 5.06787C85.3593 5.06787 86.2235 5.21771 86.9971 5.51738C87.7776 5.81009 88.4467 6.21082 89.0042 6.71957C89.5687 7.22832 90.0043 7.80676 90.3109 8.45489C90.6176 9.09606 90.7813 9.76161 90.8022 10.4516H87.0702C86.9727 10.0055 86.8054 9.60132 86.5685 9.23892C86.3385 8.86956 86.0318 8.57685 85.6485 8.36081C85.2722 8.14476 84.8297 8.03674 84.3209 8.03674C83.7355 8.03674 83.1989 8.19006 82.711 8.49671C82.2232 8.80335 81.8329 9.30513 81.5402 10.002C81.2475 10.692 81.1011 11.6189 81.1011 12.7828C81.1011 13.7445 81.1987 14.532 81.3938 15.1453C81.596 15.7586 81.8608 16.236 82.1883 16.5775C82.5159 16.919 82.8783 17.1594 83.2755 17.2988C83.6728 17.4312 84.07 17.4974 84.4673 17.4974C84.8366 17.4974 85.1677 17.4382 85.4604 17.3197C85.76 17.2012 86.0179 17.0479 86.2339 16.8597C86.457 16.6716 86.6382 16.466 86.7775 16.2429C86.9169 16.0199 87.0075 15.7969 87.0493 15.5739L87.2061 14.8421H84.3209V12.4169L90.9486 12.4482V20.3931H88.5651V18.5741C88.3142 18.8738 88.0041 19.1805 87.6347 19.4941C87.2724 19.8077 86.8159 20.0725 86.2653 20.2886C85.7147 20.4976 85.0248 20.6022 84.1955 20.6022Z" fill="black"/>
<path fill-rule="evenodd" clip-rule="evenodd" d="M21.4015 16.0949C21.4015 22.8138 17.4849 26.1268 10.685 26.1268C4.01064 26.1268 0 22.9391 0 16.0949V0.499878H5.54629V16.0949C5.54629 19.6261 6.89323 21.5327 10.685 21.5327C14.4767 21.5327 15.9177 19.8766 15.9177 16.0949V0.499878H21.4015V16.0949Z" fill="#0808FF"/>
<path fill-rule="evenodd" clip-rule="evenodd" d="M53.1145 0.499634L43.5884 25.5017H49.1656L51.172 20.0016H60.4784L62.421 25.5017H68.1546L58.7863 0.499634H53.1145ZM55.8717 6.74956H55.9341L59.0994 15.9069H52.4875L55.8717 6.74956Z" fill="black"/>
<path fill-rule="evenodd" clip-rule="evenodd" d="M28.3895 4.00003C28.3895 1.87512 30.9592 1.03132 33.2154 1.03132C36.9124 1.03132 38.8556 2.96871 39.0437 6.68748L43.5868 6.15642C42.5843 1.53089 37.79 0 33.0898 0C28.8596 0 24.6918 2.74972 24.6918 7.12546C24.6918 15.8448 40.2657 14.5945 40.2657 21.4387C40.2657 23.8763 38.2285 24.8762 34.9699 24.8762C30.9592 24.8762 28.6716 21.7822 28.3271 18.0634L23.4697 18.5945C24.5978 23.5636 29.2356 26.1265 34.4059 26.1265C39.1377 26.1265 44.0259 23.9386 44.0259 18.2824C44.0259 10.0627 28.3895 10.9695 28.3895 4.00003" fill="#FF2000"/>
</svg>
