<?xml version="1.0" encoding="UTF-8"?>
<svg width="752pt" height="752pt" version="1.1" viewBox="0 0 752 752" xmlns="http://www.w3.org/2000/svg">
 <path d="m278.49 445.17-56.504 56.488c-3.6953 3.6953-9.6914 3.6953-13.398 0-1.8477-1.8477-2.7695-4.2773-2.7695-6.6914v-60.695c-13.227-2.0586-25.117-8.3672-34.211-17.461-11.223-11.195-18.188-26.684-18.188-43.703v-116.05c0-17.02 6.9609-32.492 18.172-43.703 11.211-11.211 26.695-18.172 43.703-18.172h199.55c17.02 0 32.492 6.9609 43.703 18.172 9.0938 9.0938 15.387 20.984 17.445 34.242h60.707c17.02 0 32.492 6.9609 43.703 18.172 11.211 11.211 18.172 26.695 18.172 43.703v116.06c0 17.02-6.9609 32.492-18.172 43.703-9.0938 9.0938-20.984 15.387-34.227 17.445v60.695c0 2.4141-0.92188 4.8438-2.7852 6.6914-3.6953 3.6953-9.6914 3.6953-13.398 0l-66.676-66.66h-126.18c-17.02 0-32.492-6.9609-43.703-18.172-6.6914-6.6914-11.863-14.902-14.961-24.055zm101.14-150.27c11.141 0 20.176 9.0352 20.176 20.176 0 11.152-9.0352 20.176-20.176 20.176-11.152 0-20.176-9.0352-20.176-20.176s9.0352-20.176 20.176-20.176zm-64.559 0c11.141 0 20.176 9.0352 20.176 20.176 0 11.152-9.0352 20.176-20.176 20.176-11.152 0-20.176-9.0352-20.176-20.176s9.0352-20.176 20.176-20.176zm-64.559 0c11.152 0 20.176 9.0352 20.176 20.176 0 11.152-9.0352 20.176-20.176 20.176-11.152 0-20.176-9.0352-20.176-20.176s9.0352-20.176 20.176-20.176zm226.21-28.359v106.57c0 17.02-6.9609 32.508-18.172 43.715l-0.53906 0.49609c-11.18 10.926-26.441 17.676-43.176 17.676h-119.56c1.832 8.0273 5.9258 15.203 11.551 20.844 7.7734 7.7734 18.527 12.617 30.32 12.617h130.1c2.7148 0 5.1719 1.1523 6.9062 2.9844l53.078 53.066v-46.574c0-5.2266 4.25-9.4766 9.4766-9.4766 11.805 0 22.547-4.8438 30.32-12.617 7.7734-7.7734 12.617-18.512 12.617-30.32v-116.06c0-11.793-4.8438-22.547-12.617-30.32-7.7734-7.7734-18.512-12.617-30.32-12.617h-59.984zm-251.96 205.57 52.965-52.953c1.7891-1.875 4.0625-3.1133 7.0195-3.1133h130.1c11.621 0 22.18-4.6602 29.906-12.176l0.41016-0.44141c7.7734-7.7734 12.617-18.527 12.617-30.32v-116.05c0-11.793-4.8438-22.547-12.617-30.32-7.7734-7.7734-18.512-12.617-30.32-12.617h-199.55c-11.793 0-22.547 4.8438-30.32 12.617-7.7734 7.7734-12.617 18.527-12.617 30.32v116.05c0 11.805 4.8438 22.547 12.617 30.32 7.7578 7.8008 18.5 12.617 30.32 12.617 5.2266 0 9.4766 4.25 9.4766 9.4766v46.574z"/>
</svg>
