<?xml version="1.0" encoding="UTF-8"?>
<svg width="752pt" height="752pt" version="1.1" viewBox="0 0 752 752" xmlns="http://www.w3.org/2000/svg">
 <path d="m425.73 376 164.8-164.8c13.734-13.734 13.734-35.992 0-49.727s-35.992-13.734-49.727 0l-164.8 164.81-164.8-164.81c-13.734-13.734-35.992-13.734-49.727 0s-13.734 35.992 0 49.727l164.81 164.8-164.81 164.81c-13.734 13.734-13.734 35.992 0 49.727 6.6289 6.6289 15.629 10.418 24.625 10.418s17.996-3.3164 24.625-10.418l165.28-164.81 164.8 164.8c6.6289 6.6289 15.629 10.418 24.625 10.418 8.9961 0 17.996-3.3164 24.625-10.418 13.734-13.734 13.734-35.992 0-49.727z"/>
</svg>
