<?xml version="1.0" encoding="utf-8" standalone="yes"?><!-- Generator: Adobe Illustrator 25.2.1, SVG Export Plug-In . SVG Version: 6.00 Build 0)  --><svg xmlns="http://www.w3.org/2000/svg" xmlns:xlink="http://www.w3.org/1999/xlink" version="1.2" baseProfile="tiny-ps" viewBox="0 0 1000 1000" xml:space="preserve"><title>VA</title><rect id="BG" fill="#102E50" width="1000" height="1000"></rect><g id="VA_1_"><path id="A" fill="#FFFFFF" d="M264.1,733.8L117.4,266.2h113.4l55.7,197.8c15.6,56.2,29.9,108.9,40.7,167.2h2   c11.5-56.2,25.8-111.7,41.4-165.1l58.4-199.9h110L384.9,733.8H264.1z"></path><path id="V" fill="#FFFFFF" d="M603.6,613.8l-32.6,120H464.4l139.2-467.7h135.8L882,733.8H770l-35.3-120H603.6z M719.7,534.7   l-28.5-99.2c-8.1-27.8-16.3-62.4-23.1-90.2h-1.4c-6.8,27.8-13.6,63.1-21.1,90.2l-27.2,99.2H719.7z"></path></g></svg>