<svg id="f95f543b-df9d-4372-bbd3-8ffe27b94241" data-name="Layer 1" xmlns="http://www.w3.org/2000/svg" xmlns:xlink="http://www.w3.org/1999/xlink" viewBox="0 0 1000 1000"><defs><style>.ac7cbc1e-60ba-4438-ab71-334bae697284{fill:#112e51;}.b0e0b333-d2bf-464d-943c-b7d793def838{clip-path:url(#baf52460-f15f-42b4-88d4-36d440e3176e);}.b7d5ac9d-e00d-477d-90b4-c25a14270a1f{fill:#fff;}</style><clipPath id="baf52460-f15f-42b4-88d4-36d440e3176e"><rect class="ac7cbc1e-60ba-4438-ab71-334bae697284" width="1000" height="1000"/></clipPath></defs><rect class="ac7cbc1e-60ba-4438-ab71-334bae697284" width="1000" height="1000"/><g class="b0e0b333-d2bf-464d-943c-b7d793def838"><path class="b7d5ac9d-e00d-477d-90b4-c25a14270a1f" d="M264.08,733.84,117.41,266.16H230.82l55.67,197.76c15.63,56.21,29.88,108.93,40.75,167.24h2C340.82,575,355.08,519.44,370.69,466L429.1,266.16h110L385,733.84Z"/><path class="b7d5ac9d-e00d-477d-90b4-c25a14270a1f" d="M603.58,613.79,571,733.84H464.38l139.2-467.68H739.4L882,733.84H770L734.64,613.79ZM719.71,534.7l-28.53-99.23c-8.15-27.76-16.3-62.42-23.09-90.21h-1.35c-6.79,27.79-13.58,63.15-21.06,90.21L618.52,534.7Z"/></g></svg>