<svg xmlns="http://www.w3.org/2000/svg" viewBox="0 0 96 60" width="96px" height="60px"><path d="M58 14c-3.3137 0-6-2.6863-6-6s2.6863-6 6-6 6 2.6863 6 6-2.6863 6-6 6zm16 0c-3.3137 0-6-2.6863-6-6s2.6863-6 6-6 6 2.6863 6 6-2.6863 6-6 6zm16 0c-3.3137 0-6-2.6863-6-6s2.6863-6 6-6 6 2.6863 6 6-2.6863 6-6 6zM58 30c-3.3137 0-6-2.6863-6-6s2.6863-6 6-6 6 2.6863 6 6-2.6863 6-6 6zm16 0c-3.3137 0-6-2.6863-6-6s2.6863-6 6-6 6 2.6863 6 6-2.6863 6-6 6zm16 0c-3.3137 0-6-2.6863-6-6s2.6863-6 6-6 6 2.6863 6 6-2.6863 6-6 6zM58 46c-3.3137 0-6-2.6863-6-6s2.6863-6 6-6 6 2.6863 6 6-2.6863 6-6 6zm16 0c-3.3137 0-6-2.6863-6-6s2.6863-6 6-6 6 2.6863 6 6-2.6863 6-6 6zm16 0c-3.3137 0-6-2.6863-6-6s2.6863-6 6-6 6 2.6863 6 6-2.6863 6-6 6zm-48 2L32 60h-2V48H4c-2.20914 0-4-1.79086-4-4V4c0-2.20914 1.79086-4 4-4h40c2.20914 0 4 1.79086 4 4v40c0 2.20914-1.79086 4-4 4h-2zM24 31.72174L33.86667 39l-3.73334-11.86087L40 20.13043H28L24 8l-4 12.13043H8l9.86667 7.0087L14.13333 39 24 31.72174z" fill="#FFF" fill-rule="evenodd"/></svg>