<?xml version="1.0" encoding="UTF-8" standalone="no"?>
<svg width="30px" height="30px" viewBox="0 0 30 30" version="1.1" xmlns="http://www.w3.org/2000/svg" xmlns:xlink="http://www.w3.org/1999/xlink" xmlns:sketch="http://www.bohemiancoding.com/sketch/ns">
    <!-- Generator: Sketch 3.5.1 (25234) - http://www.bohemiancoding.com/sketch -->
    <title>White down</title>
    <desc>Created with Sketch.</desc>
    <defs>
        <path id="path-1" d="M0,0.0975906278 L24.9110667,0.0975906278 L24.9110667,24.734748 L0,24.734748"></path>
    </defs>
    <g id="Page-1" stroke="none" stroke-width="1" fill="none" fill-rule="evenodd" sketch:type="MSPage">
        <g id="White-down" sketch:type="MSArtboardGroup">
            <g id="Page-1" sketch:type="MSLayerGroup" transform="translate(3.000000, 3.000000)">
                <mask id="mask-2" sketch:name="Clip 2" fill="white">
                    <use xlink:href="#path-1"></use>
                </mask>
                <g id="Clip-2"></g>
                <path d="M21.652789,12.3133974 L13.4880804,18.253141 C13.1884328,18.4715539 12.8301386,18.5884637 12.4553501,18.5884637 C12.0814779,18.5884637 11.7250164,18.4724602 11.4235362,18.2540473 L3.25791118,12.3133974 C2.88312265,12.0406079 2.63753994,11.6391269 2.56789709,11.1841755 C2.49733788,10.7283179 2.6109657,10.2742728 2.88678806,9.90269894 C3.21392622,9.46315429 3.73899671,9.20033378 4.2915578,9.20033378 C4.66542998,9.20033378 5.0228078,9.31633731 5.32337171,9.5356565 L12.4553501,14.7240959 L19.5873285,9.5356565 C19.8888087,9.31633731 20.2452702,9.20033378 20.6191424,9.20033378 C21.1717035,9.20033378 21.696774,9.46315429 22.0239121,9.90360522 C22.2997345,10.2742728 22.4133623,10.7292241 22.3428031,11.1841755 C22.2731602,11.6400332 22.0275775,12.0406079 21.652789,12.3133974 M12.4553501,0.0976812555 C5.57628524,0.0976812555 0.000274906014,5.61328691 0.000274906014,12.4167131 C0.000274906014,19.219233 5.57628524,24.7348386 12.4553501,24.7348386 C19.3344149,24.7348386 24.9104253,19.219233 24.9104253,12.4167131 C24.9104253,5.61328691 19.3344149,0.0976812555 12.4553501,0.0976812555" id="Fill-1" fill="#FFFFFF" sketch:type="MSShapeGroup" mask="url(#mask-2)"></path>
            </g>
        </g>
    </g>
</svg>