<?xml version="1.0" encoding="UTF-8"?>
<!DOCTYPE svg PUBLIC "-//W3C//DTD SVG 1.1//EN" "http://www.w3.org/Graphics/SVG/1.1/DTD/svg11.dtd">
<svg version="1.1" xmlns="http://www.w3.org/2000/svg" xmlns:xlink="http://www.w3.org/1999/xlink" x="0" y="0" width="40" height="66.182" viewBox="0, 0, 40, 66.182">
  <g id="Layer_1">
    <g>
      <g id="svg_2">
        <path d="M20.051,62.281 C18.641,55.361 16.156,49.602 13.145,44.265 C10.912,40.306 8.325,36.652 5.932,32.813 C5.133,31.531 4.443,30.177 3.676,28.847 C2.141,26.188 0.896,23.104 0.975,19.104 C1.052,15.196 2.183,12.061 3.812,9.498 C6.493,5.282 10.983,1.826 17.008,0.917 C21.934,0.175 26.553,1.429 29.828,3.344 C32.504,4.91 34.577,7 36.152,9.464 C37.797,12.035 38.929,15.073 39.024,19.036 C39.073,21.066 38.74,22.946 38.272,24.506 C37.798,26.084 37.036,27.404 36.358,28.813 C35.034,31.564 33.374,34.085 31.708,36.607 C26.747,44.12 22.09,51.782 20.051,62.281 z" fill="#F781BF"/>
        <path d="M20.051,62.281 C18.641,55.361 16.156,49.602 13.145,44.265 C10.912,40.306 8.325,36.652 5.932,32.813 C5.133,31.531 4.443,30.177 3.676,28.847 C2.141,26.188 0.896,23.104 0.975,19.104 C1.052,15.196 2.183,12.061 3.812,9.498 C6.493,5.282 10.983,1.826 17.008,0.917 C21.934,0.175 26.553,1.429 29.828,3.344 C32.504,4.91 34.577,7 36.152,9.464 C37.797,12.035 38.929,15.073 39.024,19.036 C39.073,21.066 38.74,22.946 38.272,24.506 C37.798,26.084 37.036,27.404 36.358,28.813 C35.034,31.564 33.374,34.085 31.708,36.607 C26.747,44.12 22.09,51.782 20.051,62.281 z" fill-opacity="0" stroke="#000000" stroke-width="1.345" stroke-miterlimit="10"/>
      </g>
      <path d="M26.812,17.933 C26.812,21.615 23.828,24.599 20.146,24.599 C16.464,24.599 13.479,21.615 13.479,17.933 C13.479,14.251 16.464,11.266 20.146,11.266 C23.828,11.266 26.812,14.251 26.812,17.933 z" fill="#000000" id="svg_4"/>
    </g>
  </g>
</svg>
