<svg xmlns="http://www.w3.org/2000/svg" viewBox="0 0 23 39" width="23px" height="39px"><path d="M.63515 25.61945c.39808.43787.9147.63641 1.50916.63641.5573 0 1.07215-.19854 1.47023-.6364.437-.39887.63515-.91473.63515-1.47314v-7.79823h1.42954V36.6015c0 .6754.23885 1.23382.71477 1.74968.51662.47864 1.11108.71618 1.78692.71618.67585 0 1.23139-.23754 1.748-.71618.47593-.51586.71477-1.07427.71477-1.79045V26.25586h1.42954v10.30487c0 .71618.23885 1.27459.71477 1.79045.51662.47864 1.07215.71618 1.74623.71618.67585 0 1.27208-.23754 1.78692-.71618.4777-.51586.71654-1.07427.71654-1.74968V16.3481h1.38885v7.79822c0 .5584.19815 1.07427.63515 1.47313.39808.43787.9147.63641 1.50916.63641.55553 0 1.07215-.19854 1.47023-.6364.437-.39887.63515-.91473.63515-1.47314v-9.2306c0-1.19481-.39808-2.18931-1.23138-3.02427-.83331-.83495-1.82585-1.23381-3.01831-1.23381H4.24969c-1.19069 0-2.18323.39886-3.0183 1.23381C.39807 12.72641 0 13.72091 0 14.91573v9.23059c0 .5584.19992 1.07427.63515 1.47313zm10.72331-15.639c1.38885 0 2.54062-.47686 3.53316-1.47136.95361-.9555 1.42953-2.10954 1.42953-3.50114 0-1.39336-.47592-2.5474-1.42953-3.50113C13.89908.51055 12.7473.03368 11.35846.03368c-1.39061 0-2.54238.47687-3.53492 1.47314C6.86992 2.46055 6.394 3.61459 6.394 5.00795c0 1.3916.47592 2.54564 1.42954 3.50114.99254.9945 2.1443 1.47136 3.53492 1.47136z" fill="#757575" fill-rule="evenodd"/></svg>