<svg xmlns="http://www.w3.org/2000/svg" viewBox="0 0 23 39" width="23px" height="39px"><path d="M.63515 25.58577c.39808.43787.9147.63641 1.50916.63641.5573 0 1.07215-.19854 1.47023-.6364.437-.39887.63515-.91473.63515-1.47314V16.3144h1.42954v20.2534c0 .67542.23885 1.23383.71477 1.74969.51662.47864 1.11108.71618 1.78692.71618.67585 0 1.23139-.23754 1.748-.71618.47593-.51586.71477-1.07427.71477-1.79045V26.22218h1.42954v10.30487c0 .71618.23885 1.27459.71477 1.79045.51662.47864 1.07215.71618 1.74623.71618.67585 0 1.27208-.23754 1.78692-.71618.4777-.51586.71654-1.07427.71654-1.74968V16.3144h1.38885v7.79823c0 .5584.19815 1.07427.63515 1.47313.39808.43787.9147.63641 1.50916.63641.55553 0 1.07215-.19854 1.47023-.6364.437-.39887.63515-.91473.63515-1.47314v-9.2306c0-1.19481-.39808-2.18931-1.23138-3.02427-.83331-.83495-1.82585-1.23382-3.01831-1.23382H4.24969c-1.19069 0-2.18323.39887-3.0183 1.23382C.39807 12.69273 0 13.68723 0 14.88205v9.23059c0 .5584.19992 1.07427.63515 1.47313zm10.72331-15.639c1.38885 0 2.54062-.47686 3.53316-1.47136.95361-.9555 1.42953-2.10955 1.42953-3.50114 0-1.39336-.47592-2.5474-1.42953-3.50113C13.89908.47686 12.7473 0 11.35846 0 9.96785 0 8.81608.47686 7.82354 1.47314 6.86992 2.42686 6.394 3.5809 6.394 4.97427c0 1.3916.47592 2.54564 1.42954 3.50114.99254.9945 2.1443 1.47136 3.53492 1.47136z" fill="#02BFE7" fill-rule="evenodd"/></svg>