<svg xmlns="http://www.w3.org/2000/svg" viewBox="0 0 23 39" width="23px" height="39px"><path d="M.76962 25.04864c.39807.43786.91469.6364 1.50915.6364.5573 0 1.07215-.19854 1.47023-.6364.437-.39887.63515-.91473.63515-1.47314v-7.79823H5.8137v20.25341c0 .67541.23885 1.23382.71477 1.74968.51662.47864 1.11108.71619 1.78692.71619.67585 0 1.23139-.23755 1.748-.71619.47593-.51586.71477-1.07427.71477-1.79045V25.68505h1.42954V35.9899c0 .71618.23885 1.27459.71477 1.79045.51662.47864 1.07216.71619 1.74623.71619.67585 0 1.27208-.23755 1.78693-.71619.47769-.51586.71653-1.07427.71653-1.74968v-20.2534H18.561v7.79822c0 .5584.19815 1.07427.63515 1.47314.39808.43786.9147.6364 1.50916.6364.55554 0 1.07215-.19854 1.47023-.6364.437-.39887.63515-.91473.63515-1.47314v-9.2306c0-1.1948-.39807-2.1893-1.23138-3.02426-.83331-.83496-1.82585-1.23382-3.01831-1.23382H4.38415c-1.19069 0-2.18323.39886-3.0183 1.23382-.83331.83495-1.23139 1.82945-1.23139 3.02427v9.23059c0 .5584.19992 1.07427.63516 1.47314zm10.7233-15.639c1.38885 0 2.54062-.47687 3.53316-1.47137.95361-.9555 1.42954-2.10954 1.42954-3.50113 0-1.39337-.47593-2.54741-1.42954-3.50114-.99254-.99627-2.14431-1.47314-3.53316-1.47314-1.39061 0-2.54238.47687-3.53492 1.47314-.95362.95373-1.42954 2.10777-1.42954 3.50114 0 1.39159.47592 2.54563 1.42954 3.50113.99254.9945 2.1443 1.47137 3.53492 1.47137z" fill="#f0f0f0" fill-rule="evenodd"/></svg>