<svg width="12" height="12" viewBox="0 0 12 12" fill="none" xmlns="http://www.w3.org/2000/svg">
<g clip-path="url(#clip0_2599_7635)">
<path d="M6 6C7.89375 6 9.42857 4.65703 9.42857 3C9.42857 1.34297 7.89375 0 6 0C4.10625 0 2.57143 1.34297 2.57143 3C2.57143 4.65703 4.10625 6 6 6ZM8.4 6.75H7.95268C7.35804 6.98906 6.69643 7.125 6 7.125C5.30357 7.125 4.64464 6.98906 4.04732 6.75H3.6C1.6125 6.75 0 8.16094 0 9.9V10.875C0 11.4961 0.575893 12 1.28571 12H10.7143C11.4241 12 12 11.4961 12 10.875V9.9C12 8.16094 10.3875 6.75 8.4 6.75Z" fill="white"/>
</g>
<defs>
<clipPath id="clip0_2599_7635">
<rect width="12" height="12" fill="white"/>
</clipPath>
</defs>
</svg>
