<?xml version="1.0" encoding="iso-8859-1"?>
<!-- Generator: Adobe Illustrator 19.0.0, SVG Export Plug-In . SVG Version: 6.00 Build 0)  -->
<svg version="1.1" id="Capa_1" xmlns="http://www.w3.org/2000/svg" xmlns:xlink="http://www.w3.org/1999/xlink" x="0px" y="0px"
	 viewBox="0 0 512 512" style="enable-background:new 0 0 512 512;" xml:space="preserve">
<g>
	<g>
		<path d="M437.02,74.981C388.667,26.629,324.38,0,256.001,0C187.62,0,123.333,26.629,74.98,74.981
			C26.629,123.333,0,187.62,0,255.999c0,68.381,26.629,132.668,74.98,181.02c48.353,48.353,112.64,74.98,181.021,74.98
			c68.379,0,132.666-26.628,181.018-74.98C485.372,388.667,512,324.38,512,255.999C512.001,187.62,485.372,123.333,437.02,74.981z
			 M379.532,310.209c-21.578,49.383-70.336,81.291-124.217,81.291c-74.716,0-135.501-60.785-135.501-135.5
			s60.785-135.5,135.501-135.5c53.572,0,102.217,31.654,123.928,80.642c3.357,7.573-0.063,16.435-7.636,19.791
			s-16.435-0.063-19.791-7.636C334.909,175.15,297.03,150.5,255.315,150.5c-58.174,0-105.501,47.327-105.501,105.5
			c0,58.174,47.327,105.5,105.501,105.5c41.956,0,79.924-24.848,96.727-63.303c3.317-7.592,12.16-11.058,19.752-7.74
			C379.385,293.774,382.85,302.617,379.532,310.209z"/>
	</g>
</g>
<g>
</g>
<g>
</g>
<g>
</g>
<g>
</g>
<g>
</g>
<g>
</g>
<g>
</g>
<g>
</g>
<g>
</g>
<g>
</g>
<g>
</g>
<g>
</g>
<g>
</g>
<g>
</g>
<g>
</g>
</svg>
